<svg width="195" height="57" viewBox="0 0 195 57" fill="none" xmlns="http://www.w3.org/2000/svg">
<path d="M0 28.1355C0 12.5967 12.5967 0 28.1355 0H166.406C181.945 0 194.542 12.5967 194.542 28.1355C194.542 43.6742 181.945 56.2709 166.406 56.2709H28.1354C12.5966 56.2709 0 43.6742 0 28.1355Z" fill="url(#paint0_linear_1_420)"/>
<path d="M25.1516 22.479V20.5898H36.4087V22.479H31.8703V35.1353H29.6828V22.479H25.1516ZM37.593 35.1353V24.2262H39.6455V25.9591H39.7592C39.958 25.372 40.3084 24.9103 40.8103 24.5742C41.3169 24.2333 41.8898 24.0628 42.529 24.0628C42.6616 24.0628 42.8179 24.0675 42.9978 24.077C43.1825 24.0865 43.3269 24.0983 43.431 24.1125V26.1438C43.3458 26.1201 43.1943 26.0941 42.9765 26.0657C42.7587 26.0325 42.5409 26.0159 42.3231 26.0159C41.8212 26.0159 41.3737 26.1225 40.9807 26.3355C40.5925 26.5439 40.2847 26.8351 40.0575 27.2091C39.8302 27.5784 39.7165 27.9998 39.7165 28.4733V35.1353H37.593ZM46.9431 39.2262C46.6259 39.2262 46.337 39.2001 46.0766 39.148C45.8162 39.1007 45.6221 39.0486 45.4942 38.9918L46.0056 37.2517C46.3939 37.3559 46.7395 37.4009 47.0425 37.3867C47.3456 37.3725 47.6131 37.2588 47.8451 37.0458C48.0818 36.8327 48.2902 36.4847 48.4701 36.0017L48.7329 35.2773L44.7414 24.2262H47.0141L49.7769 32.6921H49.8905L52.6533 24.2262H54.9332L50.4374 36.5912C50.2291 37.1594 49.9639 37.64 49.642 38.033C49.32 38.4307 48.9365 38.729 48.4914 38.9279C48.0463 39.1267 47.5302 39.2262 46.9431 39.2262ZM64.5869 20.5898V35.1353H62.3923V20.5898H64.5869ZM72.7048 24.2262V25.9307H66.746V24.2262H72.7048ZM68.344 21.6125H70.4676V31.9321C70.4676 32.3441 70.5292 32.6542 70.6523 32.8625C70.7754 33.0661 70.934 33.2058 71.1281 33.2816C71.327 33.3526 71.5424 33.3881 71.7744 33.3881C71.9449 33.3881 72.094 33.3763 72.2219 33.3526C72.3497 33.3289 72.4491 33.31 72.5202 33.2958L72.9037 35.05C72.7806 35.0974 72.6054 35.1447 72.3781 35.1921C72.1508 35.2442 71.8668 35.2726 71.5258 35.2773C70.9671 35.2868 70.4463 35.1873 69.9633 34.979C69.4804 34.7707 69.0898 34.4487 68.7915 34.0131C68.4932 33.5775 68.344 33.0306 68.344 32.3725V21.6125ZM80.5173 35.1353V20.5898H85.702C86.8289 20.5898 87.764 20.7839 88.5074 21.1722C89.2555 21.5604 89.8142 22.0978 90.1835 22.7844C90.5528 23.4662 90.7375 24.2546 90.7375 25.1495C90.7375 26.0396 90.5505 26.8232 90.1764 27.5003C89.8071 28.1727 89.2484 28.6959 88.5003 29.0699C87.7569 29.444 86.8218 29.631 85.6949 29.631H81.7673V27.7418H85.496C86.2062 27.7418 86.7839 27.64 87.229 27.4364C87.6788 27.2328 88.0079 26.9369 88.2162 26.5486C88.4245 26.1603 88.5287 25.694 88.5287 25.1495C88.5287 24.6002 88.4222 24.1244 88.2091 23.7219C88.0008 23.3194 87.6717 23.0117 87.2219 22.7986C86.7768 22.5808 86.192 22.4719 85.4676 22.4719H82.7119V35.1353H80.5173ZM87.6977 28.5728L91.2915 35.1353H88.7915L85.2687 28.5728H87.6977ZM93.2375 35.1353V24.2262H95.3611V35.1353H93.2375ZM94.3099 22.5429C93.9406 22.5429 93.6234 22.4198 93.3582 22.1736C93.0978 21.9227 92.9676 21.6244 92.9676 21.2787C92.9676 20.9283 93.0978 20.63 93.3582 20.3838C93.6234 20.1329 93.9406 20.0074 94.3099 20.0074C94.6793 20.0074 94.9941 20.1329 95.2545 20.3838C95.5197 20.63 95.6523 20.9283 95.6523 21.2787C95.6523 21.6244 95.5197 21.9227 95.2545 22.1736C94.9941 22.4198 94.6793 22.5429 94.3099 22.5429ZM106.393 26.8895L104.468 27.2304C104.387 26.9842 104.26 26.7498 104.084 26.5273C103.914 26.3048 103.682 26.1225 103.388 25.9804C103.095 25.8384 102.728 25.7674 102.288 25.7674C101.686 25.7674 101.184 25.9023 100.782 26.1722C100.379 26.4373 100.178 26.7806 100.178 27.202C100.178 27.5666 100.313 27.8602 100.583 28.0827C100.853 28.3052 101.289 28.4875 101.89 28.6296L103.623 29.0273C104.627 29.2593 105.375 29.6168 105.867 30.0997C106.36 30.5827 106.606 31.2101 106.606 31.9818C106.606 32.6353 106.416 33.2176 106.038 33.729C105.664 34.2356 105.14 34.6334 104.468 34.9222C103.8 35.211 103.026 35.3554 102.146 35.3554C100.924 35.3554 99.9272 35.095 99.1555 34.5742C98.3837 34.0486 97.9102 33.3029 97.735 32.337L99.7876 32.0245C99.9154 32.5595 100.178 32.9643 100.576 33.2389C100.974 33.5088 101.492 33.6438 102.131 33.6438C102.827 33.6438 103.384 33.4994 103.8 33.2105C104.217 32.917 104.425 32.5595 104.425 32.1381C104.425 31.7972 104.298 31.5107 104.042 31.2787C103.791 31.0467 103.405 30.8715 102.884 30.7532L101.038 30.3483C100.02 30.1163 99.2667 29.747 98.779 29.2404C98.2961 28.7337 98.0546 28.0922 98.0546 27.3157C98.0546 26.6717 98.2345 26.1083 98.5944 25.6253C98.9542 25.1424 99.4514 24.7659 100.086 24.496C100.72 24.2214 101.447 24.0841 102.266 24.0841C103.445 24.0841 104.373 24.3398 105.05 24.8512C105.727 25.3578 106.175 26.0372 106.393 26.8895ZM110.894 31.435L110.88 28.8426H111.249L115.595 24.2262H118.138L113.181 29.4818H112.847L110.894 31.435ZM108.941 35.1353V20.5898H111.064V35.1353H108.941ZM115.83 35.1353L111.924 29.9506L113.387 28.4662L118.436 35.1353H115.83ZM125.759 28.0685V29.908H119.31V28.0685H125.759ZM128.76 35.1353V20.5898H137.779V22.479H130.954V26.9108H137.133V28.7929H130.954V35.1353H128.76ZM140.171 35.1353V24.2262H142.224V25.9591H142.337C142.536 25.372 142.887 24.9103 143.388 24.5742C143.895 24.2333 144.468 24.0628 145.107 24.0628C145.24 24.0628 145.396 24.0675 145.576 24.077C145.761 24.0865 145.905 24.0983 146.009 24.1125V26.1438C145.924 26.1201 145.772 26.0941 145.555 26.0657C145.337 26.0325 145.119 26.0159 144.901 26.0159C144.399 26.0159 143.952 26.1225 143.559 26.3355C143.171 26.5439 142.863 26.8351 142.636 27.2091C142.408 27.5784 142.295 27.9998 142.295 28.4733V35.1353H140.171ZM152.158 35.3554C151.083 35.3554 150.157 35.1258 149.381 34.6665C148.609 34.2025 148.013 33.5514 147.591 32.7134C147.175 31.8706 146.966 30.8834 146.966 29.7517C146.966 28.6343 147.175 27.6495 147.591 26.7972C148.013 25.9449 148.6 25.2797 149.353 24.8014C150.11 24.3232 150.996 24.0841 152.009 24.0841C152.624 24.0841 153.221 24.1859 153.799 24.3895C154.376 24.5931 154.895 24.9127 155.354 25.3483C155.813 25.7839 156.175 26.3497 156.441 27.0458C156.706 27.7371 156.838 28.5775 156.838 29.5671V30.3199H148.166V28.729H154.757C154.757 28.1703 154.644 27.6755 154.416 27.2446C154.189 26.809 153.87 26.4657 153.458 26.2148C153.05 25.9639 152.572 25.8384 152.023 25.8384C151.426 25.8384 150.906 25.9852 150.461 26.2787C150.02 26.5675 149.679 26.9463 149.438 27.4151C149.201 27.8791 149.083 28.3834 149.083 28.9279V30.1708C149.083 30.8999 149.211 31.5202 149.466 32.0316C149.727 32.5429 150.089 32.9335 150.553 33.2034C151.017 33.4686 151.559 33.6012 152.179 33.6012C152.582 33.6012 152.949 33.5443 153.28 33.4307C153.612 33.3123 153.898 33.1371 154.139 32.9051C154.381 32.6731 154.566 32.3867 154.693 32.0458L156.703 32.408C156.542 32.9998 156.254 33.5183 155.837 33.9634C155.425 34.4037 154.907 34.747 154.282 34.9932C153.661 35.2347 152.953 35.3554 152.158 35.3554ZM163.896 35.3554C162.821 35.3554 161.896 35.1258 161.119 34.6665C160.347 34.2025 159.751 33.5514 159.329 32.7134C158.913 31.8706 158.704 30.8834 158.704 29.7517C158.704 28.6343 158.913 27.6495 159.329 26.7972C159.751 25.9449 160.338 25.2797 161.091 24.8014C161.848 24.3232 162.734 24.0841 163.747 24.0841C164.363 24.0841 164.959 24.1859 165.537 24.3895C166.115 24.5931 166.633 24.9127 167.092 25.3483C167.552 25.7839 167.914 26.3497 168.179 27.0458C168.444 27.7371 168.577 28.5775 168.577 29.5671V30.3199H159.905V28.729H166.496C166.496 28.1703 166.382 27.6755 166.155 27.2446C165.927 26.809 165.608 26.4657 165.196 26.2148C164.789 25.9639 164.311 25.8384 163.761 25.8384C163.165 25.8384 162.644 25.9852 162.199 26.2787C161.758 26.5675 161.418 26.9463 161.176 27.4151C160.939 27.8791 160.821 28.3834 160.821 28.9279V30.1708C160.821 30.8999 160.949 31.5202 161.204 32.0316C161.465 32.5429 161.827 32.9335 162.291 33.2034C162.755 33.4686 163.297 33.6012 163.918 33.6012C164.32 33.6012 164.687 33.5443 165.018 33.4307C165.35 33.3123 165.636 33.1371 165.878 32.9051C166.119 32.6731 166.304 32.3867 166.432 32.0458L168.442 32.408C168.281 32.9998 167.992 33.5183 167.575 33.9634C167.163 34.4037 166.645 34.747 166.02 34.9932C165.4 35.2347 164.692 35.3554 163.896 35.3554Z" fill="white"/>
<defs>
<linearGradient id="paint0_linear_1_420" x1="97.2709" y1="0" x2="97.2709" y2="56.2709" gradientUnits="userSpaceOnUse">
<stop stop-color="#032E15"/>
<stop offset="1" stop-color="#016630"/>
</linearGradient>
</defs>
</svg>
