<svg width="145" height="49" viewBox="0 0 145 49" fill="none" xmlns="http://www.w3.org/2000/svg">
<path d="M0 24.5C0 10.969 10.969 0 24.5 0H120.5C134.031 0 145 10.969 145 24.5C145 38.031 134.031 49 120.5 49H24.5C10.969 49 0 38.031 0 24.5Z" fill="url(#paint0_linear_1_34)"/>
<path d="M36.675 21.2391C36.606 20.6271 36.3216 20.1531 35.8217 19.8169C35.3218 19.4765 34.6926 19.3063 33.9341 19.3063C33.3911 19.3063 32.9214 19.3925 32.5249 19.5648C32.1285 19.7329 31.8203 19.9656 31.6006 20.263C31.3851 20.556 31.2773 20.89 31.2773 21.2649C31.2773 21.5795 31.3506 21.851 31.4971 22.0794C31.648 22.3078 31.844 22.4996 32.0854 22.6547C32.331 22.8056 32.5939 22.9327 32.874 23.0361C33.1541 23.1352 33.4235 23.2171 33.682 23.2817L34.9749 23.6179C35.3972 23.7213 35.8303 23.8614 36.2742 24.0381C36.7181 24.2147 37.1296 24.4475 37.5088 24.7362C37.8881 25.0249 38.194 25.3826 38.4268 25.8092C38.6638 26.2359 38.7823 26.7466 38.7823 27.3413C38.7823 28.0911 38.5884 28.7569 38.2005 29.3387C37.817 29.9205 37.2589 30.3794 36.5263 30.7156C35.798 31.0517 34.9167 31.2198 33.8824 31.2198C32.8912 31.2198 32.0337 31.0625 31.3097 30.7479C30.5857 30.4333 30.019 29.9873 29.6096 29.4098C29.2002 28.828 28.9739 28.1385 28.9308 27.3413H30.9347C30.9735 27.8196 31.1287 28.2182 31.4002 28.5371C31.676 28.8517 32.0272 29.0866 32.4538 29.2417C32.8848 29.3926 33.3567 29.468 33.8695 29.468C34.434 29.468 34.9361 29.3796 35.3757 29.203C35.8195 29.022 36.1686 28.772 36.4229 28.4531C36.6771 28.1299 36.8042 27.7528 36.8042 27.3219C36.8042 26.9297 36.6922 26.6087 36.4681 26.3587C36.2483 26.1088 35.9488 25.9019 35.5696 25.7381C35.1947 25.5744 34.7702 25.43 34.2961 25.305L32.7318 24.8784C31.6717 24.5897 30.8313 24.1652 30.2108 23.605C29.5945 23.0447 29.2864 22.3035 29.2864 21.3813C29.2864 20.6185 29.4932 19.9527 29.9069 19.3838C30.3206 18.815 30.8809 18.3733 31.5876 18.0587C32.2944 17.7398 33.0916 17.5803 33.9794 17.5803C34.8758 17.5803 35.6665 17.7376 36.3517 18.0522C37.0413 18.3668 37.5843 18.7999 37.9807 19.3515C38.3772 19.8988 38.584 20.528 38.6013 21.2391H36.675ZM42.9468 25.1047V31H41.014V17.7613H42.921V22.687H43.0438C43.2765 22.1527 43.632 21.7282 44.1104 21.4136C44.5888 21.099 45.2136 20.9417 45.985 20.9417C46.6659 20.9417 47.2606 21.0818 47.7691 21.3619C48.282 21.642 48.6784 22.06 48.9585 22.6159C49.243 23.1675 49.3852 23.8571 49.3852 24.6845V31H47.4524V24.9172C47.4524 24.1889 47.2649 23.6243 46.89 23.2236C46.5151 22.8185 45.9936 22.6159 45.3257 22.6159C44.8689 22.6159 44.4595 22.7129 44.0975 22.9068C43.7398 23.1007 43.4575 23.3852 43.2507 23.7601C43.0481 24.1307 42.9468 24.5789 42.9468 25.1047ZM56.1467 31.2004C55.2159 31.2004 54.4036 30.9871 53.7097 30.5604C53.0159 30.1338 52.4772 29.5369 52.0937 28.7699C51.7101 28.0028 51.5184 27.1064 51.5184 26.0807C51.5184 25.0508 51.7101 24.1501 52.0937 23.3787C52.4772 22.6073 53.0159 22.0083 53.7097 21.5817C54.4036 21.155 55.2159 20.9417 56.1467 20.9417C57.0776 20.9417 57.8899 21.155 58.5837 21.5817C59.2776 22.0083 59.8162 22.6073 60.1998 23.3787C60.5833 24.1501 60.7751 25.0508 60.7751 26.0807C60.7751 27.1064 60.5833 28.0028 60.1998 28.7699C59.8162 29.5369 59.2776 30.1338 58.5837 30.5604C57.8899 30.9871 57.0776 31.2004 56.1467 31.2004ZM56.1532 29.5779C56.7565 29.5779 57.2564 29.4184 57.6529 29.0995C58.0494 28.7806 58.3424 28.3561 58.532 27.8261C58.726 27.296 58.8229 26.7121 58.8229 26.0743C58.8229 25.4408 58.726 24.859 58.532 24.3289C58.3424 23.7946 58.0494 23.3658 57.6529 23.0426C57.2564 22.7194 56.7565 22.5578 56.1532 22.5578C55.5456 22.5578 55.0414 22.7194 54.6406 23.0426C54.2441 23.3658 53.9489 23.7946 53.755 24.3289C53.5654 24.859 53.4706 25.4408 53.4706 26.0743C53.4706 26.7121 53.5654 27.296 53.755 27.8261C53.9489 28.3561 54.2441 28.7806 54.6406 29.0995C55.0414 29.4184 55.5456 29.5779 56.1532 29.5779ZM62.9325 34.7234V21.071H64.8201V22.6806H64.9817C65.0937 22.4737 65.2553 22.2345 65.4665 21.963C65.6777 21.6916 65.9707 21.4545 66.3456 21.252C66.7205 21.0451 67.2161 20.9417 67.8324 20.9417C68.634 20.9417 69.3493 21.1443 69.9785 21.5493C70.6077 21.9544 71.1011 22.5384 71.4588 23.3011C71.8208 24.0639 72.0018 24.9818 72.0018 26.0549C72.0018 27.1279 71.823 28.048 71.4653 28.8151C71.1076 29.5779 70.6163 30.1661 69.9914 30.5798C69.3666 30.9892 68.6533 31.1939 67.8518 31.1939C67.2485 31.1939 66.755 31.0927 66.3715 30.8901C65.9922 30.6876 65.6949 30.4505 65.4794 30.179C65.2639 29.9076 65.098 29.6662 64.9817 29.4551H64.8653V34.7234H62.9325ZM64.8265 26.0355C64.8265 26.7336 64.9278 27.3456 65.1304 27.8713C65.3329 28.3971 65.6259 28.8086 66.0095 29.106C66.393 29.399 66.8628 29.5456 67.4187 29.5456C67.9962 29.5456 68.4788 29.3926 68.8667 29.0866C69.2545 28.7763 69.5476 28.3561 69.7458 27.8261C69.9483 27.296 70.0496 26.6992 70.0496 26.0355C70.0496 25.3805 69.9505 24.7922 69.7523 24.2708C69.5583 23.7493 69.2653 23.3378 68.8731 23.0361C68.4853 22.7344 68.0005 22.5836 67.4187 22.5836C66.8585 22.5836 66.3844 22.728 65.9966 23.0167C65.613 23.3054 65.3221 23.7084 65.1239 24.2255C64.9257 24.7427 64.8265 25.346 64.8265 26.0355ZM89.8252 17.7613V31H87.9894L81.2601 21.2908H81.1373V31H79.1399V17.7613H80.9887L87.7243 27.4835H87.8472V17.7613H89.8252ZM96.7661 31.2004C95.8353 31.2004 95.023 30.9871 94.3291 30.5604C93.6353 30.1338 93.0966 29.5369 92.7131 28.7699C92.3296 28.0028 92.1378 27.1064 92.1378 26.0807C92.1378 25.0508 92.3296 24.1501 92.7131 23.3787C93.0966 22.6073 93.6353 22.0083 94.3291 21.5817C95.023 21.155 95.8353 20.9417 96.7661 20.9417C97.697 20.9417 98.5093 21.155 99.2032 21.5817C99.897 22.0083 100.436 22.6073 100.819 23.3787C101.203 24.1501 101.395 25.0508 101.395 26.0807C101.395 27.1064 101.203 28.0028 100.819 28.7699C100.436 29.5369 99.897 30.1338 99.2032 30.5604C98.5093 30.9871 97.697 31.2004 96.7661 31.2004ZM96.7726 29.5779C97.3759 29.5779 97.8758 29.4184 98.2723 29.0995C98.6688 28.7806 98.9618 28.3561 99.1514 27.8261C99.3454 27.296 99.4423 26.7121 99.4423 26.0743C99.4423 25.4408 99.3454 24.859 99.1514 24.3289C98.9618 23.7946 98.6688 23.3658 98.2723 23.0426C97.8758 22.7194 97.3759 22.5578 96.7726 22.5578C96.165 22.5578 95.6608 22.7194 95.26 23.0426C94.8635 23.3658 94.5683 23.7946 94.3744 24.3289C94.1848 24.859 94.09 25.4408 94.09 26.0743C94.09 26.7121 94.1848 27.296 94.3744 27.8261C94.5683 28.3561 94.8635 28.7806 95.26 29.0995C95.6608 29.4184 96.165 29.5779 96.7726 29.5779ZM105.402 31L102.48 21.071H104.478L106.424 28.3626H106.521L108.473 21.071H110.47L112.41 28.3303H112.506L114.439 21.071H116.437L113.521 31H111.55L109.533 23.8312H109.384L107.367 31H105.402Z" fill="white"/>
<defs>
<linearGradient id="paint0_linear_1_34" x1="72.5" y1="0" x2="72.5" y2="49" gradientUnits="userSpaceOnUse">
<stop stop-color="#032E15"/>
<stop offset="1" stop-color="#016630"/>
</linearGradient>
</defs>
</svg>
