<svg width="692" height="64" viewBox="0 0 692 64" fill="none" xmlns="http://www.w3.org/2000/svg">
<path d="M3.53977 52V11.2727H12.1506V44.9006H29.6108V52H3.53977ZM33.8254 52V21.4545H42.297V52H33.8254ZM38.0811 17.517C36.8216 17.517 35.7411 17.0994 34.8396 16.2642C33.9514 15.4157 33.5072 14.4015 33.5072 13.2216C33.5072 12.0549 33.9514 11.054 34.8396 10.2188C35.7411 9.37026 36.8216 8.94602 38.0811 8.94602C39.3406 8.94602 40.4144 9.37026 41.3027 10.2188C42.2042 11.054 42.655 12.0549 42.655 13.2216C42.655 14.4015 42.2042 15.4157 41.3027 16.2642C40.4144 17.0994 39.3406 17.517 38.0811 17.517ZM76.2318 21.4545L65.5528 52H56.0074L45.3284 21.4545H54.2773L60.621 43.3097H60.9392L67.2631 21.4545H76.2318ZM92.1744 52.5966C89.0324 52.5966 86.3278 51.9602 84.0608 50.6875C81.807 49.4015 80.0702 47.5852 78.8505 45.2386C77.6309 42.8788 77.021 40.0881 77.021 36.8665C77.021 33.7244 77.6309 30.9669 78.8505 28.5938C80.0702 26.2206 81.7871 24.3712 84.0011 23.0455C86.2284 21.7197 88.8401 21.0568 91.8363 21.0568C93.8515 21.0568 95.7274 21.3816 97.4642 22.0312C99.2142 22.6676 100.739 23.6288 102.038 24.9148C103.351 26.2008 104.371 27.8182 105.101 29.767C105.83 31.7027 106.194 33.9697 106.194 36.5682V38.8949H80.4017V33.6449H98.2199C98.2199 32.4252 97.9547 31.3447 97.4244 30.4034C96.8941 29.4621 96.1583 28.7263 95.217 28.196C94.289 27.6525 93.2085 27.3807 91.9755 27.3807C90.6896 27.3807 89.5494 27.679 88.5551 28.2756C87.574 28.8589 86.8051 29.6477 86.2483 30.642C85.6915 31.6231 85.4064 32.7169 85.3932 33.9233V38.9148C85.3932 40.4261 85.6716 41.732 86.2284 42.8324C86.7985 43.9328 87.6005 44.7812 88.6346 45.3778C89.6687 45.9744 90.8951 46.2727 92.3136 46.2727C93.2549 46.2727 94.1166 46.1402 94.8988 45.875C95.681 45.6098 96.3505 45.2121 96.9074 44.6818C97.4642 44.1515 97.8884 43.5019 98.1801 42.733L106.015 43.25C105.618 45.1326 104.802 46.7765 103.569 48.1818C102.35 49.5739 100.772 50.661 98.8363 51.4432C96.914 52.2121 94.6934 52.5966 92.1744 52.5966ZM127.256 63.4545C126.183 63.4545 125.175 63.3684 124.234 63.196C123.306 63.0369 122.537 62.8314 121.927 62.5795L123.836 56.2557C124.83 56.5606 125.725 56.7263 126.521 56.7528C127.329 56.7794 128.025 56.5938 128.609 56.196C129.205 55.7983 129.689 55.1222 130.06 54.1676L130.558 52.875L119.6 21.4545H128.509L134.833 43.8864H135.151L141.535 21.4545H150.504L138.631 55.3011C138.061 56.9451 137.286 58.3769 136.305 59.5966C135.337 60.8295 134.111 61.7775 132.626 62.4403C131.141 63.1165 129.351 63.4545 127.256 63.4545ZM166.327 52.5966C163.238 52.5966 160.566 51.9403 158.313 50.6278C156.072 49.3021 154.342 47.4593 153.122 45.0994C151.903 42.7263 151.293 39.9754 151.293 36.8466C151.293 33.6913 151.903 30.9337 153.122 28.5739C154.342 26.2008 156.072 24.358 158.313 23.0455C160.566 21.7197 163.238 21.0568 166.327 21.0568C169.416 21.0568 172.081 21.7197 174.321 23.0455C176.575 24.358 178.312 26.2008 179.531 28.5739C180.751 30.9337 181.361 33.6913 181.361 36.8466C181.361 39.9754 180.751 42.7263 179.531 45.0994C178.312 47.4593 176.575 49.3021 174.321 50.6278C172.081 51.9403 169.416 52.5966 166.327 52.5966ZM166.367 46.0341C167.772 46.0341 168.945 45.6364 169.886 44.8409C170.828 44.0322 171.537 42.9318 172.014 41.5398C172.505 40.1477 172.75 38.5634 172.75 36.7869C172.75 35.0104 172.505 33.4261 172.014 32.0341C171.537 30.642 170.828 29.5417 169.886 28.733C168.945 27.9242 167.772 27.5199 166.367 27.5199C164.948 27.5199 163.755 27.9242 162.787 28.733C161.832 29.5417 161.11 30.642 160.619 32.0341C160.142 33.4261 159.904 35.0104 159.904 36.7869C159.904 38.5634 160.142 40.1477 160.619 41.5398C161.11 42.9318 161.832 44.0322 162.787 44.8409C163.755 45.6364 164.948 46.0341 166.367 46.0341ZM205.129 38.9943V21.4545H213.6V52H205.467V46.4517H205.149C204.459 48.2415 203.313 49.6799 201.708 50.767C200.117 51.8542 198.175 52.3977 195.882 52.3977C193.84 52.3977 192.044 51.9337 190.492 51.0057C188.941 50.0777 187.728 48.7585 186.853 47.0483C185.991 45.3381 185.554 43.2898 185.541 40.9034V21.4545H194.012V39.392C194.026 41.1951 194.509 42.6203 195.464 43.6676C196.419 44.715 197.698 45.2386 199.302 45.2386C200.323 45.2386 201.277 45.0066 202.166 44.5426C203.054 44.0653 203.77 43.3627 204.313 42.4347C204.87 41.5066 205.142 40.3598 205.129 38.9943ZM219.048 52V21.4545H227.261V26.7841H227.579C228.136 24.8883 229.071 23.4564 230.383 22.4886C231.696 21.5076 233.207 21.017 234.917 21.017C235.342 21.017 235.799 21.0436 236.289 21.0966C236.78 21.1496 237.211 21.2225 237.582 21.3153V28.8324C237.184 28.7131 236.634 28.607 235.931 28.5142C235.229 28.4214 234.586 28.375 234.003 28.375C232.756 28.375 231.643 28.6468 230.662 29.1903C229.694 29.7206 228.925 30.4631 228.355 31.4176C227.798 32.3722 227.52 33.4725 227.52 34.7188V52H219.048ZM252.425 52V11.2727H260.896V26.5852H261.155C261.526 25.7633 262.063 24.928 262.766 24.0795C263.481 23.2178 264.41 22.5019 265.55 21.9318C266.703 21.3485 268.135 21.0568 269.845 21.0568C272.072 21.0568 274.127 21.6402 276.01 22.8068C277.892 23.9602 279.397 25.7036 280.524 28.0369C281.651 30.357 282.214 33.267 282.214 36.767C282.214 40.1742 281.664 43.0511 280.564 45.3977C279.477 47.7311 277.992 49.5009 276.109 50.7074C274.24 51.9006 272.145 52.4972 269.825 52.4972C268.181 52.4972 266.783 52.2254 265.629 51.6818C264.489 51.1383 263.554 50.4555 262.825 49.6335C262.096 48.7983 261.539 47.9564 261.155 47.108H260.777V52H252.425ZM260.717 36.7273C260.717 38.5436 260.969 40.1278 261.473 41.4801C261.977 42.8324 262.706 43.8864 263.66 44.642C264.615 45.3845 265.775 45.7557 267.141 45.7557C268.519 45.7557 269.686 45.3778 270.641 44.6222C271.595 43.8532 272.318 42.7926 272.808 41.4403C273.312 40.0748 273.564 38.5038 273.564 36.7273C273.564 34.964 273.319 33.4129 272.828 32.0739C272.338 30.7348 271.615 29.6875 270.66 28.9318C269.706 28.1761 268.533 27.7983 267.141 27.7983C265.762 27.7983 264.595 28.1629 263.641 28.892C262.699 29.6212 261.977 30.6553 261.473 31.9943C260.969 33.3333 260.717 34.911 260.717 36.7273ZM300.459 52.5966C297.317 52.5966 294.612 51.9602 292.345 50.6875C290.091 49.4015 288.355 47.5852 287.135 45.2386C285.915 42.8788 285.305 40.0881 285.305 36.8665C285.305 33.7244 285.915 30.9669 287.135 28.5938C288.355 26.2206 290.072 24.3712 292.286 23.0455C294.513 21.7197 297.125 21.0568 300.121 21.0568C302.136 21.0568 304.012 21.3816 305.749 22.0312C307.499 22.6676 309.023 23.6288 310.323 24.9148C311.635 26.2008 312.656 27.8182 313.385 29.767C314.114 31.7027 314.479 33.9697 314.479 36.5682V38.8949H288.686V33.6449H306.504C306.504 32.4252 306.239 31.3447 305.709 30.4034C305.179 29.4621 304.443 28.7263 303.501 28.196C302.573 27.6525 301.493 27.3807 300.26 27.3807C298.974 27.3807 297.834 27.679 296.84 28.2756C295.859 28.8589 295.09 29.6477 294.533 30.642C293.976 31.6231 293.691 32.7169 293.678 33.9233V38.9148C293.678 40.4261 293.956 41.732 294.513 42.8324C295.083 43.9328 295.885 44.7812 296.919 45.3778C297.953 45.9744 299.18 46.2727 300.598 46.2727C301.539 46.2727 302.401 46.1402 303.183 45.875C303.966 45.6098 304.635 45.2121 305.192 44.6818C305.749 44.1515 306.173 43.5019 306.465 42.733L314.3 43.25C313.902 45.1326 313.087 46.7765 311.854 48.1818C310.634 49.5739 309.056 50.661 307.121 51.4432C305.198 52.2121 302.978 52.5966 300.459 52.5966ZM344.093 30.1648L336.338 30.642C336.205 29.9792 335.92 29.3826 335.482 28.8523C335.045 28.3087 334.468 27.8778 333.752 27.5597C333.05 27.2282 332.208 27.0625 331.227 27.0625C329.914 27.0625 328.807 27.3409 327.906 27.8977C327.004 28.4413 326.553 29.1705 326.553 30.0852C326.553 30.8144 326.845 31.4309 327.428 31.9347C328.012 32.4384 329.013 32.8428 330.431 33.1477L335.96 34.2614C338.929 34.8712 341.143 35.8523 342.602 37.2045C344.06 38.5568 344.789 40.3333 344.789 42.5341C344.789 44.536 344.199 46.2926 343.019 47.804C341.853 49.3153 340.249 50.4953 338.207 51.3438C336.178 52.179 333.839 52.5966 331.187 52.5966C327.143 52.5966 323.922 51.7547 321.522 50.071C319.136 48.3741 317.737 46.0672 317.326 43.1506L325.659 42.7131C325.91 43.946 326.52 44.8873 327.488 45.5369C328.456 46.1733 329.696 46.4915 331.207 46.4915C332.692 46.4915 333.885 46.2064 334.786 45.6364C335.701 45.053 336.165 44.304 336.178 43.3892C336.165 42.6203 335.84 41.9905 335.204 41.5C334.568 40.9962 333.587 40.6117 332.261 40.3466L326.971 39.2926C323.988 38.696 321.767 37.6619 320.309 36.1903C318.864 34.7187 318.142 32.8428 318.142 30.5625C318.142 28.6004 318.672 26.91 319.732 25.4915C320.806 24.0729 322.311 22.9792 324.247 22.2102C326.196 21.4413 328.476 21.0568 331.088 21.0568C334.946 21.0568 337.982 21.8722 340.196 23.5028C342.423 25.1335 343.722 27.3542 344.093 30.1648ZM365.042 21.4545V27.8182H346.647V21.4545H365.042ZM350.823 14.1364H359.295V42.6136C359.295 43.3958 359.414 44.0057 359.653 44.4432C359.892 44.8674 360.223 45.1657 360.647 45.3381C361.085 45.5104 361.589 45.5966 362.159 45.5966C362.556 45.5966 362.954 45.5634 363.352 45.4972C363.75 45.4176 364.055 45.358 364.267 45.3182L365.599 51.6222C365.175 51.7547 364.578 51.9072 363.809 52.0795C363.04 52.2652 362.106 52.3778 361.005 52.4176C358.964 52.4972 357.174 52.2254 355.636 51.6023C354.111 50.9792 352.925 50.0114 352.076 48.6989C351.228 47.3864 350.81 45.7292 350.823 43.7273V14.1364ZM389.336 11.2727V52H380.864V11.2727H389.336ZM394.793 52V21.4545H403.265V52H394.793ZM399.049 17.517C397.79 17.517 396.709 17.0994 395.808 16.2642C394.919 15.4157 394.475 14.4015 394.475 13.2216C394.475 12.0549 394.919 11.054 395.808 10.2188C396.709 9.37026 397.79 8.94602 399.049 8.94602C400.309 8.94602 401.382 9.37026 402.271 10.2188C403.172 11.054 403.623 12.0549 403.623 13.2216C403.623 14.4015 403.172 15.4157 402.271 16.2642C401.382 17.0994 400.309 17.517 399.049 17.517ZM425.149 21.4545V27.8182H406.296V21.4545H425.149ZM410.612 52V19.2472C410.612 17.0331 411.043 15.197 411.904 13.7386C412.779 12.2803 413.972 11.1866 415.484 10.4574C416.995 9.72822 418.712 9.36363 420.634 9.36363C421.934 9.36363 423.12 9.46307 424.194 9.66193C425.281 9.86079 426.09 10.0398 426.62 10.1989L425.109 16.5625C424.777 16.4564 424.366 16.357 423.876 16.2642C423.399 16.1714 422.908 16.125 422.404 16.125C421.158 16.125 420.29 16.4167 419.799 17C419.309 17.5701 419.063 18.3722 419.063 19.4062V52H410.612ZM441.822 52.5966C438.68 52.5966 435.975 51.9602 433.708 50.6875C431.455 49.4015 429.718 47.5852 428.498 45.2386C427.278 42.8788 426.669 40.0881 426.669 36.8665C426.669 33.7244 427.278 30.9669 428.498 28.5938C429.718 26.2206 431.435 24.3712 433.649 23.0455C435.876 21.7197 438.488 21.0568 441.484 21.0568C443.499 21.0568 445.375 21.3816 447.112 22.0312C448.862 22.6676 450.386 23.6288 451.686 24.9148C452.998 26.2008 454.019 27.8182 454.748 29.767C455.477 31.7027 455.842 33.9697 455.842 36.5682V38.8949H430.049V33.6449H447.867C447.867 32.4252 447.602 31.3447 447.072 30.4034C446.542 29.4621 445.806 28.7263 444.865 28.196C443.937 27.6525 442.856 27.3807 441.623 27.3807C440.337 27.3807 439.197 27.679 438.203 28.2756C437.222 28.8589 436.453 29.6477 435.896 30.642C435.339 31.6231 435.054 32.7169 435.041 33.9233V38.9148C435.041 40.4261 435.319 41.732 435.876 42.8324C436.446 43.9328 437.248 44.7812 438.282 45.3778C439.316 45.9744 440.543 46.2727 441.961 46.2727C442.903 46.2727 443.764 46.1402 444.546 45.875C445.329 45.6098 445.998 45.2121 446.555 44.6818C447.112 44.1515 447.536 43.5019 447.828 42.733L455.663 43.25C455.265 45.1326 454.45 46.7765 453.217 48.1818C451.997 49.5739 450.42 50.661 448.484 51.4432C446.562 52.2121 444.341 52.5966 441.822 52.5966ZM464.993 52.517C463.681 52.517 462.554 52.053 461.613 51.125C460.685 50.1837 460.221 49.0568 460.221 47.7443C460.221 46.4451 460.685 45.3314 461.613 44.4034C462.554 43.4754 463.681 43.0114 464.993 43.0114C466.266 43.0114 467.38 43.4754 468.334 44.4034C469.289 45.3314 469.766 46.4451 469.766 47.7443C469.766 48.6193 469.541 49.4214 469.09 50.1506C468.652 50.8665 468.076 51.4432 467.36 51.8807C466.644 52.3049 465.855 52.517 464.993 52.517Z" fill="#032E15"/>
</svg>
