<svg width="626" height="72" viewBox="0 0 626 72" fill="none" xmlns="http://www.w3.org/2000/svg">
<rect x="0.5" y="0.5" width="625" height="71" rx="7.5" fill="white"/>
<rect x="0.5" y="0.5" width="625" height="71" rx="7.5" stroke="#CDCDCD"/>
<path d="M41.1548 33.1378C41.098 32.5649 40.8542 32.1198 40.4233 31.8026C39.9924 31.4853 39.4077 31.3267 38.669 31.3267C38.1671 31.3267 37.7434 31.3977 37.3977 31.5398C37.0521 31.6771 36.7869 31.8688 36.6023 32.1151C36.4223 32.3613 36.3324 32.6406 36.3324 32.9531C36.3229 33.2135 36.3774 33.4408 36.4957 33.6349C36.6188 33.8291 36.7869 33.9972 37 34.1392C37.2131 34.2765 37.4593 34.3973 37.7386 34.5014C38.018 34.6009 38.3163 34.6861 38.6335 34.7571L39.9403 35.0696C40.5748 35.2116 41.1572 35.401 41.6875 35.6378C42.2178 35.8745 42.6771 36.1657 43.0653 36.5114C43.4536 36.857 43.7543 37.2642 43.9673 37.733C44.1851 38.2017 44.2964 38.7391 44.3011 39.3452C44.2964 40.2353 44.0691 41.0071 43.6193 41.6605C43.1742 42.3092 42.5303 42.8134 41.6875 43.1733C40.8494 43.5284 39.8385 43.706 38.6548 43.706C37.4806 43.706 36.4579 43.526 35.5866 43.1662C34.7202 42.8063 34.0431 42.2737 33.5554 41.5682C33.0724 40.858 32.8191 39.9796 32.7955 38.9332H35.7713C35.8045 39.4209 35.9441 39.8281 36.1903 40.1548C36.4413 40.4768 36.7751 40.7206 37.1918 40.8864C37.6132 41.0473 38.089 41.1278 38.6193 41.1278C39.1402 41.1278 39.5923 41.0521 39.9759 40.9006C40.3641 40.7491 40.6648 40.5384 40.8778 40.2685C41.0909 39.9986 41.1974 39.6884 41.1974 39.3381C41.1974 39.0114 41.1004 38.7367 40.9062 38.5142C40.7169 38.2917 40.4375 38.1023 40.0682 37.946C39.7036 37.7898 39.2562 37.6477 38.7259 37.5199L37.142 37.1222C35.9157 36.8239 34.9474 36.3575 34.2372 35.723C33.527 35.0885 33.1742 34.2339 33.179 33.1591C33.1742 32.2784 33.4086 31.509 33.8821 30.8509C34.3603 30.1927 35.0161 29.679 35.8494 29.3097C36.6828 28.9403 37.6297 28.7557 38.6903 28.7557C39.7699 28.7557 40.7121 28.9403 41.517 29.3097C42.3267 29.679 42.9564 30.1927 43.4062 30.8509C43.8561 31.509 44.0881 32.2713 44.1023 33.1378H41.1548ZM46.3129 43.5V32.5909H49.3384V43.5H46.3129ZM47.8327 31.1847C47.3829 31.1847 46.997 31.0355 46.6751 30.7372C46.3578 30.4342 46.1992 30.072 46.1992 29.6506C46.1992 29.2339 46.3578 28.8764 46.6751 28.5781C46.997 28.2751 47.3829 28.1236 47.8327 28.1236C48.2826 28.1236 48.6661 28.2751 48.9833 28.5781C49.3053 28.8764 49.4663 29.2339 49.4663 29.6506C49.4663 30.072 49.3053 30.4342 48.9833 30.7372C48.6661 31.0355 48.2826 31.1847 47.8327 31.1847ZM56.6768 47.8182C55.6967 47.8182 54.8563 47.6832 54.1555 47.4134C53.4595 47.1482 52.9055 46.786 52.4936 46.3267C52.0817 45.8674 51.8142 45.3513 51.6911 44.7784L54.4893 44.402C54.5746 44.6198 54.7095 44.8234 54.8942 45.0128C55.0788 45.2022 55.3227 45.3537 55.6257 45.4673C55.9335 45.5857 56.3075 45.6449 56.7479 45.6449C57.406 45.6449 57.9482 45.4839 58.3743 45.1619C58.8052 44.8447 59.0206 44.312 59.0206 43.5639V41.5682H58.8928C58.7602 41.8712 58.5613 42.1577 58.2962 42.4276C58.031 42.6974 57.6901 42.9176 57.2734 43.0881C56.8568 43.2585 56.3596 43.3438 55.782 43.3438C54.9628 43.3438 54.2171 43.1544 53.5447 42.7756C52.8771 42.392 52.3445 41.8073 51.9467 41.0213C51.5537 40.2306 51.3572 39.2315 51.3572 38.0241C51.3572 36.7884 51.5585 35.7562 51.9609 34.9276C52.3634 34.099 52.8984 33.4787 53.5661 33.0668C54.2384 32.6548 54.9747 32.4489 55.7749 32.4489C56.3857 32.4489 56.897 32.553 57.3089 32.7614C57.7209 32.965 58.0523 33.2206 58.3033 33.5284C58.5589 33.8314 58.7554 34.1297 58.8928 34.4233H59.0064V32.5909H62.0107V43.6065C62.0107 44.5346 61.7834 45.3111 61.3288 45.9361C60.8743 46.5611 60.2446 47.0298 59.4396 47.3423C58.6394 47.6596 57.7185 47.8182 56.6768 47.8182ZM56.7408 41.071C57.2285 41.071 57.6404 40.9503 57.9766 40.7088C58.3175 40.4626 58.5779 40.1122 58.7578 39.6577C58.9425 39.1984 59.0348 38.6491 59.0348 38.0099C59.0348 37.3707 58.9448 36.8168 58.7649 36.348C58.585 35.8745 58.3246 35.5076 57.9837 35.2472C57.6428 34.9867 57.2285 34.8565 56.7408 34.8565C56.2436 34.8565 55.8246 34.9915 55.4837 35.2614C55.1428 35.5265 54.8847 35.8958 54.7095 36.3693C54.5343 36.8428 54.4467 37.3897 54.4467 38.0099C54.4467 38.6397 54.5343 39.1842 54.7095 39.6435C54.8894 40.098 55.1475 40.4508 55.4837 40.7017C55.8246 40.9479 56.2436 41.071 56.7408 41.071ZM67.4439 37.1932V43.5H64.4183V32.5909H67.3018V34.5156H67.4297C67.6712 33.8812 68.076 33.3793 68.6442 33.0099C69.2124 32.6359 69.9013 32.4489 70.7109 32.4489C71.4685 32.4489 72.129 32.6146 72.6925 32.946C73.2559 33.2775 73.6939 33.7509 74.0064 34.3665C74.3189 34.9773 74.4751 35.7064 74.4751 36.554V43.5H71.4496V37.0938C71.4543 36.4261 71.2839 35.9053 70.9382 35.5312C70.5926 35.1525 70.1167 34.9631 69.5107 34.9631C69.1035 34.9631 68.7436 35.0507 68.4311 35.2259C68.1233 35.401 67.8819 35.6567 67.7067 35.9929C67.5362 36.3243 67.4486 36.7244 67.4439 37.1932ZM79.9705 43.706C79.2745 43.706 78.6542 43.5852 78.1097 43.3438C77.5652 43.0975 77.1344 42.7353 76.8171 42.2571C76.5046 41.7741 76.3484 41.1728 76.3484 40.4531C76.3484 39.8471 76.4596 39.3381 76.6822 38.9261C76.9047 38.5142 77.2077 38.1828 77.5913 37.9318C77.9748 37.6809 78.4104 37.4915 78.8981 37.3636C79.3905 37.2358 79.9066 37.1458 80.4464 37.0938C81.0808 37.0275 81.5922 36.9659 81.9805 36.9091C82.3687 36.8475 82.6505 36.7576 82.8256 36.6392C83.0008 36.5208 83.0884 36.3456 83.0884 36.1136V36.071C83.0884 35.6212 82.9464 35.2732 82.6623 35.027C82.3829 34.7808 81.9852 34.6577 81.4691 34.6577C80.9246 34.6577 80.4914 34.7784 80.1694 35.0199C79.8474 35.2566 79.6344 35.5549 79.5302 35.9148L76.7319 35.6875C76.8739 35.0246 77.1533 34.4517 77.57 33.9688C77.9866 33.4811 78.524 33.107 79.1822 32.8466C79.8451 32.5814 80.6121 32.4489 81.4833 32.4489C82.0894 32.4489 82.6694 32.5199 83.2234 32.6619C83.7821 32.804 84.2769 33.0241 84.7077 33.3224C85.1433 33.6207 85.4866 34.0043 85.7376 34.473C85.9885 34.937 86.114 35.4934 86.114 36.142V43.5H83.2447V41.9872H83.1594C82.9843 42.3281 82.7499 42.6288 82.4563 42.8892C82.1628 43.1449 81.81 43.3461 81.3981 43.4929C80.9862 43.6349 80.5103 43.706 79.9705 43.706ZM80.837 41.6179C81.2821 41.6179 81.6751 41.5303 82.016 41.3551C82.3569 41.1752 82.6244 40.9337 82.8185 40.6307C83.0127 40.3277 83.1097 39.9844 83.1097 39.6009V38.4432C83.015 38.5047 82.8848 38.5616 82.7191 38.6136C82.5581 38.661 82.3758 38.706 82.1722 38.7486C81.9686 38.7865 81.765 38.822 81.5614 38.8551C81.3578 38.8835 81.1732 38.9096 81.0075 38.9332C80.6523 38.9853 80.3422 39.0682 80.0771 39.1818C79.8119 39.2955 79.6059 39.4493 79.4592 39.6435C79.3124 39.8329 79.239 40.0696 79.239 40.3537C79.239 40.7656 79.3881 41.0805 79.6864 41.2983C79.9895 41.5114 80.373 41.6179 80.837 41.6179ZM94.2638 32.5909V34.8636H87.6942V32.5909H94.2638ZM89.1857 29.9773H92.2113V40.1477C92.2113 40.4271 92.2539 40.6449 92.3391 40.8011C92.4244 40.9527 92.5427 41.0592 92.6942 41.1207C92.8505 41.1823 93.0304 41.2131 93.234 41.2131C93.3761 41.2131 93.5181 41.2012 93.6602 41.1776C93.8022 41.1491 93.9111 41.1278 93.9869 41.1136L94.4627 43.3651C94.3112 43.4124 94.0981 43.4669 93.8235 43.5284C93.5489 43.5947 93.2151 43.6349 92.8221 43.6491C92.0929 43.6776 91.4537 43.5805 90.9045 43.358C90.36 43.1354 89.9362 42.7898 89.6332 42.321C89.3301 41.8523 89.181 41.2604 89.1857 40.5455V29.9773ZM103.23 38.8551V32.5909H106.256V43.5H103.351V41.5185H103.238C102.991 42.1577 102.582 42.6714 102.009 43.0597C101.441 43.4479 100.747 43.642 99.9279 43.642C99.1987 43.642 98.5572 43.4763 98.0032 43.1449C97.4492 42.8134 97.016 42.3423 96.7035 41.7315C96.3957 41.1207 96.2395 40.3892 96.2347 39.5369V32.5909H99.2603V38.9972C99.265 39.6411 99.4379 40.1501 99.7788 40.5241C100.12 40.8982 100.577 41.0852 101.15 41.0852C101.514 41.0852 101.855 41.0024 102.172 40.8366C102.489 40.6662 102.745 40.4152 102.939 40.0838C103.138 39.7524 103.235 39.3428 103.23 38.8551ZM108.676 43.5V32.5909H111.609V34.4943H111.723C111.922 33.8172 112.256 33.3059 112.724 32.9602C113.193 32.6098 113.733 32.4347 114.344 32.4347C114.495 32.4347 114.659 32.4441 114.834 32.4631C115.009 32.482 115.163 32.508 115.295 32.5412V35.2259C115.153 35.1832 114.957 35.1454 114.706 35.1122C114.455 35.0791 114.225 35.0625 114.017 35.0625C113.572 35.0625 113.174 35.1596 112.824 35.3537C112.478 35.5431 112.204 35.8082 112 36.1491C111.801 36.4901 111.702 36.883 111.702 37.3281V43.5H108.676ZM121.324 43.7131C120.201 43.7131 119.235 43.4858 118.426 43.0312C117.621 42.572 117.001 41.9233 116.565 41.0852C116.129 40.2424 115.912 39.2457 115.912 38.0952C115.912 36.973 116.129 35.9882 116.565 35.1406C117.001 34.2931 117.614 33.6326 118.404 33.1591C119.2 32.6856 120.133 32.4489 121.203 32.4489C121.922 32.4489 122.592 32.5649 123.213 32.7969C123.838 33.0241 124.382 33.3674 124.846 33.8267C125.315 34.286 125.68 34.8636 125.94 35.5597C126.2 36.2509 126.331 37.0606 126.331 37.9886V38.8196H117.119V36.9446H123.483C123.483 36.509 123.388 36.1231 123.199 35.7869C123.009 35.4508 122.746 35.188 122.41 34.9986C122.079 34.8045 121.693 34.7074 121.252 34.7074C120.793 34.7074 120.386 34.8139 120.031 35.027C119.681 35.2353 119.406 35.517 119.207 35.8722C119.008 36.2225 118.906 36.6132 118.902 37.044V38.8267C118.902 39.3665 119.001 39.8329 119.2 40.2259C119.404 40.6188 119.69 40.9219 120.059 41.1349C120.429 41.348 120.867 41.4545 121.373 41.4545C121.709 41.4545 122.017 41.4072 122.297 41.3125C122.576 41.2178 122.815 41.0758 123.014 40.8864C123.213 40.697 123.364 40.465 123.468 40.1903L126.267 40.375C126.125 41.0473 125.833 41.6345 125.393 42.1364C124.958 42.6335 124.394 43.0218 123.703 43.3011C123.016 43.5758 122.223 43.7131 121.324 43.7131ZM140.881 33.1378C140.825 32.5649 140.581 32.1198 140.15 31.8026C139.719 31.4853 139.134 31.3267 138.396 31.3267C137.894 31.3267 137.47 31.3977 137.124 31.5398C136.779 31.6771 136.513 31.8688 136.329 32.1151C136.149 32.3613 136.059 32.6406 136.059 32.9531C136.049 33.2135 136.104 33.4408 136.222 33.6349C136.345 33.8291 136.513 33.9972 136.727 34.1392C136.94 34.2765 137.186 34.3973 137.465 34.5014C137.745 34.6009 138.043 34.6861 138.36 34.7571L139.667 35.0696C140.301 35.2116 140.884 35.401 141.414 35.6378C141.944 35.8745 142.404 36.1657 142.792 36.5114C143.18 36.857 143.481 37.2642 143.694 37.733C143.912 38.2017 144.023 38.7391 144.028 39.3452C144.023 40.2353 143.796 41.0071 143.346 41.6605C142.901 42.3092 142.257 42.8134 141.414 43.1733C140.576 43.5284 139.565 43.706 138.381 43.706C137.207 43.706 136.184 43.526 135.313 43.1662C134.447 42.8063 133.77 42.2737 133.282 41.5682C132.799 40.858 132.546 39.9796 132.522 38.9332H135.498C135.531 39.4209 135.671 39.8281 135.917 40.1548C136.168 40.4768 136.502 40.7206 136.918 40.8864C137.34 41.0473 137.816 41.1278 138.346 41.1278C138.867 41.1278 139.319 41.0521 139.702 40.9006C140.091 40.7491 140.391 40.5384 140.604 40.2685C140.817 39.9986 140.924 39.6884 140.924 39.3381C140.924 39.0114 140.827 38.7367 140.633 38.5142C140.443 38.2917 140.164 38.1023 139.795 37.946C139.43 37.7898 138.983 37.6477 138.452 37.5199L136.869 37.1222C135.642 36.8239 134.674 36.3575 133.964 35.723C133.254 35.0885 132.901 34.2339 132.906 33.1591C132.901 32.2784 133.135 31.509 133.609 30.8509C134.087 30.1927 134.743 29.679 135.576 29.3097C136.409 28.9403 137.356 28.7557 138.417 28.7557C139.496 28.7557 140.439 28.9403 141.244 29.3097C142.053 29.679 142.683 30.1927 143.133 30.8509C143.583 31.509 143.815 32.2713 143.829 33.1378H140.881ZM150.968 43.7131C149.851 43.7131 148.89 43.4763 148.085 43.0028C147.285 42.5246 146.669 41.8617 146.238 41.0142C145.812 40.1667 145.599 39.1913 145.599 38.0881C145.599 36.9706 145.815 35.9905 146.245 35.1477C146.681 34.3002 147.299 33.6397 148.099 33.1662C148.899 32.688 149.851 32.4489 150.954 32.4489C151.906 32.4489 152.739 32.6217 153.454 32.9673C154.169 33.313 154.735 33.7983 155.152 34.4233C155.568 35.0483 155.798 35.7822 155.841 36.625H152.985C152.905 36.0805 152.692 35.6425 152.346 35.3111C152.005 34.9749 151.558 34.8068 151.004 34.8068C150.535 34.8068 150.126 34.9347 149.775 35.1903C149.43 35.4413 149.16 35.8082 148.966 36.2912C148.771 36.7741 148.674 37.3589 148.674 38.0455C148.674 38.7415 148.769 39.3333 148.958 39.821C149.153 40.3087 149.425 40.6804 149.775 40.9361C150.126 41.1918 150.535 41.3196 151.004 41.3196C151.35 41.3196 151.66 41.2486 151.934 41.1065C152.214 40.9645 152.443 40.7585 152.623 40.4886C152.808 40.214 152.929 39.8849 152.985 39.5014H155.841C155.793 40.3348 155.566 41.0687 155.159 41.7031C154.756 42.3329 154.2 42.8253 153.49 43.1804C152.779 43.5355 151.939 43.7131 150.968 43.7131ZM162.749 43.7131C161.627 43.7131 160.661 43.4858 159.852 43.0312C159.047 42.572 158.426 41.9233 157.991 41.0852C157.555 40.2424 157.337 39.2457 157.337 38.0952C157.337 36.973 157.555 35.9882 157.991 35.1406C158.426 34.2931 159.04 33.6326 159.83 33.1591C160.626 32.6856 161.558 32.4489 162.629 32.4489C163.348 32.4489 164.018 32.5649 164.638 32.7969C165.263 33.0241 165.808 33.3674 166.272 33.8267C166.741 34.286 167.105 34.8636 167.366 35.5597C167.626 36.2509 167.756 37.0606 167.756 37.9886V38.8196H158.545V36.9446H164.908C164.908 36.509 164.814 36.1231 164.624 35.7869C164.435 35.4508 164.172 35.188 163.836 34.9986C163.504 34.8045 163.119 34.7074 162.678 34.7074C162.219 34.7074 161.812 34.8139 161.457 35.027C161.106 35.2353 160.832 35.517 160.633 35.8722C160.434 36.2225 160.332 36.6132 160.327 37.044V38.8267C160.327 39.3665 160.427 39.8329 160.626 40.2259C160.829 40.6188 161.116 40.9219 161.485 41.1349C161.854 41.348 162.292 41.4545 162.799 41.4545C163.135 41.4545 163.443 41.4072 163.722 41.3125C164.002 41.2178 164.241 41.0758 164.44 40.8864C164.638 40.697 164.79 40.465 164.894 40.1903L167.692 40.375C167.55 41.0473 167.259 41.6345 166.819 42.1364C166.383 42.6335 165.82 43.0218 165.129 43.3011C164.442 43.5758 163.649 43.7131 162.749 43.7131ZM172.756 37.1932V43.5H169.731V32.5909H172.614V34.5156H172.742C172.984 33.8812 173.388 33.3793 173.957 33.0099C174.525 32.6359 175.214 32.4489 176.023 32.4489C176.781 32.4489 177.442 32.6146 178.005 32.946C178.568 33.2775 179.006 33.7509 179.319 34.3665C179.631 34.9773 179.788 35.7064 179.788 36.554V43.5H176.762V37.0938C176.767 36.4261 176.596 35.9053 176.251 35.5312C175.905 35.1525 175.429 34.9631 174.823 34.9631C174.416 34.9631 174.056 35.0507 173.744 35.2259C173.436 35.401 173.194 35.6567 173.019 35.9929C172.849 36.3243 172.761 36.7244 172.756 37.1932ZM187.975 32.5909V34.8636H181.405V32.5909H187.975ZM182.897 29.9773H185.922V40.1477C185.922 40.4271 185.965 40.6449 186.05 40.8011C186.135 40.9527 186.254 41.0592 186.405 41.1207C186.561 41.1823 186.741 41.2131 186.945 41.2131C187.087 41.2131 187.229 41.2012 187.371 41.1776C187.513 41.1491 187.622 41.1278 187.698 41.1136L188.174 43.3651C188.022 43.4124 187.809 43.4669 187.534 43.5284C187.26 43.5947 186.926 43.6349 186.533 43.6491C185.804 43.6776 185.165 43.5805 184.615 43.358C184.071 43.1354 183.647 42.7898 183.344 42.321C183.041 41.8523 182.892 41.2604 182.897 40.5455V29.9773ZM198.886 35.7017L196.116 35.8722C196.068 35.6354 195.967 35.4223 195.81 35.233C195.654 35.0388 195.448 34.8849 195.192 34.7713C194.942 34.6529 194.641 34.5938 194.29 34.5938C193.822 34.5938 193.426 34.6932 193.104 34.892C192.782 35.0862 192.621 35.3466 192.621 35.6733C192.621 35.9337 192.726 36.1539 192.934 36.3338C193.142 36.5137 193.5 36.6581 194.006 36.767L195.981 37.1648C197.041 37.3826 197.832 37.733 198.353 38.2159C198.874 38.6989 199.134 39.3333 199.134 40.1193C199.134 40.8343 198.924 41.4616 198.502 42.0014C198.085 42.5412 197.513 42.9626 196.783 43.2656C196.059 43.5639 195.223 43.7131 194.276 43.7131C192.832 43.7131 191.682 43.4124 190.825 42.8111C189.972 42.205 189.473 41.3812 189.326 40.3395L192.302 40.1832C192.392 40.6236 192.61 40.9598 192.955 41.1918C193.301 41.419 193.744 41.5327 194.283 41.5327C194.814 41.5327 195.24 41.4309 195.562 41.2273C195.888 41.0189 196.054 40.7514 196.059 40.4247C196.054 40.1501 195.938 39.9252 195.711 39.75C195.484 39.5701 195.133 39.4328 194.66 39.3381L192.771 38.9616C191.705 38.7486 190.912 38.3793 190.391 37.8537C189.875 37.3281 189.617 36.6581 189.617 35.8438C189.617 35.143 189.807 34.5393 190.185 34.0327C190.569 33.526 191.106 33.1354 191.798 32.8608C192.494 32.5862 193.308 32.4489 194.241 32.4489C195.619 32.4489 196.703 32.7401 197.494 33.3224C198.289 33.9048 198.753 34.6979 198.886 35.7017Z" fill="#032E15"/>
<path d="M589 36.998H583V42.998H581V36.998H575V34.998H581V28.998H583V34.998H589V36.998Z" fill="#032E15"/>
</svg>
