<svg width="626" height="167" viewBox="0 0 626 167" fill="none" xmlns="http://www.w3.org/2000/svg">
<g clip-path="url(#clip0_1_268)">
<rect width="626" height="78" fill="white"/>
<path d="M41.1548 35.6378C41.098 35.0649 40.8542 34.6198 40.4233 34.3026C39.9924 33.9853 39.4077 33.8267 38.669 33.8267C38.1671 33.8267 37.7434 33.8977 37.3977 34.0398C37.0521 34.1771 36.7869 34.3688 36.6023 34.6151C36.4223 34.8613 36.3324 35.1406 36.3324 35.4531C36.3229 35.7135 36.3774 35.9408 36.4957 36.1349C36.6188 36.3291 36.7869 36.4972 37 36.6392C37.2131 36.7765 37.4593 36.8973 37.7386 37.0014C38.018 37.1009 38.3163 37.1861 38.6335 37.2571L39.9403 37.5696C40.5748 37.7116 41.1572 37.901 41.6875 38.1378C42.2178 38.3745 42.6771 38.6657 43.0653 39.0114C43.4536 39.357 43.7543 39.7642 43.9673 40.233C44.1851 40.7017 44.2964 41.2391 44.3011 41.8452C44.2964 42.7353 44.0691 43.5071 43.6193 44.1605C43.1742 44.8092 42.5303 45.3134 41.6875 45.6733C40.8494 46.0284 39.8385 46.206 38.6548 46.206C37.4806 46.206 36.4579 46.026 35.5866 45.6662C34.7202 45.3063 34.0431 44.7737 33.5554 44.0682C33.0724 43.358 32.8191 42.4796 32.7955 41.4332H35.7713C35.8045 41.9209 35.9441 42.3281 36.1903 42.6548C36.4413 42.9768 36.7751 43.2206 37.1918 43.3864C37.6132 43.5473 38.089 43.6278 38.6193 43.6278C39.1402 43.6278 39.5923 43.5521 39.9759 43.4006C40.3641 43.2491 40.6648 43.0384 40.8778 42.7685C41.0909 42.4986 41.1974 42.1884 41.1974 41.8381C41.1974 41.5114 41.1004 41.2367 40.9062 41.0142C40.7169 40.7917 40.4375 40.6023 40.0682 40.446C39.7036 40.2898 39.2562 40.1477 38.7259 40.0199L37.142 39.6222C35.9157 39.3239 34.9474 38.8575 34.2372 38.223C33.527 37.5885 33.1742 36.7339 33.179 35.6591C33.1742 34.7784 33.4086 34.009 33.8821 33.3509C34.3603 32.6927 35.0161 32.179 35.8494 31.8097C36.6828 31.4403 37.6297 31.2557 38.6903 31.2557C39.7699 31.2557 40.7121 31.4403 41.517 31.8097C42.3267 32.179 42.9564 32.6927 43.4062 33.3509C43.8561 34.009 44.0881 34.7713 44.1023 35.6378H41.1548ZM46.3129 46V35.0909H49.3384V46H46.3129ZM47.8327 33.6847C47.3829 33.6847 46.997 33.5355 46.6751 33.2372C46.3578 32.9342 46.1992 32.572 46.1992 32.1506C46.1992 31.7339 46.3578 31.3764 46.6751 31.0781C46.997 30.7751 47.3829 30.6236 47.8327 30.6236C48.2826 30.6236 48.6661 30.7751 48.9833 31.0781C49.3053 31.3764 49.4663 31.7339 49.4663 32.1506C49.4663 32.572 49.3053 32.9342 48.9833 33.2372C48.6661 33.5355 48.2826 33.6847 47.8327 33.6847ZM56.6768 50.3182C55.6967 50.3182 54.8563 50.1832 54.1555 49.9134C53.4595 49.6482 52.9055 49.286 52.4936 48.8267C52.0817 48.3674 51.8142 47.8513 51.6911 47.2784L54.4893 46.902C54.5746 47.1198 54.7095 47.3234 54.8942 47.5128C55.0788 47.7022 55.3227 47.8537 55.6257 47.9673C55.9335 48.0857 56.3075 48.1449 56.7479 48.1449C57.406 48.1449 57.9482 47.9839 58.3743 47.6619C58.8052 47.3447 59.0206 46.812 59.0206 46.0639V44.0682H58.8928C58.7602 44.3712 58.5613 44.6577 58.2962 44.9276C58.031 45.1974 57.6901 45.4176 57.2734 45.5881C56.8568 45.7585 56.3596 45.8438 55.782 45.8438C54.9628 45.8438 54.2171 45.6544 53.5447 45.2756C52.8771 44.892 52.3445 44.3073 51.9467 43.5213C51.5537 42.7306 51.3572 41.7315 51.3572 40.5241C51.3572 39.2884 51.5585 38.2562 51.9609 37.4276C52.3634 36.599 52.8984 35.9787 53.5661 35.5668C54.2384 35.1548 54.9747 34.9489 55.7749 34.9489C56.3857 34.9489 56.897 35.053 57.3089 35.2614C57.7209 35.465 58.0523 35.7206 58.3033 36.0284C58.5589 36.3314 58.7554 36.6297 58.8928 36.9233H59.0064V35.0909H62.0107V46.1065C62.0107 47.0346 61.7834 47.8111 61.3288 48.4361C60.8743 49.0611 60.2446 49.5298 59.4396 49.8423C58.6394 50.1596 57.7185 50.3182 56.6768 50.3182ZM56.7408 43.571C57.2285 43.571 57.6404 43.4503 57.9766 43.2088C58.3175 42.9626 58.5779 42.6122 58.7578 42.1577C58.9425 41.6984 59.0348 41.1491 59.0348 40.5099C59.0348 39.8707 58.9448 39.3168 58.7649 38.848C58.585 38.3745 58.3246 38.0076 57.9837 37.7472C57.6428 37.4867 57.2285 37.3565 56.7408 37.3565C56.2436 37.3565 55.8246 37.4915 55.4837 37.7614C55.1428 38.0265 54.8847 38.3958 54.7095 38.8693C54.5343 39.3428 54.4467 39.8897 54.4467 40.5099C54.4467 41.1397 54.5343 41.6842 54.7095 42.1435C54.8894 42.598 55.1475 42.9508 55.4837 43.2017C55.8246 43.4479 56.2436 43.571 56.7408 43.571ZM67.4439 39.6932V46H64.4183V35.0909H67.3018V37.0156H67.4297C67.6712 36.3812 68.076 35.8793 68.6442 35.5099C69.2124 35.1359 69.9013 34.9489 70.7109 34.9489C71.4685 34.9489 72.129 35.1146 72.6925 35.446C73.2559 35.7775 73.6939 36.2509 74.0064 36.8665C74.3189 37.4773 74.4751 38.2064 74.4751 39.054V46H71.4496V39.5938C71.4543 38.9261 71.2839 38.4053 70.9382 38.0312C70.5926 37.6525 70.1167 37.4631 69.5107 37.4631C69.1035 37.4631 68.7436 37.5507 68.4311 37.7259C68.1233 37.901 67.8819 38.1567 67.7067 38.4929C67.5362 38.8243 67.4486 39.2244 67.4439 39.6932ZM79.9705 46.206C79.2745 46.206 78.6542 46.0852 78.1097 45.8438C77.5652 45.5975 77.1344 45.2353 76.8171 44.7571C76.5046 44.2741 76.3484 43.6728 76.3484 42.9531C76.3484 42.3471 76.4596 41.8381 76.6822 41.4261C76.9047 41.0142 77.2077 40.6828 77.5913 40.4318C77.9748 40.1809 78.4104 39.9915 78.8981 39.8636C79.3905 39.7358 79.9066 39.6458 80.4464 39.5938C81.0808 39.5275 81.5922 39.4659 81.9805 39.4091C82.3687 39.3475 82.6505 39.2576 82.8256 39.1392C83.0008 39.0208 83.0884 38.8456 83.0884 38.6136V38.571C83.0884 38.1212 82.9464 37.7732 82.6623 37.527C82.3829 37.2808 81.9852 37.1577 81.4691 37.1577C80.9246 37.1577 80.4914 37.2784 80.1694 37.5199C79.8474 37.7566 79.6344 38.0549 79.5302 38.4148L76.7319 38.1875C76.8739 37.5246 77.1533 36.9517 77.57 36.4688C77.9866 35.9811 78.524 35.607 79.1822 35.3466C79.8451 35.0814 80.6121 34.9489 81.4833 34.9489C82.0894 34.9489 82.6694 35.0199 83.2234 35.1619C83.7821 35.304 84.2769 35.5241 84.7077 35.8224C85.1433 36.1207 85.4866 36.5043 85.7376 36.973C85.9885 37.437 86.114 37.9934 86.114 38.642V46H83.2447V44.4872H83.1594C82.9843 44.8281 82.7499 45.1288 82.4563 45.3892C82.1628 45.6449 81.81 45.8461 81.3981 45.9929C80.9862 46.1349 80.5103 46.206 79.9705 46.206ZM80.837 44.1179C81.2821 44.1179 81.6751 44.0303 82.016 43.8551C82.3569 43.6752 82.6244 43.4337 82.8185 43.1307C83.0127 42.8277 83.1097 42.4844 83.1097 42.1009V40.9432C83.015 41.0047 82.8848 41.0616 82.7191 41.1136C82.5581 41.161 82.3758 41.206 82.1722 41.2486C81.9686 41.2865 81.765 41.322 81.5614 41.3551C81.3578 41.3835 81.1732 41.4096 81.0075 41.4332C80.6523 41.4853 80.3422 41.5682 80.0771 41.6818C79.8119 41.7955 79.6059 41.9493 79.4592 42.1435C79.3124 42.3329 79.239 42.5696 79.239 42.8537C79.239 43.2656 79.3881 43.5805 79.6864 43.7983C79.9895 44.0114 80.373 44.1179 80.837 44.1179ZM94.2638 35.0909V37.3636H87.6942V35.0909H94.2638ZM89.1857 32.4773H92.2113V42.6477C92.2113 42.9271 92.2539 43.1449 92.3391 43.3011C92.4244 43.4527 92.5427 43.5592 92.6942 43.6207C92.8505 43.6823 93.0304 43.7131 93.234 43.7131C93.3761 43.7131 93.5181 43.7012 93.6602 43.6776C93.8022 43.6491 93.9111 43.6278 93.9869 43.6136L94.4627 45.8651C94.3112 45.9124 94.0981 45.9669 93.8235 46.0284C93.5489 46.0947 93.2151 46.1349 92.8221 46.1491C92.0929 46.1776 91.4537 46.0805 90.9045 45.858C90.36 45.6354 89.9362 45.2898 89.6332 44.821C89.3301 44.3523 89.181 43.7604 89.1857 43.0455V32.4773ZM103.23 41.3551V35.0909H106.256V46H103.351V44.0185H103.238C102.991 44.6577 102.582 45.1714 102.009 45.5597C101.441 45.9479 100.747 46.142 99.9279 46.142C99.1987 46.142 98.5572 45.9763 98.0032 45.6449C97.4492 45.3134 97.016 44.8423 96.7035 44.2315C96.3957 43.6207 96.2395 42.8892 96.2347 42.0369V35.0909H99.2603V41.4972C99.265 42.1411 99.4379 42.6501 99.7788 43.0241C100.12 43.3982 100.577 43.5852 101.15 43.5852C101.514 43.5852 101.855 43.5024 102.172 43.3366C102.489 43.1662 102.745 42.9152 102.939 42.5838C103.138 42.2524 103.235 41.8428 103.23 41.3551ZM108.676 46V35.0909H111.609V36.9943H111.723C111.922 36.3172 112.256 35.8059 112.724 35.4602C113.193 35.1098 113.733 34.9347 114.344 34.9347C114.495 34.9347 114.659 34.9441 114.834 34.9631C115.009 34.982 115.163 35.008 115.295 35.0412V37.7259C115.153 37.6832 114.957 37.6454 114.706 37.6122C114.455 37.5791 114.225 37.5625 114.017 37.5625C113.572 37.5625 113.174 37.6596 112.824 37.8537C112.478 38.0431 112.204 38.3082 112 38.6491C111.801 38.9901 111.702 39.383 111.702 39.8281V46H108.676ZM121.324 46.2131C120.201 46.2131 119.235 45.9858 118.426 45.5312C117.621 45.072 117.001 44.4233 116.565 43.5852C116.129 42.7424 115.912 41.7457 115.912 40.5952C115.912 39.473 116.129 38.4882 116.565 37.6406C117.001 36.7931 117.614 36.1326 118.404 35.6591C119.2 35.1856 120.133 34.9489 121.203 34.9489C121.922 34.9489 122.592 35.0649 123.213 35.2969C123.838 35.5241 124.382 35.8674 124.846 36.3267C125.315 36.786 125.68 37.3636 125.94 38.0597C126.2 38.7509 126.331 39.5606 126.331 40.4886V41.3196H117.119V39.4446H123.483C123.483 39.009 123.388 38.6231 123.199 38.2869C123.009 37.9508 122.746 37.688 122.41 37.4986C122.079 37.3045 121.693 37.2074 121.252 37.2074C120.793 37.2074 120.386 37.3139 120.031 37.527C119.681 37.7353 119.406 38.017 119.207 38.3722C119.008 38.7225 118.906 39.1132 118.902 39.544V41.3267C118.902 41.8665 119.001 42.3329 119.2 42.7259C119.404 43.1188 119.69 43.4219 120.059 43.6349C120.429 43.848 120.867 43.9545 121.373 43.9545C121.709 43.9545 122.017 43.9072 122.297 43.8125C122.576 43.7178 122.815 43.5758 123.014 43.3864C123.213 43.197 123.364 42.965 123.468 42.6903L126.267 42.875C126.125 43.5473 125.833 44.1345 125.393 44.6364C124.958 45.1335 124.394 45.5218 123.703 45.8011C123.016 46.0758 122.223 46.2131 121.324 46.2131ZM140.881 35.6378C140.825 35.0649 140.581 34.6198 140.15 34.3026C139.719 33.9853 139.134 33.8267 138.396 33.8267C137.894 33.8267 137.47 33.8977 137.124 34.0398C136.779 34.1771 136.513 34.3688 136.329 34.6151C136.149 34.8613 136.059 35.1406 136.059 35.4531C136.049 35.7135 136.104 35.9408 136.222 36.1349C136.345 36.3291 136.513 36.4972 136.727 36.6392C136.94 36.7765 137.186 36.8973 137.465 37.0014C137.745 37.1009 138.043 37.1861 138.36 37.2571L139.667 37.5696C140.301 37.7116 140.884 37.901 141.414 38.1378C141.944 38.3745 142.404 38.6657 142.792 39.0114C143.18 39.357 143.481 39.7642 143.694 40.233C143.912 40.7017 144.023 41.2391 144.028 41.8452C144.023 42.7353 143.796 43.5071 143.346 44.1605C142.901 44.8092 142.257 45.3134 141.414 45.6733C140.576 46.0284 139.565 46.206 138.381 46.206C137.207 46.206 136.184 46.026 135.313 45.6662C134.447 45.3063 133.77 44.7737 133.282 44.0682C132.799 43.358 132.546 42.4796 132.522 41.4332H135.498C135.531 41.9209 135.671 42.3281 135.917 42.6548C136.168 42.9768 136.502 43.2206 136.918 43.3864C137.34 43.5473 137.816 43.6278 138.346 43.6278C138.867 43.6278 139.319 43.5521 139.702 43.4006C140.091 43.2491 140.391 43.0384 140.604 42.7685C140.817 42.4986 140.924 42.1884 140.924 41.8381C140.924 41.5114 140.827 41.2367 140.633 41.0142C140.443 40.7917 140.164 40.6023 139.795 40.446C139.43 40.2898 138.983 40.1477 138.452 40.0199L136.869 39.6222C135.642 39.3239 134.674 38.8575 133.964 38.223C133.254 37.5885 132.901 36.7339 132.906 35.6591C132.901 34.7784 133.135 34.009 133.609 33.3509C134.087 32.6927 134.743 32.179 135.576 31.8097C136.409 31.4403 137.356 31.2557 138.417 31.2557C139.496 31.2557 140.439 31.4403 141.244 31.8097C142.053 32.179 142.683 32.6927 143.133 33.3509C143.583 34.009 143.815 34.7713 143.829 35.6378H140.881ZM150.968 46.2131C149.851 46.2131 148.89 45.9763 148.085 45.5028C147.285 45.0246 146.669 44.3617 146.238 43.5142C145.812 42.6667 145.599 41.6913 145.599 40.5881C145.599 39.4706 145.815 38.4905 146.245 37.6477C146.681 36.8002 147.299 36.1397 148.099 35.6662C148.899 35.188 149.851 34.9489 150.954 34.9489C151.906 34.9489 152.739 35.1217 153.454 35.4673C154.169 35.813 154.735 36.2983 155.152 36.9233C155.568 37.5483 155.798 38.2822 155.841 39.125H152.985C152.905 38.5805 152.692 38.1425 152.346 37.8111C152.005 37.4749 151.558 37.3068 151.004 37.3068C150.535 37.3068 150.126 37.4347 149.775 37.6903C149.43 37.9413 149.16 38.3082 148.966 38.7912C148.771 39.2741 148.674 39.8589 148.674 40.5455C148.674 41.2415 148.769 41.8333 148.958 42.321C149.153 42.8087 149.425 43.1804 149.775 43.4361C150.126 43.6918 150.535 43.8196 151.004 43.8196C151.35 43.8196 151.66 43.7486 151.934 43.6065C152.214 43.4645 152.443 43.2585 152.623 42.9886C152.808 42.714 152.929 42.3849 152.985 42.0014H155.841C155.793 42.8348 155.566 43.5687 155.159 44.2031C154.756 44.8329 154.2 45.3253 153.49 45.6804C152.779 46.0355 151.939 46.2131 150.968 46.2131ZM162.749 46.2131C161.627 46.2131 160.661 45.9858 159.852 45.5312C159.047 45.072 158.426 44.4233 157.991 43.5852C157.555 42.7424 157.337 41.7457 157.337 40.5952C157.337 39.473 157.555 38.4882 157.991 37.6406C158.426 36.7931 159.04 36.1326 159.83 35.6591C160.626 35.1856 161.558 34.9489 162.629 34.9489C163.348 34.9489 164.018 35.0649 164.638 35.2969C165.263 35.5241 165.808 35.8674 166.272 36.3267C166.741 36.786 167.105 37.3636 167.366 38.0597C167.626 38.7509 167.756 39.5606 167.756 40.4886V41.3196H158.545V39.4446H164.908C164.908 39.009 164.814 38.6231 164.624 38.2869C164.435 37.9508 164.172 37.688 163.836 37.4986C163.504 37.3045 163.119 37.2074 162.678 37.2074C162.219 37.2074 161.812 37.3139 161.457 37.527C161.106 37.7353 160.832 38.017 160.633 38.3722C160.434 38.7225 160.332 39.1132 160.327 39.544V41.3267C160.327 41.8665 160.427 42.3329 160.626 42.7259C160.829 43.1188 161.116 43.4219 161.485 43.6349C161.854 43.848 162.292 43.9545 162.799 43.9545C163.135 43.9545 163.443 43.9072 163.722 43.8125C164.002 43.7178 164.241 43.5758 164.44 43.3864C164.638 43.197 164.79 42.965 164.894 42.6903L167.692 42.875C167.55 43.5473 167.259 44.1345 166.819 44.6364C166.383 45.1335 165.82 45.5218 165.129 45.8011C164.442 46.0758 163.649 46.2131 162.749 46.2131ZM172.756 39.6932V46H169.731V35.0909H172.614V37.0156H172.742C172.984 36.3812 173.388 35.8793 173.957 35.5099C174.525 35.1359 175.214 34.9489 176.023 34.9489C176.781 34.9489 177.442 35.1146 178.005 35.446C178.568 35.7775 179.006 36.2509 179.319 36.8665C179.631 37.4773 179.788 38.2064 179.788 39.054V46H176.762V39.5938C176.767 38.9261 176.596 38.4053 176.251 38.0312C175.905 37.6525 175.429 37.4631 174.823 37.4631C174.416 37.4631 174.056 37.5507 173.744 37.7259C173.436 37.901 173.194 38.1567 173.019 38.4929C172.849 38.8243 172.761 39.2244 172.756 39.6932ZM187.975 35.0909V37.3636H181.405V35.0909H187.975ZM182.897 32.4773H185.922V42.6477C185.922 42.9271 185.965 43.1449 186.05 43.3011C186.135 43.4527 186.254 43.5592 186.405 43.6207C186.561 43.6823 186.741 43.7131 186.945 43.7131C187.087 43.7131 187.229 43.7012 187.371 43.6776C187.513 43.6491 187.622 43.6278 187.698 43.6136L188.174 45.8651C188.022 45.9124 187.809 45.9669 187.534 46.0284C187.26 46.0947 186.926 46.1349 186.533 46.1491C185.804 46.1776 185.165 46.0805 184.615 45.858C184.071 45.6354 183.647 45.2898 183.344 44.821C183.041 44.3523 182.892 43.7604 182.897 43.0455V32.4773ZM198.886 38.2017L196.116 38.3722C196.068 38.1354 195.967 37.9223 195.81 37.733C195.654 37.5388 195.448 37.3849 195.192 37.2713C194.942 37.1529 194.641 37.0938 194.29 37.0938C193.822 37.0938 193.426 37.1932 193.104 37.392C192.782 37.5862 192.621 37.8466 192.621 38.1733C192.621 38.4337 192.726 38.6539 192.934 38.8338C193.142 39.0137 193.5 39.1581 194.006 39.267L195.981 39.6648C197.041 39.8826 197.832 40.233 198.353 40.7159C198.874 41.1989 199.134 41.8333 199.134 42.6193C199.134 43.3343 198.924 43.9616 198.502 44.5014C198.085 45.0412 197.513 45.4626 196.783 45.7656C196.059 46.0639 195.223 46.2131 194.276 46.2131C192.832 46.2131 191.682 45.9124 190.825 45.3111C189.972 44.705 189.473 43.8812 189.326 42.8395L192.302 42.6832C192.392 43.1236 192.61 43.4598 192.955 43.6918C193.301 43.919 193.744 44.0327 194.283 44.0327C194.814 44.0327 195.24 43.9309 195.562 43.7273C195.888 43.5189 196.054 43.2514 196.059 42.9247C196.054 42.6501 195.938 42.4252 195.711 42.25C195.484 42.0701 195.133 41.9328 194.66 41.8381L192.771 41.4616C191.705 41.2486 190.912 40.8793 190.391 40.3537C189.875 39.8281 189.617 39.1581 189.617 38.3438C189.617 37.643 189.807 37.0393 190.185 36.5327C190.569 36.026 191.106 35.6354 191.798 35.3608C192.494 35.0862 193.308 34.9489 194.241 34.9489C195.619 34.9489 196.703 35.2401 197.494 35.8224C198.289 36.4048 198.753 37.1979 198.886 38.2017Z" fill="#032E15"/>
<path d="M589 39.998H575V37.998H589V39.998Z" fill="#032E15"/>
<path d="M28.9545 118H25.5455V106.364H29.1591C30.2689 106.364 31.2178 106.595 32.0057 107.057C32.7973 107.519 33.4034 108.182 33.8239 109.045C34.2443 109.909 34.4545 110.945 34.4545 112.153C34.4545 113.373 34.2386 114.42 33.8068 115.295C33.3788 116.167 32.7538 116.835 31.9318 117.301C31.1136 117.767 30.1212 118 28.9545 118ZM26.608 117.045H28.892C29.892 117.045 30.7292 116.848 31.4034 116.455C32.0777 116.061 32.5833 115.498 32.9205 114.767C33.2576 114.036 33.4261 113.165 33.4261 112.153C33.4223 111.15 33.2557 110.286 32.9261 109.562C32.6004 108.839 32.1155 108.284 31.4716 107.898C30.8314 107.511 30.0398 107.318 29.0966 107.318H26.608V117.045ZM36.831 118V109.273H37.848V118H36.831ZM37.348 107.773C37.1397 107.773 36.9616 107.703 36.8139 107.562C36.6662 107.419 36.5923 107.246 36.5923 107.045C36.5923 106.845 36.6662 106.674 36.8139 106.534C36.9616 106.39 37.1397 106.318 37.348 106.318C37.5563 106.318 37.7344 106.39 37.8821 106.534C38.0298 106.674 38.1037 106.845 38.1037 107.045C38.1037 107.246 38.0298 107.419 37.8821 107.562C37.7344 107.703 37.5563 107.773 37.348 107.773ZM46.3864 111.188L45.4602 111.449C45.3693 111.187 45.2405 110.951 45.0739 110.739C44.9072 110.527 44.6894 110.358 44.4205 110.233C44.1553 110.108 43.8258 110.045 43.4318 110.045C42.8409 110.045 42.3561 110.186 41.9773 110.466C41.5985 110.746 41.4091 111.108 41.4091 111.551C41.4091 111.926 41.5379 112.231 41.7955 112.466C42.0568 112.697 42.4583 112.881 43 113.017L44.3182 113.341C45.0492 113.519 45.5966 113.801 45.9602 114.188C46.3277 114.574 46.5114 115.059 46.5114 115.642C46.5114 116.134 46.375 116.572 46.1023 116.955C45.8295 117.337 45.4489 117.638 44.9602 117.858C44.4754 118.074 43.9129 118.182 43.2727 118.182C42.4205 118.182 41.7178 117.991 41.1648 117.608C40.6117 117.222 40.2576 116.665 40.1023 115.938L41.0739 115.699C41.1989 116.218 41.4432 116.61 41.8068 116.875C42.1742 117.14 42.6572 117.273 43.2557 117.273C43.9261 117.273 44.4621 117.123 44.8636 116.824C45.2652 116.521 45.4659 116.142 45.4659 115.688C45.4659 115.335 45.3485 115.04 45.1136 114.801C44.8788 114.559 44.5227 114.381 44.0455 114.267L42.6193 113.926C41.8617 113.744 41.3011 113.456 40.9375 113.062C40.5739 112.669 40.392 112.18 40.392 111.597C40.392 111.116 40.5227 110.693 40.7841 110.33C41.0455 109.962 41.4053 109.674 41.8636 109.466C42.322 109.258 42.8447 109.153 43.4318 109.153C44.2311 109.153 44.8693 109.335 45.3466 109.699C45.8277 110.059 46.1742 110.555 46.3864 111.188ZM52.1349 118.182C51.3546 118.182 50.6747 117.987 50.0952 117.597C49.5194 117.206 49.0724 116.672 48.7543 115.994C48.4361 115.316 48.277 114.544 48.277 113.676C48.277 112.801 48.438 112.023 48.7599 111.341C49.0857 110.659 49.5365 110.125 50.1122 109.739C50.688 109.348 51.3565 109.153 52.1179 109.153C52.7012 109.153 53.2296 109.267 53.7031 109.494C54.1766 109.718 54.5668 110.034 54.8736 110.443C55.1842 110.848 55.3793 111.322 55.4588 111.864H54.4361C54.33 111.371 54.0743 110.951 53.669 110.602C53.2675 110.25 52.7562 110.074 52.1349 110.074C51.5781 110.074 51.0857 110.225 50.6577 110.528C50.2296 110.828 49.8944 111.246 49.652 111.784C49.4134 112.318 49.294 112.937 49.294 113.642C49.294 114.35 49.4115 114.977 49.6463 115.523C49.8812 116.064 50.2107 116.489 50.6349 116.795C51.063 117.102 51.563 117.256 52.1349 117.256C52.5213 117.256 52.8736 117.184 53.1918 117.04C53.5137 116.892 53.7827 116.684 53.9986 116.415C54.2183 116.146 54.366 115.826 54.4418 115.455H55.4645C55.3887 115.981 55.2012 116.451 54.902 116.864C54.6065 117.273 54.2221 117.595 53.7486 117.83C53.2789 118.064 52.741 118.182 52.1349 118.182ZM61.0241 118.182C60.2704 118.182 59.6037 117.991 59.0241 117.608C58.4484 117.225 57.9976 116.697 57.6719 116.023C57.3461 115.345 57.1832 114.562 57.1832 113.676C57.1832 112.782 57.3461 111.996 57.6719 111.318C57.9976 110.636 58.4484 110.106 59.0241 109.727C59.6037 109.345 60.2704 109.153 61.0241 109.153C61.7779 109.153 62.4427 109.345 63.0185 109.727C63.5942 110.11 64.045 110.64 64.3707 111.318C64.7003 111.996 64.8651 112.782 64.8651 113.676C64.8651 114.562 64.7022 115.345 64.3764 116.023C64.0507 116.697 63.598 117.225 63.0185 117.608C62.4427 117.991 61.7779 118.182 61.0241 118.182ZM61.0241 117.256C61.6302 117.256 62.1435 117.093 62.5639 116.767C62.9844 116.441 63.3026 116.008 63.5185 115.466C63.7382 114.924 63.848 114.328 63.848 113.676C63.848 113.025 63.7382 112.426 63.5185 111.881C63.3026 111.335 62.9844 110.898 62.5639 110.568C62.1435 110.239 61.6302 110.074 61.0241 110.074C60.4219 110.074 59.9086 110.239 59.4844 110.568C59.0639 110.898 58.7438 111.335 58.5241 111.881C58.3082 112.426 58.2003 113.025 58.2003 113.676C58.2003 114.328 58.3082 114.924 58.5241 115.466C58.7438 116.008 59.0639 116.441 59.4844 116.767C59.9048 117.093 60.4181 117.256 61.0241 117.256ZM73.5284 109.273L70.3409 118H69.2614L66.0739 109.273H67.1705L69.7614 116.665H69.8409L72.4318 109.273H73.5284ZM78.723 118.182C77.9086 118.182 77.2041 117.992 76.6094 117.614C76.0147 117.231 75.5545 116.703 75.2287 116.028C74.9067 115.35 74.7457 114.57 74.7457 113.688C74.7457 112.809 74.9067 112.028 75.2287 111.347C75.5545 110.661 76.0033 110.125 76.5753 109.739C77.151 109.348 77.8158 109.153 78.5696 109.153C79.0431 109.153 79.4995 109.241 79.9389 109.415C80.3783 109.585 80.7723 109.848 81.1207 110.205C81.473 110.557 81.7514 111.002 81.956 111.54C82.1605 112.074 82.2628 112.706 82.2628 113.438V113.938H75.4446V113.045H81.2287C81.2287 112.485 81.1151 111.981 80.8878 111.534C80.6643 111.083 80.3518 110.727 79.9503 110.466C79.5526 110.205 79.0923 110.074 78.5696 110.074C78.0166 110.074 77.5298 110.222 77.1094 110.517C76.6889 110.812 76.3594 111.203 76.1207 111.688C75.8859 112.172 75.7666 112.703 75.7628 113.278V113.812C75.7628 114.506 75.8821 115.112 76.1207 115.631C76.3632 116.146 76.706 116.545 77.1491 116.83C77.5923 117.114 78.117 117.256 78.723 117.256C79.1359 117.256 79.4976 117.191 79.8082 117.062C80.1226 116.934 80.3859 116.761 80.598 116.545C80.8139 116.326 80.9768 116.085 81.0866 115.824L82.0469 116.136C81.9143 116.504 81.6965 116.843 81.3935 117.153C81.0942 117.464 80.7192 117.714 80.2685 117.903C79.8215 118.089 79.3063 118.182 78.723 118.182ZM84.4915 118V109.273H85.4744V110.614H85.5483C85.7225 110.174 86.0256 109.82 86.4574 109.551C86.893 109.278 87.3854 109.142 87.9347 109.142C88.018 109.142 88.1108 109.144 88.2131 109.148C88.3153 109.152 88.4006 109.155 88.4688 109.159V110.188C88.4233 110.18 88.3438 110.169 88.2301 110.153C88.1165 110.138 87.9934 110.131 87.8608 110.131C87.4063 110.131 87.0009 110.227 86.6449 110.42C86.2926 110.61 86.0142 110.873 85.8097 111.21C85.6051 111.547 85.5028 111.932 85.5028 112.364V118H84.4915ZM98.0866 118.182C97.3329 118.182 96.6662 117.991 96.0866 117.608C95.5109 117.225 95.0601 116.697 94.7344 116.023C94.4086 115.345 94.2457 114.562 94.2457 113.676C94.2457 112.782 94.4086 111.996 94.7344 111.318C95.0601 110.636 95.5109 110.106 96.0866 109.727C96.6662 109.345 97.3329 109.153 98.0866 109.153C98.8404 109.153 99.5052 109.345 100.081 109.727C100.657 110.11 101.107 110.64 101.433 111.318C101.763 111.996 101.928 112.782 101.928 113.676C101.928 114.562 101.765 115.345 101.439 116.023C101.113 116.697 100.661 117.225 100.081 117.608C99.5052 117.991 98.8404 118.182 98.0866 118.182ZM98.0866 117.256C98.6927 117.256 99.206 117.093 99.6264 116.767C100.047 116.441 100.365 116.008 100.581 115.466C100.801 114.924 100.911 114.328 100.911 113.676C100.911 113.025 100.801 112.426 100.581 111.881C100.365 111.335 100.047 110.898 99.6264 110.568C99.206 110.239 98.6927 110.074 98.0866 110.074C97.4844 110.074 96.9711 110.239 96.5469 110.568C96.1264 110.898 95.8063 111.335 95.5866 111.881C95.3707 112.426 95.2628 113.025 95.2628 113.676C95.2628 114.328 95.3707 114.924 95.5866 115.466C95.8063 116.008 96.1264 116.441 96.5469 116.767C96.9673 117.093 97.4806 117.256 98.0866 117.256ZM109.693 114.665V109.273H110.705V118H109.693V116.551H109.614C109.409 116.998 109.085 117.371 108.642 117.67C108.199 117.966 107.657 118.114 107.017 118.114C106.46 118.114 105.966 117.992 105.534 117.75C105.102 117.504 104.763 117.144 104.517 116.67C104.271 116.197 104.148 115.616 104.148 114.926V109.273H105.159V114.864C105.159 115.545 105.36 116.095 105.761 116.511C106.163 116.924 106.678 117.131 107.307 117.131C107.701 117.131 108.08 117.036 108.443 116.847C108.807 116.657 109.106 116.381 109.341 116.017C109.576 115.65 109.693 115.199 109.693 114.665ZM113.382 118V109.273H114.365V110.614H114.439C114.613 110.174 114.916 109.82 115.348 109.551C115.784 109.278 116.276 109.142 116.825 109.142C116.909 109.142 117.001 109.144 117.104 109.148C117.206 109.152 117.291 109.155 117.359 109.159V110.188C117.314 110.18 117.234 110.169 117.121 110.153C117.007 110.138 116.884 110.131 116.751 110.131C116.297 110.131 115.892 110.227 115.536 110.42C115.183 110.61 114.905 110.873 114.7 111.21C114.496 111.547 114.393 111.932 114.393 112.364V118H113.382ZM126.994 118.182C126.214 118.182 125.534 117.987 124.955 117.597C124.379 117.206 123.932 116.672 123.614 115.994C123.295 115.316 123.136 114.544 123.136 113.676C123.136 112.801 123.297 112.023 123.619 111.341C123.945 110.659 124.396 110.125 124.972 109.739C125.547 109.348 126.216 109.153 126.977 109.153C127.561 109.153 128.089 109.267 128.562 109.494C129.036 109.718 129.426 110.034 129.733 110.443C130.044 110.848 130.239 111.322 130.318 111.864H129.295C129.189 111.371 128.934 110.951 128.528 110.602C128.127 110.25 127.616 110.074 126.994 110.074C126.438 110.074 125.945 110.225 125.517 110.528C125.089 110.828 124.754 111.246 124.511 111.784C124.273 112.318 124.153 112.937 124.153 113.642C124.153 114.35 124.271 114.977 124.506 115.523C124.741 116.064 125.07 116.489 125.494 116.795C125.922 117.102 126.422 117.256 126.994 117.256C127.381 117.256 127.733 117.184 128.051 117.04C128.373 116.892 128.642 116.684 128.858 116.415C129.078 116.146 129.225 115.826 129.301 115.455H130.324C130.248 115.981 130.061 116.451 129.761 116.864C129.466 117.273 129.081 117.595 128.608 117.83C128.138 118.064 127.6 118.182 126.994 118.182ZM138.037 114.665V109.273H139.048V118H138.037V116.551H137.957C137.753 116.998 137.429 117.371 136.986 117.67C136.543 117.966 136.001 118.114 135.361 118.114C134.804 118.114 134.31 117.992 133.878 117.75C133.446 117.504 133.107 117.144 132.861 116.67C132.615 116.197 132.491 115.616 132.491 114.926V109.273H133.503V114.864C133.503 115.545 133.704 116.095 134.105 116.511C134.507 116.924 135.022 117.131 135.651 117.131C136.045 117.131 136.423 117.036 136.787 116.847C137.151 116.657 137.45 116.381 137.685 116.017C137.92 115.65 138.037 115.199 138.037 114.665ZM141.726 118V109.273H142.709V110.614H142.783C142.957 110.174 143.26 109.82 143.692 109.551C144.127 109.278 144.62 109.142 145.169 109.142C145.252 109.142 145.345 109.144 145.447 109.148C145.55 109.152 145.635 109.155 145.703 109.159V110.188C145.658 110.18 145.578 110.169 145.464 110.153C145.351 110.138 145.228 110.131 145.095 110.131C144.641 110.131 144.235 110.227 143.879 110.42C143.527 110.61 143.249 110.873 143.044 111.21C142.839 111.547 142.737 111.932 142.737 112.364V118H141.726ZM149.866 118.199C149.34 118.199 148.859 118.097 148.423 117.892C147.988 117.684 147.641 117.384 147.384 116.994C147.126 116.6 146.997 116.123 146.997 115.562C146.997 115.131 147.079 114.767 147.241 114.472C147.404 114.176 147.635 113.934 147.935 113.744C148.234 113.555 148.588 113.405 148.997 113.295C149.406 113.186 149.857 113.1 150.349 113.04C150.838 112.979 151.251 112.926 151.588 112.881C151.929 112.835 152.188 112.763 152.366 112.665C152.545 112.566 152.634 112.407 152.634 112.188V111.983C152.634 111.388 152.455 110.92 152.099 110.58C151.747 110.235 151.24 110.062 150.577 110.062C149.948 110.062 149.435 110.201 149.037 110.477C148.643 110.754 148.366 111.08 148.207 111.455L147.247 111.108C147.444 110.631 147.717 110.25 148.065 109.966C148.414 109.678 148.804 109.472 149.236 109.347C149.668 109.218 150.105 109.153 150.548 109.153C150.882 109.153 151.228 109.197 151.588 109.284C151.952 109.371 152.289 109.523 152.599 109.739C152.91 109.951 153.162 110.248 153.355 110.631C153.548 111.009 153.645 111.491 153.645 112.074V118H152.634V116.619H152.571C152.45 116.877 152.27 117.127 152.031 117.369C151.793 117.612 151.493 117.811 151.134 117.966C150.774 118.121 150.351 118.199 149.866 118.199ZM150.003 117.273C150.541 117.273 151.007 117.153 151.401 116.915C151.795 116.676 152.098 116.36 152.31 115.966C152.526 115.568 152.634 115.131 152.634 114.653V113.392C152.558 113.464 152.431 113.528 152.253 113.585C152.079 113.642 151.876 113.693 151.645 113.739C151.418 113.78 151.19 113.816 150.963 113.847C150.736 113.877 150.531 113.903 150.349 113.926C149.857 113.987 149.437 114.081 149.088 114.21C148.74 114.339 148.473 114.517 148.287 114.744C148.101 114.968 148.009 115.256 148.009 115.608C148.009 116.138 148.198 116.549 148.577 116.841C148.955 117.129 149.431 117.273 150.003 117.273ZM159.773 109.273V110.153H155.608V109.273H159.773ZM156.909 107.182H157.926V115.722C157.926 116.085 157.989 116.371 158.114 116.58C158.239 116.784 158.402 116.93 158.602 117.017C158.803 117.1 159.017 117.142 159.244 117.142C159.377 117.142 159.491 117.134 159.585 117.119C159.68 117.1 159.763 117.081 159.835 117.062L160.051 117.977C159.953 118.015 159.831 118.049 159.688 118.08C159.544 118.114 159.366 118.131 159.153 118.131C158.782 118.131 158.424 118.049 158.08 117.886C157.739 117.723 157.458 117.481 157.239 117.159C157.019 116.837 156.909 116.438 156.909 115.96V107.182ZM165.504 118.182C164.69 118.182 163.985 117.992 163.391 117.614C162.796 117.231 162.336 116.703 162.01 116.028C161.688 115.35 161.527 114.57 161.527 113.688C161.527 112.809 161.688 112.028 162.01 111.347C162.336 110.661 162.785 110.125 163.357 109.739C163.932 109.348 164.597 109.153 165.351 109.153C165.824 109.153 166.281 109.241 166.72 109.415C167.16 109.585 167.554 109.848 167.902 110.205C168.254 110.557 168.533 111.002 168.737 111.54C168.942 112.074 169.044 112.706 169.044 113.438V113.938H162.226V113.045H168.01C168.01 112.485 167.896 111.981 167.669 111.534C167.446 111.083 167.133 110.727 166.732 110.466C166.334 110.205 165.874 110.074 165.351 110.074C164.798 110.074 164.311 110.222 163.891 110.517C163.47 110.812 163.141 111.203 162.902 111.688C162.667 112.172 162.548 112.703 162.544 113.278V113.812C162.544 114.506 162.663 115.112 162.902 115.631C163.144 116.146 163.487 116.545 163.93 116.83C164.374 117.114 164.898 117.256 165.504 117.256C165.917 117.256 166.279 117.191 166.589 117.062C166.904 116.934 167.167 116.761 167.379 116.545C167.595 116.326 167.758 116.085 167.868 115.824L168.828 116.136C168.696 116.504 168.478 116.843 168.175 117.153C167.875 117.464 167.5 117.714 167.05 117.903C166.603 118.089 166.088 118.182 165.504 118.182ZM174.415 118.182C173.699 118.182 173.072 117.992 172.534 117.614C171.996 117.235 171.576 116.706 171.273 116.028C170.973 115.35 170.824 114.561 170.824 113.659C170.824 112.761 170.973 111.975 171.273 111.301C171.576 110.623 171.998 110.097 172.54 109.722C173.081 109.343 173.712 109.153 174.432 109.153C174.962 109.153 175.403 109.248 175.756 109.438C176.108 109.623 176.39 109.854 176.602 110.131C176.814 110.407 176.979 110.676 177.097 110.938H177.188V106.364H178.205V118H177.216V116.381H177.097C176.979 116.646 176.813 116.919 176.597 117.199C176.381 117.475 176.095 117.708 175.739 117.898C175.386 118.087 174.945 118.182 174.415 118.182ZM174.534 117.256C175.098 117.256 175.58 117.102 175.977 116.795C176.375 116.485 176.678 116.059 176.886 115.517C177.098 114.972 177.205 114.347 177.205 113.642C177.205 112.945 177.1 112.33 176.892 111.795C176.684 111.258 176.381 110.837 175.983 110.534C175.585 110.227 175.102 110.074 174.534 110.074C173.951 110.074 173.458 110.233 173.057 110.551C172.659 110.866 172.356 111.292 172.148 111.83C171.943 112.367 171.841 112.972 171.841 113.642C171.841 114.32 171.945 114.932 172.153 115.477C172.362 116.023 172.665 116.456 173.062 116.778C173.464 117.097 173.955 117.256 174.534 117.256ZM186.597 106.364V118H185.585V106.364H186.597ZM189.284 118V109.273H190.301V118H189.284ZM189.801 107.773C189.593 107.773 189.415 107.703 189.267 107.562C189.119 107.419 189.045 107.246 189.045 107.045C189.045 106.845 189.119 106.674 189.267 106.534C189.415 106.39 189.593 106.318 189.801 106.318C190.009 106.318 190.188 106.39 190.335 106.534C190.483 106.674 190.557 106.845 190.557 107.045C190.557 107.246 190.483 107.419 190.335 107.562C190.188 107.703 190.009 107.773 189.801 107.773ZM193.987 112.545V118H192.976V109.273H193.959V110.642H194.05C194.254 110.195 194.572 109.837 195.004 109.568C195.44 109.295 195.978 109.159 196.618 109.159C197.205 109.159 197.72 109.282 198.163 109.528C198.61 109.771 198.957 110.129 199.203 110.602C199.453 111.076 199.578 111.657 199.578 112.347V118H198.567V112.409C198.567 111.693 198.366 111.127 197.964 110.71C197.567 110.294 197.033 110.085 196.362 110.085C195.904 110.085 195.497 110.184 195.141 110.381C194.785 110.578 194.502 110.862 194.294 111.233C194.089 111.6 193.987 112.038 193.987 112.545ZM205.77 118.182C204.955 118.182 204.251 117.992 203.656 117.614C203.062 117.231 202.601 116.703 202.276 116.028C201.954 115.35 201.793 114.57 201.793 113.688C201.793 112.809 201.954 112.028 202.276 111.347C202.601 110.661 203.05 110.125 203.622 109.739C204.198 109.348 204.863 109.153 205.616 109.153C206.09 109.153 206.546 109.241 206.986 109.415C207.425 109.585 207.819 109.848 208.168 110.205C208.52 110.557 208.798 111.002 209.003 111.54C209.207 112.074 209.31 112.706 209.31 113.438V113.938H202.491V113.045H208.276C208.276 112.485 208.162 111.981 207.935 111.534C207.711 111.083 207.399 110.727 206.997 110.466C206.599 110.205 206.139 110.074 205.616 110.074C205.063 110.074 204.577 110.222 204.156 110.517C203.736 110.812 203.406 111.203 203.168 111.688C202.933 112.172 202.813 112.703 202.81 113.278V113.812C202.81 114.506 202.929 115.112 203.168 115.631C203.41 116.146 203.753 116.545 204.196 116.83C204.639 117.114 205.164 117.256 205.77 117.256C206.183 117.256 206.545 117.191 206.855 117.062C207.17 116.934 207.433 116.761 207.645 116.545C207.861 116.326 208.024 116.085 208.134 115.824L209.094 116.136C208.961 116.504 208.743 116.843 208.44 117.153C208.141 117.464 207.766 117.714 207.315 117.903C206.868 118.089 206.353 118.182 205.77 118.182ZM219.43 118.182C218.677 118.182 218.01 117.991 217.43 117.608C216.855 117.225 216.404 116.697 216.078 116.023C215.752 115.345 215.589 114.562 215.589 113.676C215.589 112.782 215.752 111.996 216.078 111.318C216.404 110.636 216.855 110.106 217.43 109.727C218.01 109.345 218.677 109.153 219.43 109.153C220.184 109.153 220.849 109.345 221.425 109.727C222 110.11 222.451 110.64 222.777 111.318C223.107 111.996 223.271 112.782 223.271 113.676C223.271 114.562 223.108 115.345 222.783 116.023C222.457 116.697 222.004 117.225 221.425 117.608C220.849 117.991 220.184 118.182 219.43 118.182ZM219.43 117.256C220.036 117.256 220.55 117.093 220.97 116.767C221.391 116.441 221.709 116.008 221.925 115.466C222.144 114.924 222.254 114.328 222.254 113.676C222.254 113.025 222.144 112.426 221.925 111.881C221.709 111.335 221.391 110.898 220.97 110.568C220.55 110.239 220.036 110.074 219.43 110.074C218.828 110.074 218.315 110.239 217.891 110.568C217.47 110.898 217.15 111.335 216.93 111.881C216.714 112.426 216.607 113.025 216.607 113.676C216.607 114.328 216.714 114.924 216.93 115.466C217.15 116.008 217.47 116.441 217.891 116.767C218.311 117.093 218.824 117.256 219.43 117.256ZM229.082 109.273V110.153H224.793V109.273H229.082ZM226.134 118V107.994C226.134 107.525 226.241 107.129 226.457 106.807C226.677 106.485 226.963 106.241 227.315 106.074C227.668 105.907 228.041 105.824 228.435 105.824C228.7 105.824 228.92 105.847 229.094 105.892C229.272 105.934 229.412 105.975 229.514 106.017L229.219 106.903C229.143 106.881 229.05 106.854 228.94 106.824C228.83 106.794 228.692 106.778 228.526 106.778C228.086 106.778 227.747 106.902 227.509 107.148C227.27 107.394 227.151 107.746 227.151 108.205L227.145 118H226.134ZM241.464 111.188L240.538 111.449C240.447 111.187 240.319 110.951 240.152 110.739C239.985 110.527 239.768 110.358 239.499 110.233C239.233 110.108 238.904 110.045 238.51 110.045C237.919 110.045 237.434 110.186 237.055 110.466C236.677 110.746 236.487 111.108 236.487 111.551C236.487 111.926 236.616 112.231 236.874 112.466C237.135 112.697 237.536 112.881 238.078 113.017L239.396 113.341C240.127 113.519 240.675 113.801 241.038 114.188C241.406 114.574 241.589 115.059 241.589 115.642C241.589 116.134 241.453 116.572 241.18 116.955C240.908 117.337 240.527 117.638 240.038 117.858C239.554 118.074 238.991 118.182 238.351 118.182C237.499 118.182 236.796 117.991 236.243 117.608C235.69 117.222 235.336 116.665 235.18 115.938L236.152 115.699C236.277 116.218 236.521 116.61 236.885 116.875C237.252 117.14 237.735 117.273 238.334 117.273C239.004 117.273 239.54 117.123 239.942 116.824C240.343 116.521 240.544 116.142 240.544 115.688C240.544 115.335 240.427 115.04 240.192 114.801C239.957 114.559 239.601 114.381 239.124 114.267L237.697 113.926C236.94 113.744 236.379 113.456 236.016 113.062C235.652 112.669 235.47 112.18 235.47 111.597C235.47 111.116 235.601 110.693 235.862 110.33C236.124 109.962 236.483 109.674 236.942 109.466C237.4 109.258 237.923 109.153 238.51 109.153C239.309 109.153 239.947 109.335 240.425 109.699C240.906 110.059 241.252 110.555 241.464 111.188ZM243.815 118V109.273H244.832V118H243.815ZM244.332 107.773C244.124 107.773 243.946 107.703 243.798 107.562C243.651 107.419 243.577 107.246 243.577 107.045C243.577 106.845 243.651 106.674 243.798 106.534C243.946 106.39 244.124 106.318 244.332 106.318C244.541 106.318 244.719 106.39 244.866 106.534C245.014 106.674 245.088 106.845 245.088 107.045C245.088 107.246 245.014 107.419 244.866 107.562C244.719 107.703 244.541 107.773 244.332 107.773ZM250.837 121.455C250.242 121.455 249.721 121.377 249.274 121.222C248.827 121.07 248.45 120.862 248.143 120.597C247.837 120.331 247.598 120.034 247.428 119.705L248.257 119.159C248.382 119.379 248.549 119.595 248.757 119.807C248.969 120.019 249.244 120.195 249.581 120.335C249.922 120.475 250.34 120.545 250.837 120.545C251.609 120.545 252.232 120.352 252.706 119.966C253.183 119.58 253.422 118.979 253.422 118.165V116.199H253.331C253.214 116.464 253.045 116.729 252.825 116.994C252.606 117.256 252.318 117.473 251.962 117.648C251.609 117.822 251.172 117.909 250.649 117.909C249.952 117.909 249.333 117.737 248.791 117.392C248.253 117.047 247.829 116.555 247.518 115.915C247.212 115.271 247.058 114.504 247.058 113.614C247.058 112.731 247.208 111.955 247.507 111.284C247.81 110.614 248.232 110.091 248.774 109.716C249.316 109.341 249.946 109.153 250.666 109.153C251.2 109.153 251.643 109.248 251.996 109.438C252.348 109.623 252.63 109.854 252.842 110.131C253.058 110.407 253.227 110.676 253.348 110.938H253.45V109.273H254.439V118.227C254.439 118.966 254.282 119.574 253.967 120.051C253.653 120.528 253.225 120.881 252.683 121.108C252.142 121.339 251.526 121.455 250.837 121.455ZM250.768 116.983C251.329 116.983 251.808 116.848 252.206 116.58C252.604 116.307 252.909 115.917 253.121 115.409C253.333 114.902 253.439 114.297 253.439 113.597C253.439 112.915 253.335 112.311 253.126 111.784C252.918 111.254 252.615 110.837 252.217 110.534C251.823 110.227 251.34 110.074 250.768 110.074C250.185 110.074 249.693 110.231 249.291 110.545C248.89 110.86 248.587 111.284 248.382 111.818C248.178 112.348 248.075 112.941 248.075 113.597C248.075 114.263 248.179 114.852 248.388 115.364C248.596 115.871 248.901 116.269 249.303 116.557C249.704 116.841 250.193 116.983 250.768 116.983ZM258.128 112.545V118H257.116V109.273H258.099V110.642H258.19C258.395 110.195 258.713 109.837 259.145 109.568C259.58 109.295 260.118 109.159 260.759 109.159C261.346 109.159 261.861 109.282 262.304 109.528C262.751 109.771 263.098 110.129 263.344 110.602C263.594 111.076 263.719 111.657 263.719 112.347V118H262.707V112.409C262.707 111.693 262.507 111.127 262.105 110.71C261.707 110.294 261.173 110.085 260.503 110.085C260.045 110.085 259.637 110.184 259.281 110.381C258.925 110.578 258.643 110.862 258.435 111.233C258.23 111.6 258.128 112.038 258.128 112.545ZM268.82 118.199C268.293 118.199 267.812 118.097 267.376 117.892C266.941 117.684 266.594 117.384 266.337 116.994C266.079 116.6 265.95 116.123 265.95 115.562C265.95 115.131 266.032 114.767 266.195 114.472C266.357 114.176 266.589 113.934 266.888 113.744C267.187 113.555 267.541 113.405 267.95 113.295C268.359 113.186 268.81 113.1 269.303 113.04C269.791 112.979 270.204 112.926 270.541 112.881C270.882 112.835 271.142 112.763 271.32 112.665C271.498 112.566 271.587 112.407 271.587 112.188V111.983C271.587 111.388 271.409 110.92 271.053 110.58C270.7 110.235 270.193 110.062 269.53 110.062C268.901 110.062 268.388 110.201 267.99 110.477C267.596 110.754 267.32 111.08 267.161 111.455L266.2 111.108C266.397 110.631 266.67 110.25 267.018 109.966C267.367 109.678 267.757 109.472 268.189 109.347C268.621 109.218 269.058 109.153 269.501 109.153C269.835 109.153 270.181 109.197 270.541 109.284C270.905 109.371 271.242 109.523 271.553 109.739C271.863 109.951 272.115 110.248 272.308 110.631C272.501 111.009 272.598 111.491 272.598 112.074V118H271.587V116.619H271.524C271.403 116.877 271.223 117.127 270.984 117.369C270.746 117.612 270.446 117.811 270.087 117.966C269.727 118.121 269.304 118.199 268.82 118.199ZM268.956 117.273C269.494 117.273 269.96 117.153 270.354 116.915C270.748 116.676 271.051 116.36 271.263 115.966C271.479 115.568 271.587 115.131 271.587 114.653V113.392C271.511 113.464 271.384 113.528 271.206 113.585C271.032 113.642 270.829 113.693 270.598 113.739C270.371 113.78 270.143 113.816 269.916 113.847C269.689 113.877 269.484 113.903 269.303 113.926C268.81 113.987 268.39 114.081 268.041 114.21C267.693 114.339 267.426 114.517 267.24 114.744C267.054 114.968 266.962 115.256 266.962 115.608C266.962 116.138 267.151 116.549 267.53 116.841C267.909 117.129 268.384 117.273 268.956 117.273ZM278.726 109.273V110.153H274.561V109.273H278.726ZM275.862 107.182H276.879V115.722C276.879 116.085 276.942 116.371 277.067 116.58C277.192 116.784 277.355 116.93 277.555 117.017C277.756 117.1 277.97 117.142 278.197 117.142C278.33 117.142 278.444 117.134 278.538 117.119C278.633 117.1 278.716 117.081 278.788 117.062L279.004 117.977C278.906 118.015 278.785 118.049 278.641 118.08C278.497 118.114 278.319 118.131 278.107 118.131C277.735 118.131 277.377 118.049 277.033 117.886C276.692 117.723 276.411 117.481 276.192 117.159C275.972 116.837 275.862 116.438 275.862 115.96V107.182ZM286.568 114.665V109.273H287.58V118H286.568V116.551H286.489C286.284 116.998 285.96 117.371 285.517 117.67C285.074 117.966 284.532 118.114 283.892 118.114C283.335 118.114 282.841 117.992 282.409 117.75C281.977 117.504 281.638 117.144 281.392 116.67C281.146 116.197 281.023 115.616 281.023 114.926V109.273H282.034V114.864C282.034 115.545 282.235 116.095 282.636 116.511C283.038 116.924 283.553 117.131 284.182 117.131C284.576 117.131 284.955 117.036 285.318 116.847C285.682 116.657 285.981 116.381 286.216 116.017C286.451 115.65 286.568 115.199 286.568 114.665ZM290.257 118V109.273H291.24V110.614H291.314C291.488 110.174 291.791 109.82 292.223 109.551C292.659 109.278 293.151 109.142 293.7 109.142C293.784 109.142 293.876 109.144 293.979 109.148C294.081 109.152 294.166 109.155 294.234 109.159V110.188C294.189 110.18 294.109 110.169 293.996 110.153C293.882 110.138 293.759 110.131 293.626 110.131C293.172 110.131 292.767 110.227 292.411 110.42C292.058 110.61 291.78 110.873 291.575 111.21C291.371 111.547 291.268 111.932 291.268 112.364V118H290.257ZM299.223 118.182C298.409 118.182 297.704 117.992 297.109 117.614C296.515 117.231 296.054 116.703 295.729 116.028C295.407 115.35 295.246 114.57 295.246 113.688C295.246 112.809 295.407 112.028 295.729 111.347C296.054 110.661 296.503 110.125 297.075 109.739C297.651 109.348 298.316 109.153 299.07 109.153C299.543 109.153 300 109.241 300.439 109.415C300.878 109.585 301.272 109.848 301.621 110.205C301.973 110.557 302.251 111.002 302.456 111.54C302.661 112.074 302.763 112.706 302.763 113.438V113.938H295.945V113.045H301.729C301.729 112.485 301.615 111.981 301.388 111.534C301.164 111.083 300.852 110.727 300.45 110.466C300.053 110.205 299.592 110.074 299.07 110.074C298.517 110.074 298.03 110.222 297.609 110.517C297.189 110.812 296.859 111.203 296.621 111.688C296.386 112.172 296.267 112.703 296.263 113.278V113.812C296.263 114.506 296.382 115.112 296.621 115.631C296.863 116.146 297.206 116.545 297.649 116.83C298.092 117.114 298.617 117.256 299.223 117.256C299.636 117.256 299.998 117.191 300.308 117.062C300.623 116.934 300.886 116.761 301.098 116.545C301.314 116.326 301.477 116.085 301.587 115.824L302.547 116.136C302.414 116.504 302.196 116.843 301.893 117.153C301.594 117.464 301.219 117.714 300.768 117.903C300.321 118.089 299.806 118.182 299.223 118.182ZM309.491 121.273V109.273H310.474V110.938H310.594C310.715 110.676 310.882 110.409 311.094 110.136C311.306 109.86 311.586 109.627 311.935 109.438C312.287 109.248 312.73 109.153 313.264 109.153C313.984 109.153 314.613 109.343 315.151 109.722C315.692 110.097 316.113 110.623 316.412 111.301C316.715 111.975 316.866 112.761 316.866 113.659C316.866 114.561 316.715 115.35 316.412 116.028C316.113 116.706 315.692 117.235 315.151 117.614C314.613 117.992 313.988 118.182 313.276 118.182C312.749 118.182 312.308 118.087 311.952 117.898C311.599 117.708 311.313 117.475 311.094 117.199C310.878 116.919 310.711 116.646 310.594 116.381H310.503V121.273H309.491ZM310.491 113.642C310.491 114.347 310.596 114.972 310.804 115.517C311.016 116.059 311.319 116.485 311.713 116.795C312.111 117.102 312.592 117.256 313.156 117.256C313.736 117.256 314.224 117.097 314.622 116.778C315.024 116.456 315.329 116.023 315.537 115.477C315.749 114.932 315.855 114.32 315.855 113.642C315.855 112.972 315.751 112.367 315.543 111.83C315.338 111.292 315.035 110.866 314.634 110.551C314.232 110.233 313.74 110.074 313.156 110.074C312.588 110.074 312.105 110.227 311.707 110.534C311.31 110.837 311.007 111.258 310.798 111.795C310.594 112.33 310.491 112.945 310.491 113.642ZM322.614 118.182C321.799 118.182 321.095 117.992 320.5 117.614C319.905 117.231 319.445 116.703 319.119 116.028C318.797 115.35 318.636 114.57 318.636 113.688C318.636 112.809 318.797 112.028 319.119 111.347C319.445 110.661 319.894 110.125 320.466 109.739C321.042 109.348 321.706 109.153 322.46 109.153C322.934 109.153 323.39 109.241 323.83 109.415C324.269 109.585 324.663 109.848 325.011 110.205C325.364 110.557 325.642 111.002 325.847 111.54C326.051 112.074 326.153 112.706 326.153 113.438V113.938H319.335V113.045H325.119C325.119 112.485 325.006 111.981 324.778 111.534C324.555 111.083 324.242 110.727 323.841 110.466C323.443 110.205 322.983 110.074 322.46 110.074C321.907 110.074 321.42 110.222 321 110.517C320.58 110.812 320.25 111.203 320.011 111.688C319.777 112.172 319.657 112.703 319.653 113.278V113.812C319.653 114.506 319.773 115.112 320.011 115.631C320.254 116.146 320.597 116.545 321.04 116.83C321.483 117.114 322.008 117.256 322.614 117.256C323.027 117.256 323.388 117.191 323.699 117.062C324.013 116.934 324.277 116.761 324.489 116.545C324.705 116.326 324.867 116.085 324.977 115.824L325.938 116.136C325.805 116.504 325.587 116.843 325.284 117.153C324.985 117.464 324.61 117.714 324.159 117.903C323.712 118.089 323.197 118.182 322.614 118.182ZM328.382 118V109.273H329.365V110.614H329.439C329.613 110.174 329.916 109.82 330.348 109.551C330.784 109.278 331.276 109.142 331.825 109.142C331.909 109.142 332.001 109.144 332.104 109.148C332.206 109.152 332.291 109.155 332.359 109.159V110.188C332.314 110.18 332.234 110.169 332.121 110.153C332.007 110.138 331.884 110.131 331.751 110.131C331.297 110.131 330.892 110.227 330.536 110.42C330.183 110.61 329.905 110.873 329.7 111.21C329.496 111.547 329.393 111.932 329.393 112.364V118H328.382ZM338.223 109.273V110.153H333.933V109.273H338.223ZM335.274 118V107.994C335.274 107.525 335.382 107.129 335.598 106.807C335.818 106.485 336.104 106.241 336.456 106.074C336.808 105.907 337.181 105.824 337.575 105.824C337.84 105.824 338.06 105.847 338.234 105.892C338.412 105.934 338.553 105.975 338.655 106.017L338.359 106.903C338.284 106.881 338.191 106.854 338.081 106.824C337.971 106.794 337.833 106.778 337.666 106.778C337.227 106.778 336.888 106.902 336.649 107.148C336.411 107.394 336.291 107.746 336.291 108.205L336.286 118H335.274ZM345.787 114.665V109.273H346.798V118H345.787V116.551H345.707C345.503 116.998 345.179 117.371 344.736 117.67C344.293 117.966 343.751 118.114 343.111 118.114C342.554 118.114 342.06 117.992 341.628 117.75C341.196 117.504 340.857 117.144 340.611 116.67C340.365 116.197 340.241 115.616 340.241 114.926V109.273H341.253V114.864C341.253 115.545 341.454 116.095 341.855 116.511C342.257 116.924 342.772 117.131 343.401 117.131C343.795 117.131 344.173 117.036 344.537 116.847C344.901 116.657 345.2 116.381 345.435 116.017C345.67 115.65 345.787 115.199 345.787 114.665ZM349.476 118V109.273H350.459V110.614H350.55C350.724 110.163 351.014 109.809 351.419 109.551C351.828 109.29 352.319 109.159 352.891 109.159C353.493 109.159 353.987 109.301 354.374 109.585C354.764 109.866 355.055 110.252 355.249 110.744H355.322C355.519 110.259 355.839 109.875 356.283 109.591C356.73 109.303 357.271 109.159 357.908 109.159C358.718 109.159 359.358 109.415 359.828 109.926C360.298 110.434 360.533 111.176 360.533 112.153V118H359.521V112.153C359.521 111.464 359.345 110.947 358.993 110.602C358.641 110.258 358.177 110.085 357.601 110.085C356.934 110.085 356.421 110.29 356.061 110.699C355.701 111.108 355.521 111.627 355.521 112.256V118H354.487V112.062C354.487 111.472 354.322 110.994 353.993 110.631C353.663 110.267 353.199 110.085 352.601 110.085C352.199 110.085 351.838 110.184 351.516 110.381C351.197 110.578 350.946 110.852 350.76 111.205C350.578 111.553 350.487 111.955 350.487 112.409V118H349.476ZM366.739 118.182C365.924 118.182 365.22 117.992 364.625 117.614C364.03 117.231 363.57 116.703 363.244 116.028C362.922 115.35 362.761 114.57 362.761 113.688C362.761 112.809 362.922 112.028 363.244 111.347C363.57 110.661 364.019 110.125 364.591 109.739C365.167 109.348 365.831 109.153 366.585 109.153C367.059 109.153 367.515 109.241 367.955 109.415C368.394 109.585 368.788 109.848 369.136 110.205C369.489 110.557 369.767 111.002 369.972 111.54C370.176 112.074 370.278 112.706 370.278 113.438V113.938H363.46V113.045H369.244C369.244 112.485 369.131 111.981 368.903 111.534C368.68 111.083 368.367 110.727 367.966 110.466C367.568 110.205 367.108 110.074 366.585 110.074C366.032 110.074 365.545 110.222 365.125 110.517C364.705 110.812 364.375 111.203 364.136 111.688C363.902 112.172 363.782 112.703 363.778 113.278V113.812C363.778 114.506 363.898 115.112 364.136 115.631C364.379 116.146 364.722 116.545 365.165 116.83C365.608 117.114 366.133 117.256 366.739 117.256C367.152 117.256 367.513 117.191 367.824 117.062C368.138 116.934 368.402 116.761 368.614 116.545C368.83 116.326 368.992 116.085 369.102 115.824L370.062 116.136C369.93 116.504 369.712 116.843 369.409 117.153C369.11 117.464 368.735 117.714 368.284 117.903C367.837 118.089 367.322 118.182 366.739 118.182ZM378.371 111.188L377.445 111.449C377.354 111.187 377.225 110.951 377.058 110.739C376.892 110.527 376.674 110.358 376.405 110.233C376.14 110.108 375.81 110.045 375.416 110.045C374.825 110.045 374.34 110.186 373.962 110.466C373.583 110.746 373.393 111.108 373.393 111.551C373.393 111.926 373.522 112.231 373.78 112.466C374.041 112.697 374.443 112.881 374.984 113.017L376.303 113.341C377.034 113.519 377.581 113.801 377.945 114.188C378.312 114.574 378.496 115.059 378.496 115.642C378.496 116.134 378.359 116.572 378.087 116.955C377.814 117.337 377.433 117.638 376.945 117.858C376.46 118.074 375.897 118.182 375.257 118.182C374.405 118.182 373.702 117.991 373.149 117.608C372.596 117.222 372.242 116.665 372.087 115.938L373.058 115.699C373.183 116.218 373.428 116.61 373.791 116.875C374.159 117.14 374.642 117.273 375.24 117.273C375.911 117.273 376.446 117.123 376.848 116.824C377.25 116.521 377.45 116.142 377.45 115.688C377.45 115.335 377.333 115.04 377.098 114.801C376.863 114.559 376.507 114.381 376.03 114.267L374.604 113.926C373.846 113.744 373.286 113.456 372.922 113.062C372.558 112.669 372.376 112.18 372.376 111.597C372.376 111.116 372.507 110.693 372.768 110.33C373.03 109.962 373.39 109.674 373.848 109.466C374.306 109.258 374.829 109.153 375.416 109.153C376.215 109.153 376.854 109.335 377.331 109.699C377.812 110.059 378.159 110.555 378.371 111.188ZM382.392 116.409L382.29 117.017C382.225 117.426 382.134 117.877 382.017 118.369C381.9 118.862 381.778 119.33 381.653 119.773C381.528 120.216 381.42 120.572 381.33 120.841H380.551C380.6 120.583 380.663 120.256 380.739 119.858C380.818 119.46 380.9 119.019 380.983 118.534C381.066 118.053 381.142 117.557 381.21 117.045L381.29 116.409H382.392ZM392.712 118.182C391.996 118.182 391.369 117.992 390.831 117.614C390.293 117.235 389.873 116.706 389.57 116.028C389.27 115.35 389.121 114.561 389.121 113.659C389.121 112.761 389.27 111.975 389.57 111.301C389.873 110.623 390.295 110.097 390.837 109.722C391.378 109.343 392.009 109.153 392.729 109.153C393.259 109.153 393.7 109.248 394.053 109.438C394.405 109.623 394.687 109.854 394.899 110.131C395.111 110.407 395.276 110.676 395.393 110.938H395.484V106.364H396.501V118H395.513V116.381H395.393C395.276 116.646 395.109 116.919 394.893 117.199C394.678 117.475 394.392 117.708 394.036 117.898C393.683 118.087 393.242 118.182 392.712 118.182ZM392.831 117.256C393.395 117.256 393.876 117.102 394.274 116.795C394.672 116.485 394.975 116.059 395.183 115.517C395.395 114.972 395.501 114.347 395.501 113.642C395.501 112.945 395.397 112.33 395.189 111.795C394.981 111.258 394.678 110.837 394.28 110.534C393.882 110.227 393.399 110.074 392.831 110.074C392.248 110.074 391.755 110.233 391.354 110.551C390.956 110.866 390.653 111.292 390.445 111.83C390.24 112.367 390.138 112.972 390.138 113.642C390.138 114.32 390.242 114.932 390.45 115.477C390.659 116.023 390.962 116.456 391.359 116.778C391.761 117.097 392.251 117.256 392.831 117.256ZM402.911 118.182C402.096 118.182 401.392 117.992 400.797 117.614C400.202 117.231 399.742 116.703 399.416 116.028C399.094 115.35 398.933 114.57 398.933 113.688C398.933 112.809 399.094 112.028 399.416 111.347C399.742 110.661 400.191 110.125 400.763 109.739C401.339 109.348 402.003 109.153 402.757 109.153C403.231 109.153 403.687 109.241 404.126 109.415C404.566 109.585 404.96 109.848 405.308 110.205C405.661 110.557 405.939 111.002 406.143 111.54C406.348 112.074 406.45 112.706 406.45 113.438V113.938H399.632V113.045H405.416C405.416 112.485 405.303 111.981 405.075 111.534C404.852 111.083 404.539 110.727 404.138 110.466C403.74 110.205 403.28 110.074 402.757 110.074C402.204 110.074 401.717 110.222 401.297 110.517C400.876 110.812 400.547 111.203 400.308 111.688C400.073 112.172 399.954 112.703 399.95 113.278V113.812C399.95 114.506 400.07 115.112 400.308 115.631C400.551 116.146 400.893 116.545 401.337 116.83C401.78 117.114 402.304 117.256 402.911 117.256C403.323 117.256 403.685 117.191 403.996 117.062C404.31 116.934 404.573 116.761 404.786 116.545C405.001 116.326 405.164 116.085 405.274 115.824L406.234 116.136C406.102 116.504 405.884 116.843 405.581 117.153C405.282 117.464 404.907 117.714 404.456 117.903C404.009 118.089 403.494 118.182 402.911 118.182ZM414.543 111.188L413.616 111.449C413.526 111.187 413.397 110.951 413.23 110.739C413.063 110.527 412.846 110.358 412.577 110.233C412.312 110.108 411.982 110.045 411.588 110.045C410.997 110.045 410.512 110.186 410.134 110.466C409.755 110.746 409.565 111.108 409.565 111.551C409.565 111.926 409.694 112.231 409.952 112.466C410.213 112.697 410.615 112.881 411.156 113.017L412.474 113.341C413.205 113.519 413.753 113.801 414.116 114.188C414.484 114.574 414.668 115.059 414.668 115.642C414.668 116.134 414.531 116.572 414.259 116.955C413.986 117.337 413.605 117.638 413.116 117.858C412.632 118.074 412.069 118.182 411.429 118.182C410.577 118.182 409.874 117.991 409.321 117.608C408.768 117.222 408.414 116.665 408.259 115.938L409.23 115.699C409.355 116.218 409.599 116.61 409.963 116.875C410.33 117.14 410.813 117.273 411.412 117.273C412.082 117.273 412.618 117.123 413.02 116.824C413.421 116.521 413.622 116.142 413.622 115.688C413.622 115.335 413.505 115.04 413.27 114.801C413.035 114.559 412.679 114.381 412.202 114.267L410.776 113.926C410.018 113.744 409.457 113.456 409.094 113.062C408.73 112.669 408.548 112.18 408.548 111.597C408.548 111.116 408.679 110.693 408.94 110.33C409.202 109.962 409.562 109.674 410.02 109.466C410.478 109.258 411.001 109.153 411.588 109.153C412.387 109.153 413.026 109.335 413.503 109.699C413.984 110.059 414.33 110.555 414.543 111.188ZM416.893 118V109.273H417.911V118H416.893ZM417.411 107.773C417.202 107.773 417.024 107.703 416.876 107.562C416.729 107.419 416.655 107.246 416.655 107.045C416.655 106.845 416.729 106.674 416.876 106.534C417.024 106.39 417.202 106.318 417.411 106.318C417.619 106.318 417.797 106.39 417.945 106.534C418.092 106.674 418.166 106.845 418.166 107.045C418.166 107.246 418.092 107.419 417.945 107.562C417.797 107.703 417.619 107.773 417.411 107.773ZM423.915 121.455C423.32 121.455 422.799 121.377 422.352 121.222C421.905 121.07 421.528 120.862 421.222 120.597C420.915 120.331 420.676 120.034 420.506 119.705L421.335 119.159C421.46 119.379 421.627 119.595 421.835 119.807C422.047 120.019 422.322 120.195 422.659 120.335C423 120.475 423.419 120.545 423.915 120.545C424.688 120.545 425.311 120.352 425.784 119.966C426.261 119.58 426.5 118.979 426.5 118.165V116.199H426.409C426.292 116.464 426.123 116.729 425.903 116.994C425.684 117.256 425.396 117.473 425.04 117.648C424.688 117.822 424.25 117.909 423.727 117.909C423.03 117.909 422.411 117.737 421.869 117.392C421.331 117.047 420.907 116.555 420.597 115.915C420.29 115.271 420.136 114.504 420.136 113.614C420.136 112.731 420.286 111.955 420.585 111.284C420.888 110.614 421.311 110.091 421.852 109.716C422.394 109.341 423.025 109.153 423.744 109.153C424.278 109.153 424.722 109.248 425.074 109.438C425.426 109.623 425.708 109.854 425.92 110.131C426.136 110.407 426.305 110.676 426.426 110.938H426.528V109.273H427.517V118.227C427.517 118.966 427.36 119.574 427.045 120.051C426.731 120.528 426.303 120.881 425.761 121.108C425.22 121.339 424.604 121.455 423.915 121.455ZM423.847 116.983C424.407 116.983 424.886 116.848 425.284 116.58C425.682 116.307 425.987 115.917 426.199 115.409C426.411 114.902 426.517 114.297 426.517 113.597C426.517 112.915 426.413 112.311 426.205 111.784C425.996 111.254 425.693 110.837 425.295 110.534C424.902 110.227 424.419 110.074 423.847 110.074C423.263 110.074 422.771 110.231 422.369 110.545C421.968 110.86 421.665 111.284 421.46 111.818C421.256 112.348 421.153 112.941 421.153 113.597C421.153 114.263 421.258 114.852 421.466 115.364C421.674 115.871 421.979 116.269 422.381 116.557C422.782 116.841 423.271 116.983 423.847 116.983ZM431.206 112.545V118H430.195V109.273H431.178V110.642H431.268C431.473 110.195 431.791 109.837 432.223 109.568C432.659 109.295 433.196 109.159 433.837 109.159C434.424 109.159 434.939 109.282 435.382 109.528C435.829 109.771 436.176 110.129 436.422 110.602C436.672 111.076 436.797 111.657 436.797 112.347V118H435.786V112.409C435.786 111.693 435.585 111.127 435.183 110.71C434.786 110.294 434.251 110.085 433.581 110.085C433.123 110.085 432.715 110.184 432.359 110.381C432.003 110.578 431.721 110.862 431.513 111.233C431.308 111.6 431.206 112.038 431.206 112.545ZM442.989 118.182C442.174 118.182 441.47 117.992 440.875 117.614C440.28 117.231 439.82 116.703 439.494 116.028C439.172 115.35 439.011 114.57 439.011 113.688C439.011 112.809 439.172 112.028 439.494 111.347C439.82 110.661 440.269 110.125 440.841 109.739C441.417 109.348 442.081 109.153 442.835 109.153C443.309 109.153 443.765 109.241 444.205 109.415C444.644 109.585 445.038 109.848 445.386 110.205C445.739 110.557 446.017 111.002 446.222 111.54C446.426 112.074 446.528 112.706 446.528 113.438V113.938H439.71V113.045H445.494C445.494 112.485 445.381 111.981 445.153 111.534C444.93 111.083 444.617 110.727 444.216 110.466C443.818 110.205 443.358 110.074 442.835 110.074C442.282 110.074 441.795 110.222 441.375 110.517C440.955 110.812 440.625 111.203 440.386 111.688C440.152 112.172 440.032 112.703 440.028 113.278V113.812C440.028 114.506 440.148 115.112 440.386 115.631C440.629 116.146 440.972 116.545 441.415 116.83C441.858 117.114 442.383 117.256 442.989 117.256C443.402 117.256 443.763 117.191 444.074 117.062C444.388 116.934 444.652 116.761 444.864 116.545C445.08 116.326 445.242 116.085 445.352 115.824L446.312 116.136C446.18 116.504 445.962 116.843 445.659 117.153C445.36 117.464 444.985 117.714 444.534 117.903C444.087 118.089 443.572 118.182 442.989 118.182ZM451.899 118.182C451.183 118.182 450.556 117.992 450.018 117.614C449.481 117.235 449.06 116.706 448.757 116.028C448.458 115.35 448.308 114.561 448.308 113.659C448.308 112.761 448.458 111.975 448.757 111.301C449.06 110.623 449.482 110.097 450.024 109.722C450.566 109.343 451.196 109.153 451.916 109.153C452.446 109.153 452.888 109.248 453.24 109.438C453.592 109.623 453.875 109.854 454.087 110.131C454.299 110.407 454.464 110.676 454.581 110.938H454.672V106.364H455.689V118H454.7V116.381H454.581C454.464 116.646 454.297 116.919 454.081 117.199C453.865 117.475 453.579 117.708 453.223 117.898C452.871 118.087 452.429 118.182 451.899 118.182ZM452.018 117.256C452.583 117.256 453.064 117.102 453.462 116.795C453.859 116.485 454.162 116.059 454.371 115.517C454.583 114.972 454.689 114.347 454.689 113.642C454.689 112.945 454.585 112.33 454.376 111.795C454.168 111.258 453.865 110.837 453.467 110.534C453.07 110.227 452.587 110.074 452.018 110.074C451.435 110.074 450.943 110.233 450.541 110.551C450.143 110.866 449.84 111.292 449.632 111.83C449.428 112.367 449.325 112.972 449.325 113.642C449.325 114.32 449.429 114.932 449.638 115.477C449.846 116.023 450.149 116.456 450.547 116.778C450.948 117.097 451.439 117.256 452.018 117.256ZM466.507 109.273V110.153H462.342V109.273H466.507ZM463.643 107.182H464.661V115.722C464.661 116.085 464.723 116.371 464.848 116.58C464.973 116.784 465.136 116.93 465.337 117.017C465.537 117.1 465.751 117.142 465.979 117.142C466.111 117.142 466.225 117.134 466.32 117.119C466.414 117.1 466.498 117.081 466.57 117.062L466.786 117.977C466.687 118.015 466.566 118.049 466.422 118.08C466.278 118.114 466.1 118.131 465.888 118.131C465.517 118.131 465.159 118.049 464.814 117.886C464.473 117.723 464.193 117.481 463.973 117.159C463.753 116.837 463.643 116.438 463.643 115.96V107.182ZM472.102 118.182C471.348 118.182 470.682 117.991 470.102 117.608C469.527 117.225 469.076 116.697 468.75 116.023C468.424 115.345 468.261 114.562 468.261 113.676C468.261 112.782 468.424 111.996 468.75 111.318C469.076 110.636 469.527 110.106 470.102 109.727C470.682 109.345 471.348 109.153 472.102 109.153C472.856 109.153 473.521 109.345 474.097 109.727C474.672 110.11 475.123 110.64 475.449 111.318C475.778 111.996 475.943 112.782 475.943 113.676C475.943 114.562 475.78 115.345 475.455 116.023C475.129 116.697 474.676 117.225 474.097 117.608C473.521 117.991 472.856 118.182 472.102 118.182ZM472.102 117.256C472.708 117.256 473.222 117.093 473.642 116.767C474.063 116.441 474.381 116.008 474.597 115.466C474.816 114.924 474.926 114.328 474.926 113.676C474.926 113.025 474.816 112.426 474.597 111.881C474.381 111.335 474.063 110.898 473.642 110.568C473.222 110.239 472.708 110.074 472.102 110.074C471.5 110.074 470.987 110.239 470.562 110.568C470.142 110.898 469.822 111.335 469.602 111.881C469.386 112.426 469.278 113.025 469.278 113.676C469.278 114.328 469.386 114.924 469.602 115.466C469.822 116.008 470.142 116.441 470.562 116.767C470.983 117.093 471.496 117.256 472.102 117.256ZM482.874 118V106.364H483.891V110.938H483.982C484.095 110.676 484.258 110.407 484.47 110.131C484.686 109.854 484.968 109.623 485.317 109.438C485.669 109.248 486.112 109.153 486.646 109.153C487.362 109.153 487.991 109.343 488.533 109.722C489.074 110.097 489.497 110.623 489.8 111.301C490.103 111.975 490.254 112.761 490.254 113.659C490.254 114.561 490.103 115.35 489.8 116.028C489.5 116.706 489.08 117.235 488.538 117.614C488 117.992 487.375 118.182 486.663 118.182C486.133 118.182 485.69 118.087 485.334 117.898C484.982 117.708 484.697 117.475 484.482 117.199C484.266 116.919 484.099 116.646 483.982 116.381H483.857V118H482.874ZM483.874 113.642C483.874 114.347 483.978 114.972 484.186 115.517C484.398 116.059 484.701 116.485 485.095 116.795C485.493 117.102 485.974 117.256 486.538 117.256C487.118 117.256 487.608 117.097 488.01 116.778C488.411 116.456 488.716 116.023 488.925 115.477C489.133 114.932 489.237 114.32 489.237 113.642C489.237 112.972 489.133 112.367 488.925 111.83C488.72 111.292 488.417 110.866 488.016 110.551C487.614 110.233 487.122 110.074 486.538 110.074C485.97 110.074 485.487 110.227 485.089 110.534C484.696 110.837 484.394 111.258 484.186 111.795C483.978 112.33 483.874 112.945 483.874 113.642ZM496.004 118.182C495.19 118.182 494.485 117.992 493.891 117.614C493.296 117.231 492.836 116.703 492.51 116.028C492.188 115.35 492.027 114.57 492.027 113.688C492.027 112.809 492.188 112.028 492.51 111.347C492.836 110.661 493.285 110.125 493.857 109.739C494.432 109.348 495.097 109.153 495.851 109.153C496.324 109.153 496.781 109.241 497.22 109.415C497.66 109.585 498.054 109.848 498.402 110.205C498.754 110.557 499.033 111.002 499.237 111.54C499.442 112.074 499.544 112.706 499.544 113.438V113.938H492.726V113.045H498.51C498.51 112.485 498.396 111.981 498.169 111.534C497.946 111.083 497.633 110.727 497.232 110.466C496.834 110.205 496.374 110.074 495.851 110.074C495.298 110.074 494.811 110.222 494.391 110.517C493.97 110.812 493.641 111.203 493.402 111.688C493.167 112.172 493.048 112.703 493.044 113.278V113.812C493.044 114.506 493.163 115.112 493.402 115.631C493.644 116.146 493.987 116.545 494.43 116.83C494.874 117.114 495.398 117.256 496.004 117.256C496.417 117.256 496.779 117.191 497.089 117.062C497.404 116.934 497.667 116.761 497.879 116.545C498.095 116.326 498.258 116.085 498.368 115.824L499.328 116.136C499.196 116.504 498.978 116.843 498.675 117.153C498.375 117.464 498 117.714 497.55 117.903C497.103 118.089 496.588 118.182 496.004 118.182ZM505.182 118.182C504.402 118.182 503.722 117.987 503.142 117.597C502.566 117.206 502.119 116.672 501.801 115.994C501.483 115.316 501.324 114.544 501.324 113.676C501.324 112.801 501.485 112.023 501.807 111.341C502.133 110.659 502.583 110.125 503.159 109.739C503.735 109.348 504.403 109.153 505.165 109.153C505.748 109.153 506.277 109.267 506.75 109.494C507.223 109.718 507.614 110.034 507.92 110.443C508.231 110.848 508.426 111.322 508.506 111.864H507.483C507.377 111.371 507.121 110.951 506.716 110.602C506.314 110.25 505.803 110.074 505.182 110.074C504.625 110.074 504.133 110.225 503.705 110.528C503.277 110.828 502.941 111.246 502.699 111.784C502.46 112.318 502.341 112.937 502.341 113.642C502.341 114.35 502.458 114.977 502.693 115.523C502.928 116.064 503.258 116.489 503.682 116.795C504.11 117.102 504.61 117.256 505.182 117.256C505.568 117.256 505.92 117.184 506.239 117.04C506.561 116.892 506.83 116.684 507.045 116.415C507.265 116.146 507.413 115.826 507.489 115.455H508.511C508.436 115.981 508.248 116.451 507.949 116.864C507.653 117.273 507.269 117.595 506.795 117.83C506.326 118.064 505.788 118.182 505.182 118.182ZM514.071 118.182C513.317 118.182 512.651 117.991 512.071 117.608C511.495 117.225 511.045 116.697 510.719 116.023C510.393 115.345 510.23 114.562 510.23 113.676C510.23 112.782 510.393 111.996 510.719 111.318C511.045 110.636 511.495 110.106 512.071 109.727C512.651 109.345 513.317 109.153 514.071 109.153C514.825 109.153 515.49 109.345 516.065 109.727C516.641 110.11 517.092 110.64 517.418 111.318C517.747 111.996 517.912 112.782 517.912 113.676C517.912 114.562 517.749 115.345 517.423 116.023C517.098 116.697 516.645 117.225 516.065 117.608C515.49 117.991 514.825 118.182 514.071 118.182ZM514.071 117.256C514.677 117.256 515.19 117.093 515.611 116.767C516.031 116.441 516.349 116.008 516.565 115.466C516.785 114.924 516.895 114.328 516.895 113.676C516.895 113.025 516.785 112.426 516.565 111.881C516.349 111.335 516.031 110.898 515.611 110.568C515.19 110.239 514.677 110.074 514.071 110.074C513.469 110.074 512.955 110.239 512.531 110.568C512.111 110.898 511.791 111.335 511.571 111.881C511.355 112.426 511.247 113.025 511.247 113.676C511.247 114.328 511.355 114.924 511.571 115.466C511.791 116.008 512.111 116.441 512.531 116.767C512.952 117.093 513.465 117.256 514.071 117.256ZM520.132 118V109.273H521.115V110.614H521.206C521.38 110.163 521.67 109.809 522.075 109.551C522.484 109.29 522.975 109.159 523.547 109.159C524.149 109.159 524.643 109.301 525.03 109.585C525.42 109.866 525.712 110.252 525.905 110.744H525.979C526.176 110.259 526.496 109.875 526.939 109.591C527.386 109.303 527.928 109.159 528.564 109.159C529.375 109.159 530.015 109.415 530.484 109.926C530.954 110.434 531.189 111.176 531.189 112.153V118H530.178V112.153C530.178 111.464 530.001 110.947 529.649 110.602C529.297 110.258 528.833 110.085 528.257 110.085C527.59 110.085 527.077 110.29 526.717 110.699C526.357 111.108 526.178 111.627 526.178 112.256V118H525.143V112.062C525.143 111.472 524.979 110.994 524.649 110.631C524.32 110.267 523.856 110.085 523.257 110.085C522.856 110.085 522.494 110.184 522.172 110.381C521.854 110.578 521.602 110.852 521.416 111.205C521.234 111.553 521.143 111.955 521.143 112.409V118H520.132ZM537.395 118.182C536.58 118.182 535.876 117.992 535.281 117.614C534.687 117.231 534.226 116.703 533.901 116.028C533.579 115.35 533.418 114.57 533.418 113.688C533.418 112.809 533.579 112.028 533.901 111.347C534.226 110.661 534.675 110.125 535.247 109.739C535.823 109.348 536.488 109.153 537.241 109.153C537.715 109.153 538.171 109.241 538.611 109.415C539.05 109.585 539.444 109.848 539.793 110.205C540.145 110.557 540.423 111.002 540.628 111.54C540.832 112.074 540.935 112.706 540.935 113.438V113.938H534.116V113.045H539.901C539.901 112.485 539.787 111.981 539.56 111.534C539.336 111.083 539.024 110.727 538.622 110.466C538.224 110.205 537.764 110.074 537.241 110.074C536.688 110.074 536.202 110.222 535.781 110.517C535.361 110.812 535.031 111.203 534.793 111.688C534.558 112.172 534.438 112.703 534.435 113.278V113.812C534.435 114.506 534.554 115.112 534.793 115.631C535.035 116.146 535.378 116.545 535.821 116.83C536.264 117.114 536.789 117.256 537.395 117.256C537.808 117.256 538.17 117.191 538.48 117.062C538.795 116.934 539.058 116.761 539.27 116.545C539.486 116.326 539.649 116.085 539.759 115.824L540.719 116.136C540.586 116.504 540.368 116.843 540.065 117.153C539.766 117.464 539.391 117.714 538.94 117.903C538.493 118.089 537.978 118.182 537.395 118.182ZM548.368 121.273C548.167 121.273 547.98 121.254 547.805 121.216C547.631 121.178 547.493 121.136 547.391 121.091L547.663 120.199C548.008 120.305 548.315 120.343 548.584 120.312C548.853 120.286 549.091 120.165 549.3 119.949C549.508 119.737 549.694 119.411 549.857 118.972L550.175 118.085L546.964 109.273H548.061L550.652 116.665H550.732L553.322 109.273H554.419L550.726 119.381C550.571 119.801 550.379 120.152 550.152 120.432C549.925 120.716 549.661 120.926 549.362 121.062C549.067 121.203 548.735 121.273 548.368 121.273ZM559.477 118.182C558.723 118.182 558.057 117.991 557.477 117.608C556.902 117.225 556.451 116.697 556.125 116.023C555.799 115.345 555.636 114.562 555.636 113.676C555.636 112.782 555.799 111.996 556.125 111.318C556.451 110.636 556.902 110.106 557.477 109.727C558.057 109.345 558.723 109.153 559.477 109.153C560.231 109.153 560.896 109.345 561.472 109.727C562.047 110.11 562.498 110.64 562.824 111.318C563.153 111.996 563.318 112.782 563.318 113.676C563.318 114.562 563.155 115.345 562.83 116.023C562.504 116.697 562.051 117.225 561.472 117.608C560.896 117.991 560.231 118.182 559.477 118.182ZM559.477 117.256C560.083 117.256 560.597 117.093 561.017 116.767C561.438 116.441 561.756 116.008 561.972 115.466C562.191 114.924 562.301 114.328 562.301 113.676C562.301 113.025 562.191 112.426 561.972 111.881C561.756 111.335 561.438 110.898 561.017 110.568C560.597 110.239 560.083 110.074 559.477 110.074C558.875 110.074 558.362 110.239 557.938 110.568C557.517 110.898 557.197 111.335 556.977 111.881C556.761 112.426 556.653 113.025 556.653 113.676C556.653 114.328 556.761 114.924 556.977 115.466C557.197 116.008 557.517 116.441 557.938 116.767C558.358 117.093 558.871 117.256 559.477 117.256ZM571.084 114.665V109.273H572.095V118H571.084V116.551H571.004C570.8 116.998 570.476 117.371 570.033 117.67C569.589 117.966 569.048 118.114 568.408 118.114C567.851 118.114 567.357 117.992 566.925 117.75C566.493 117.504 566.154 117.144 565.908 116.67C565.661 116.197 565.538 115.616 565.538 114.926V109.273H566.55V114.864C566.55 115.545 566.75 116.095 567.152 116.511C567.554 116.924 568.069 117.131 568.697 117.131C569.091 117.131 569.47 117.036 569.834 116.847C570.197 116.657 570.497 116.381 570.732 116.017C570.966 115.65 571.084 115.199 571.084 114.665ZM574.773 118V109.273H575.756V110.614H575.83C576.004 110.174 576.307 109.82 576.739 109.551C577.174 109.278 577.667 109.142 578.216 109.142C578.299 109.142 578.392 109.144 578.494 109.148C578.597 109.152 578.682 109.155 578.75 109.159V110.188C578.705 110.18 578.625 110.169 578.511 110.153C578.398 110.138 578.275 110.131 578.142 110.131C577.688 110.131 577.282 110.227 576.926 110.42C576.574 110.61 576.295 110.873 576.091 111.21C575.886 111.547 575.784 111.932 575.784 112.364V118H574.773ZM28.4773 138.182C27.7614 138.182 27.1345 137.992 26.5966 137.614C26.0587 137.235 25.6383 136.706 25.3352 136.028C25.036 135.35 24.8864 134.561 24.8864 133.659C24.8864 132.761 25.036 131.975 25.3352 131.301C25.6383 130.623 26.0606 130.097 26.6023 129.722C27.1439 129.343 27.7746 129.153 28.4943 129.153C29.0246 129.153 29.4659 129.248 29.8182 129.438C30.1705 129.623 30.4527 129.854 30.6648 130.131C30.8769 130.407 31.0417 130.676 31.1591 130.938H31.25V126.364H32.267V138H31.2784V136.381H31.1591C31.0417 136.646 30.875 136.919 30.6591 137.199C30.4432 137.475 30.1572 137.708 29.8011 137.898C29.4489 138.087 29.0076 138.182 28.4773 138.182ZM28.5966 137.256C29.161 137.256 29.642 137.102 30.0398 136.795C30.4375 136.485 30.7405 136.059 30.9489 135.517C31.161 134.972 31.267 134.347 31.267 133.642C31.267 132.945 31.1629 132.33 30.9545 131.795C30.7462 131.258 30.4432 130.837 30.0455 130.534C29.6477 130.227 29.1648 130.074 28.5966 130.074C28.0133 130.074 27.5208 130.233 27.1193 130.551C26.7216 130.866 26.4186 131.292 26.2102 131.83C26.0057 132.367 25.9034 132.972 25.9034 133.642C25.9034 134.32 26.0076 134.932 26.2159 135.477C26.4242 136.023 26.7273 136.456 27.125 136.778C27.5265 137.097 28.017 137.256 28.5966 137.256ZM37.5852 138.199C37.0587 138.199 36.5777 138.097 36.142 137.892C35.7064 137.684 35.3598 137.384 35.1023 136.994C34.8447 136.6 34.7159 136.123 34.7159 135.562C34.7159 135.131 34.7973 134.767 34.9602 134.472C35.1231 134.176 35.3542 133.934 35.6534 133.744C35.9527 133.555 36.3068 133.405 36.7159 133.295C37.125 133.186 37.5758 133.1 38.0682 133.04C38.5568 132.979 38.9697 132.926 39.3068 132.881C39.6477 132.835 39.9072 132.763 40.0852 132.665C40.2633 132.566 40.3523 132.407 40.3523 132.188V131.983C40.3523 131.388 40.1742 130.92 39.8182 130.58C39.4659 130.235 38.9583 130.062 38.2955 130.062C37.6667 130.062 37.1534 130.201 36.7557 130.477C36.3617 130.754 36.0852 131.08 35.9261 131.455L34.9659 131.108C35.1629 130.631 35.4356 130.25 35.7841 129.966C36.1326 129.678 36.5227 129.472 36.9545 129.347C37.3864 129.218 37.8239 129.153 38.267 129.153C38.6004 129.153 38.947 129.197 39.3068 129.284C39.6705 129.371 40.0076 129.523 40.3182 129.739C40.6288 129.951 40.8807 130.248 41.0739 130.631C41.267 131.009 41.3636 131.491 41.3636 132.074V138H40.3523V136.619H40.2898C40.1686 136.877 39.9886 137.127 39.75 137.369C39.5114 137.612 39.2121 137.811 38.8523 137.966C38.4924 138.121 38.0701 138.199 37.5852 138.199ZM37.7216 137.273C38.2595 137.273 38.7254 137.153 39.1193 136.915C39.5133 136.676 39.8163 136.36 40.0284 135.966C40.2443 135.568 40.3523 135.131 40.3523 134.653V133.392C40.2765 133.464 40.1496 133.528 39.9716 133.585C39.7973 133.642 39.5947 133.693 39.3636 133.739C39.1364 133.78 38.9091 133.816 38.6818 133.847C38.4545 133.877 38.25 133.903 38.0682 133.926C37.5758 133.987 37.1553 134.081 36.8068 134.21C36.4583 134.339 36.1913 134.517 36.0057 134.744C35.8201 134.968 35.7273 135.256 35.7273 135.608C35.7273 136.138 35.9167 136.549 36.2955 136.841C36.6742 137.129 37.1496 137.273 37.7216 137.273ZM44.0653 138V129.273H45.0824V138H44.0653ZM44.5824 127.773C44.3741 127.773 44.196 127.703 44.0483 127.562C43.9006 127.419 43.8267 127.246 43.8267 127.045C43.8267 126.845 43.9006 126.674 44.0483 126.534C44.196 126.39 44.3741 126.318 44.5824 126.318C44.7907 126.318 44.9688 126.39 45.1165 126.534C45.2642 126.674 45.3381 126.845 45.3381 127.045C45.3381 127.246 45.2642 127.419 45.1165 127.562C44.9688 127.703 44.7907 127.773 44.5824 127.773ZM48.7685 126.364V138H47.7571V126.364H48.7685ZM52.1491 141.273C51.9484 141.273 51.7609 141.254 51.5866 141.216C51.4124 141.178 51.2741 141.136 51.1719 141.091L51.4446 140.199C51.7893 140.305 52.0961 140.343 52.3651 140.312C52.634 140.286 52.8726 140.165 53.081 139.949C53.2893 139.737 53.4749 139.411 53.6378 138.972L53.956 138.085L50.7457 129.273H51.8423L54.4332 136.665H54.5128L57.1037 129.273H58.2003L54.5071 139.381C54.3518 139.801 54.1605 140.152 53.9332 140.432C53.706 140.716 53.4427 140.926 53.1435 141.062C52.848 141.203 52.5166 141.273 52.1491 141.273ZM68.0881 138.182C67.3078 138.182 66.6278 137.987 66.0483 137.597C65.4725 137.206 65.0256 136.672 64.7074 135.994C64.3892 135.316 64.2301 134.544 64.2301 133.676C64.2301 132.801 64.3911 132.023 64.7131 131.341C65.0388 130.659 65.4896 130.125 66.0653 129.739C66.6411 129.348 67.3097 129.153 68.071 129.153C68.6544 129.153 69.1828 129.267 69.6562 129.494C70.1297 129.718 70.5199 130.034 70.8267 130.443C71.1373 130.848 71.3324 131.322 71.4119 131.864H70.3892C70.2831 131.371 70.0275 130.951 69.6222 130.602C69.2206 130.25 68.7093 130.074 68.0881 130.074C67.5313 130.074 67.0388 130.225 66.6108 130.528C66.1828 130.828 65.8475 131.246 65.6051 131.784C65.3665 132.318 65.2472 132.937 65.2472 133.642C65.2472 134.35 65.3646 134.977 65.5994 135.523C65.8343 136.064 66.1638 136.489 66.5881 136.795C67.0161 137.102 67.5161 137.256 68.0881 137.256C68.4744 137.256 68.8267 137.184 69.1449 137.04C69.4669 136.892 69.7358 136.684 69.9517 136.415C70.1714 136.146 70.3191 135.826 70.3949 135.455H71.4176C71.3419 135.981 71.1544 136.451 70.8551 136.864C70.5597 137.273 70.1752 137.595 69.7017 137.83C69.232 138.064 68.6941 138.182 68.0881 138.182ZM76.9773 138.182C76.2235 138.182 75.5568 137.991 74.9773 137.608C74.4015 137.225 73.9508 136.697 73.625 136.023C73.2992 135.345 73.1364 134.562 73.1364 133.676C73.1364 132.782 73.2992 131.996 73.625 131.318C73.9508 130.636 74.4015 130.106 74.9773 129.727C75.5568 129.345 76.2235 129.153 76.9773 129.153C77.7311 129.153 78.3958 129.345 78.9716 129.727C79.5473 130.11 79.9981 130.64 80.3239 131.318C80.6534 131.996 80.8182 132.782 80.8182 133.676C80.8182 134.562 80.6553 135.345 80.3295 136.023C80.0038 136.697 79.5511 137.225 78.9716 137.608C78.3958 137.991 77.7311 138.182 76.9773 138.182ZM76.9773 137.256C77.5833 137.256 78.0966 137.093 78.517 136.767C78.9375 136.441 79.2557 136.008 79.4716 135.466C79.6913 134.924 79.8011 134.328 79.8011 133.676C79.8011 133.025 79.6913 132.426 79.4716 131.881C79.2557 131.335 78.9375 130.898 78.517 130.568C78.0966 130.239 77.5833 130.074 76.9773 130.074C76.375 130.074 75.8617 130.239 75.4375 130.568C75.017 130.898 74.697 131.335 74.4773 131.881C74.2614 132.426 74.1534 133.025 74.1534 133.676C74.1534 134.328 74.2614 134.924 74.4773 135.466C74.697 136.008 75.017 136.441 75.4375 136.767C75.858 137.093 76.3712 137.256 76.9773 137.256ZM83.0384 138V129.273H84.0213V130.614H84.1122C84.2865 130.163 84.5762 129.809 84.9815 129.551C85.3906 129.29 85.8812 129.159 86.4531 129.159C87.0554 129.159 87.5497 129.301 87.9361 129.585C88.3262 129.866 88.6179 130.252 88.8111 130.744H88.8849C89.0819 130.259 89.402 129.875 89.8452 129.591C90.2921 129.303 90.8338 129.159 91.4702 129.159C92.2808 129.159 92.9209 129.415 93.3906 129.926C93.8603 130.434 94.0952 131.176 94.0952 132.153V138H93.0838V132.153C93.0838 131.464 92.9077 130.947 92.5554 130.602C92.2031 130.258 91.7391 130.085 91.1634 130.085C90.4967 130.085 89.9834 130.29 89.6236 130.699C89.2637 131.108 89.0838 131.627 89.0838 132.256V138H88.0497V132.062C88.0497 131.472 87.8849 130.994 87.5554 130.631C87.2259 130.267 86.7618 130.085 86.1634 130.085C85.7618 130.085 85.4001 130.184 85.0781 130.381C84.7599 130.578 84.508 130.852 84.3224 131.205C84.1406 131.553 84.0497 131.955 84.0497 132.409V138H83.0384ZM96.7727 141.273V129.273H97.7557V130.938H97.875C97.9962 130.676 98.1629 130.409 98.375 130.136C98.5871 129.86 98.8674 129.627 99.2159 129.438C99.5682 129.248 100.011 129.153 100.545 129.153C101.265 129.153 101.894 129.343 102.432 129.722C102.973 130.097 103.394 130.623 103.693 131.301C103.996 131.975 104.148 132.761 104.148 133.659C104.148 134.561 103.996 135.35 103.693 136.028C103.394 136.706 102.973 137.235 102.432 137.614C101.894 137.992 101.269 138.182 100.557 138.182C100.03 138.182 99.589 138.087 99.233 137.898C98.8807 137.708 98.5947 137.475 98.375 137.199C98.1591 136.919 97.9924 136.646 97.875 136.381H97.7841V141.273H96.7727ZM97.7727 133.642C97.7727 134.347 97.8769 134.972 98.0852 135.517C98.2973 136.059 98.6004 136.485 98.9943 136.795C99.392 137.102 99.8731 137.256 100.438 137.256C101.017 137.256 101.506 137.097 101.903 136.778C102.305 136.456 102.61 136.023 102.818 135.477C103.03 134.932 103.136 134.32 103.136 133.642C103.136 132.972 103.032 132.367 102.824 131.83C102.619 131.292 102.316 130.866 101.915 130.551C101.513 130.233 101.021 130.074 100.438 130.074C99.8693 130.074 99.3864 130.227 98.9886 130.534C98.5909 130.837 98.2879 131.258 98.0795 131.795C97.875 132.33 97.7727 132.945 97.7727 133.642ZM108.804 138.199C108.277 138.199 107.796 138.097 107.361 137.892C106.925 137.684 106.579 137.384 106.321 136.994C106.063 136.6 105.935 136.123 105.935 135.562C105.935 135.131 106.016 134.767 106.179 134.472C106.342 134.176 106.573 133.934 106.872 133.744C107.171 133.555 107.526 133.405 107.935 133.295C108.344 133.186 108.795 133.1 109.287 133.04C109.776 132.979 110.188 132.926 110.526 132.881C110.866 132.835 111.126 132.763 111.304 132.665C111.482 132.566 111.571 132.407 111.571 132.188V131.983C111.571 131.388 111.393 130.92 111.037 130.58C110.685 130.235 110.177 130.062 109.514 130.062C108.885 130.062 108.372 130.201 107.974 130.477C107.58 130.754 107.304 131.08 107.145 131.455L106.185 131.108C106.382 130.631 106.654 130.25 107.003 129.966C107.351 129.678 107.741 129.472 108.173 129.347C108.605 129.218 109.043 129.153 109.486 129.153C109.819 129.153 110.166 129.197 110.526 129.284C110.889 129.371 111.226 129.523 111.537 129.739C111.848 129.951 112.099 130.248 112.293 130.631C112.486 131.009 112.582 131.491 112.582 132.074V138H111.571V136.619H111.509C111.387 136.877 111.207 137.127 110.969 137.369C110.73 137.612 110.431 137.811 110.071 137.966C109.711 138.121 109.289 138.199 108.804 138.199ZM108.94 137.273C109.478 137.273 109.944 137.153 110.338 136.915C110.732 136.676 111.035 136.36 111.247 135.966C111.463 135.568 111.571 135.131 111.571 134.653V133.392C111.495 133.464 111.368 133.528 111.19 133.585C111.016 133.642 110.813 133.693 110.582 133.739C110.355 133.78 110.128 133.816 109.901 133.847C109.673 133.877 109.469 133.903 109.287 133.926C108.795 133.987 108.374 134.081 108.026 134.21C107.677 134.339 107.41 134.517 107.224 134.744C107.039 134.968 106.946 135.256 106.946 135.608C106.946 136.138 107.135 136.549 107.514 136.841C107.893 137.129 108.368 137.273 108.94 137.273ZM116.284 132.545V138H115.273V129.273H116.256V130.642H116.347C116.551 130.195 116.869 129.837 117.301 129.568C117.737 129.295 118.275 129.159 118.915 129.159C119.502 129.159 120.017 129.282 120.46 129.528C120.907 129.771 121.254 130.129 121.5 130.602C121.75 131.076 121.875 131.657 121.875 132.347V138H120.864V132.409C120.864 131.693 120.663 131.127 120.261 130.71C119.864 130.294 119.33 130.085 118.659 130.085C118.201 130.085 117.794 130.184 117.438 130.381C117.081 130.578 116.799 130.862 116.591 131.233C116.386 131.6 116.284 132.038 116.284 132.545ZM124.55 138V129.273H125.567V138H124.55ZM125.067 127.773C124.858 127.773 124.68 127.703 124.533 127.562C124.385 127.419 124.311 127.246 124.311 127.045C124.311 126.845 124.385 126.674 124.533 126.534C124.68 126.39 124.858 126.318 125.067 126.318C125.275 126.318 125.453 126.39 125.601 126.534C125.749 126.674 125.822 126.845 125.822 127.045C125.822 127.246 125.749 127.419 125.601 127.562C125.453 127.703 125.275 127.773 125.067 127.773ZM131.634 138.182C130.88 138.182 130.213 137.991 129.634 137.608C129.058 137.225 128.607 136.697 128.281 136.023C127.955 135.345 127.793 134.562 127.793 133.676C127.793 132.782 127.955 131.996 128.281 131.318C128.607 130.636 129.058 130.106 129.634 129.727C130.213 129.345 130.88 129.153 131.634 129.153C132.387 129.153 133.052 129.345 133.628 129.727C134.204 130.11 134.654 130.64 134.98 131.318C135.31 131.996 135.474 132.782 135.474 133.676C135.474 134.562 135.312 135.345 134.986 136.023C134.66 136.697 134.207 137.225 133.628 137.608C133.052 137.991 132.387 138.182 131.634 138.182ZM131.634 137.256C132.24 137.256 132.753 137.093 133.173 136.767C133.594 136.441 133.912 136.008 134.128 135.466C134.348 134.924 134.457 134.328 134.457 133.676C134.457 133.025 134.348 132.426 134.128 131.881C133.912 131.335 133.594 130.898 133.173 130.568C132.753 130.239 132.24 130.074 131.634 130.074C131.031 130.074 130.518 130.239 130.094 130.568C129.673 130.898 129.353 131.335 129.134 131.881C128.918 132.426 128.81 133.025 128.81 133.676C128.81 134.328 128.918 134.924 129.134 135.466C129.353 136.008 129.673 136.441 130.094 136.767C130.514 137.093 131.027 137.256 131.634 137.256ZM138.706 132.545V138H137.695V129.273H138.678V130.642H138.768C138.973 130.195 139.291 129.837 139.723 129.568C140.159 129.295 140.696 129.159 141.337 129.159C141.924 129.159 142.439 129.282 142.882 129.528C143.329 129.771 143.676 130.129 143.922 130.602C144.172 131.076 144.297 131.657 144.297 132.347V138H143.286V132.409C143.286 131.693 143.085 131.127 142.683 130.71C142.286 130.294 141.751 130.085 141.081 130.085C140.623 130.085 140.215 130.184 139.859 130.381C139.503 130.578 139.221 130.862 139.013 131.233C138.808 131.6 138.706 132.038 138.706 132.545ZM147.767 138.085C147.544 138.085 147.35 138.006 147.188 137.847C147.028 137.684 146.949 137.491 146.949 137.267C146.949 137.04 147.028 136.847 147.188 136.688C147.35 136.528 147.544 136.449 147.767 136.449C147.994 136.449 148.188 136.528 148.347 136.688C148.506 136.847 148.585 137.04 148.585 137.267C148.585 137.415 148.547 137.551 148.472 137.676C148.4 137.801 148.301 137.902 148.176 137.977C148.055 138.049 147.919 138.085 147.767 138.085Z" fill="#666666"/>
</g>
<rect x="0.5" y="0.5" width="625" height="166" rx="7.5" stroke="#CDCDCD"/>
<defs>
<clipPath id="clip0_1_268">
<rect width="626" height="167" rx="8" fill="white"/>
</clipPath>
</defs>
</svg>
