<svg width="356" height="40" viewBox="0 0 356 40" fill="none" xmlns="http://www.w3.org/2000/svg">
<rect x="0.25" y="0.25" width="355.5" height="39.5" rx="19.75" fill="url(#paint0_linear_1_41)" fill-opacity="0.6"/>
<rect x="0.25" y="0.25" width="355.5" height="39.5" rx="19.75" stroke="url(#paint1_linear_1_41)" stroke-width="0.5"/>
<path opacity="0.2" d="M32.5 17C32.5 17.89 32.2361 18.76 31.7416 19.5001C31.2471 20.2401 30.5443 20.8169 29.7221 21.1575C28.8998 21.4981 27.995 21.5872 27.1221 21.4135C26.2492 21.2399 25.4474 20.8113 24.818 20.182C24.1887 19.5526 23.7601 18.7508 23.5865 17.8779C23.4128 17.005 23.5019 16.1002 23.8425 15.2779C24.1831 14.4557 24.7599 13.7529 25.4999 13.2584C26.24 12.7639 27.11 12.5 28 12.5C29.1935 12.5 30.3381 12.9741 31.182 13.818C32.0259 14.6619 32.5 15.8065 32.5 17Z" fill="white" fill-opacity="0.8"/>
<path d="M36.25 17C36.2508 15.6097 35.9003 14.2417 35.2309 13.0231C34.5616 11.8046 33.5951 10.7749 32.4213 10.0298C31.2475 9.28476 29.9044 8.84841 28.5168 8.76131C27.1293 8.67421 25.7422 8.9392 24.4844 9.53165C23.2266 10.1241 22.139 11.0248 21.3225 12.1501C20.506 13.2754 19.9872 14.5888 19.8141 15.9683C19.6411 17.3478 19.8195 18.7487 20.3328 20.0408C20.846 21.3329 21.6775 22.4743 22.75 23.3591V30.5C22.7499 30.6279 22.7825 30.7537 22.8448 30.8655C22.907 30.9772 22.9968 31.0712 23.1056 31.1384C23.2144 31.2057 23.3386 31.244 23.4663 31.2498C23.5941 31.2555 23.7212 31.2285 23.8356 31.1713L28 29.0938L32.1653 31.1759C32.2697 31.2259 32.3842 31.2512 32.5 31.25C32.6989 31.25 32.8897 31.171 33.0303 31.0303C33.171 30.8897 33.25 30.6989 33.25 30.5V23.3591C34.1884 22.5862 34.944 21.6152 35.4627 20.5158C35.9814 19.4163 36.2503 18.2157 36.25 17ZM21.25 17C21.25 15.665 21.6459 14.3599 22.3876 13.2499C23.1293 12.1399 24.1835 11.2747 25.4169 10.7638C26.6503 10.2529 28.0075 10.1193 29.3169 10.3797C30.6262 10.6402 31.829 11.283 32.773 12.227C33.717 13.171 34.3599 14.3738 34.6203 15.6831C34.8808 16.9925 34.7471 18.3497 34.2362 19.5831C33.7253 20.8165 32.8601 21.8707 31.7501 22.6124C30.6401 23.3541 29.335 23.75 28 23.75C26.2104 23.748 24.4947 23.0362 23.2292 21.7708C21.9638 20.5053 21.252 18.7896 21.25 17ZM31.75 29.2869L28.3347 27.5797C28.2305 27.5275 28.1156 27.5004 27.9991 27.5004C27.8825 27.5004 27.7676 27.5275 27.6634 27.5797L24.25 29.2869V24.3472C25.411 24.9406 26.6962 25.25 28 25.25C29.3038 25.25 30.589 24.9406 31.75 24.3472V29.2869ZM28 22.25C29.0384 22.25 30.0534 21.9421 30.9167 21.3652C31.7801 20.7883 32.453 19.9684 32.8504 19.0091C33.2477 18.0498 33.3517 16.9942 33.1491 15.9758C32.9466 14.9574 32.4465 14.0219 31.7123 13.2877C30.9781 12.5535 30.0426 12.0535 29.0242 11.8509C28.0058 11.6483 26.9502 11.7523 25.9909 12.1496C25.0316 12.547 24.2117 13.2199 23.6348 14.0833C23.0579 14.9466 22.75 15.9616 22.75 17C22.7515 18.3919 23.3051 19.7264 24.2893 20.7107C25.2736 21.6949 26.6081 22.2485 28 22.25ZM28 13.25C28.7417 13.25 29.4667 13.4699 30.0834 13.882C30.7001 14.294 31.1807 14.8797 31.4646 15.5649C31.7484 16.2502 31.8226 17.0042 31.6779 17.7316C31.5333 18.459 31.1761 19.1272 30.6517 19.6517C30.1272 20.1761 29.459 20.5333 28.7316 20.6779C28.0042 20.8226 27.2502 20.7484 26.5649 20.4645C25.8797 20.1807 25.294 19.7001 24.882 19.0834C24.4699 18.4667 24.25 17.7417 24.25 17C24.25 16.0054 24.6451 15.0516 25.3484 14.3484C26.0516 13.6451 27.0054 13.25 28 13.25Z" fill="white" fill-opacity="0.8"/>
<path d="M49.5625 25.5H48.4489L52.6818 13.8636H53.8182L58.0511 25.5H56.9375L53.2898 15.2443H53.2102L49.5625 25.5ZM50.3636 21.0398H56.1364V21.9943H50.3636V21.0398ZM60.679 25.5L58.0426 16.7727H59.1108L61.179 23.9716H61.2528L63.3153 16.7727H64.3892L66.4347 23.9545H66.5142L68.5824 16.7727H69.6506L67.0142 25.5H65.9688L63.9006 18.3466H63.7926L61.7244 25.5H60.679ZM74.054 25.6989C73.5275 25.6989 73.0464 25.5966 72.6108 25.392C72.1752 25.1837 71.8286 24.8845 71.571 24.4943C71.3134 24.1004 71.1847 23.6231 71.1847 23.0625C71.1847 22.6307 71.2661 22.267 71.429 21.9716C71.5919 21.6761 71.8229 21.4337 72.1222 21.2443C72.4214 21.0549 72.7756 20.9053 73.1847 20.7955C73.5938 20.6856 74.0445 20.6004 74.5369 20.5398C75.0256 20.4792 75.4384 20.4261 75.7756 20.3807C76.1165 20.3352 76.3759 20.2633 76.554 20.1648C76.732 20.0663 76.821 19.9072 76.821 19.6875V19.483C76.821 18.8883 76.643 18.4205 76.2869 18.0795C75.9347 17.7348 75.4271 17.5625 74.7642 17.5625C74.1354 17.5625 73.6222 17.7008 73.2244 17.9773C72.8305 18.2538 72.554 18.5795 72.3949 18.9545L71.4347 18.608C71.6316 18.1307 71.9044 17.75 72.2528 17.4659C72.6013 17.178 72.9915 16.9716 73.4233 16.8466C73.8551 16.7178 74.2926 16.6534 74.7358 16.6534C75.0691 16.6534 75.4157 16.697 75.7756 16.7841C76.1392 16.8712 76.4763 17.0227 76.7869 17.2386C77.0975 17.4508 77.3494 17.7481 77.5426 18.1307C77.7358 18.5095 77.8324 18.9905 77.8324 19.5739V25.5H76.821V24.1193H76.7585C76.6373 24.3769 76.4574 24.6269 76.2188 24.8693C75.9801 25.1117 75.6809 25.3106 75.321 25.4659C74.9612 25.6212 74.5388 25.6989 74.054 25.6989ZM74.1903 24.7727C74.7282 24.7727 75.1941 24.6534 75.5881 24.4148C75.982 24.1761 76.285 23.8598 76.4972 23.4659C76.7131 23.0682 76.821 22.6307 76.821 22.1534V20.892C76.7453 20.964 76.6184 21.0284 76.4403 21.0852C76.2661 21.142 76.0634 21.1932 75.8324 21.2386C75.6051 21.2803 75.3778 21.3163 75.1506 21.3466C74.9233 21.3769 74.7188 21.4034 74.5369 21.4261C74.0445 21.4867 73.6241 21.5814 73.2756 21.7102C72.9271 21.839 72.66 22.017 72.4744 22.2443C72.2888 22.4678 72.196 22.7557 72.196 23.108C72.196 23.6383 72.3854 24.0492 72.7642 24.3409C73.143 24.6288 73.6184 24.7727 74.1903 24.7727ZM80.5227 25.5V16.7727H81.5057V18.1136H81.5795C81.7538 17.6742 82.0568 17.3201 82.4886 17.0511C82.9242 16.7784 83.4167 16.642 83.9659 16.642C84.0492 16.642 84.142 16.6439 84.2443 16.6477C84.3466 16.6515 84.4318 16.6553 84.5 16.6591V17.6875C84.4545 17.6799 84.375 17.6686 84.2614 17.6534C84.1477 17.6383 84.0246 17.6307 83.892 17.6307C83.4375 17.6307 83.0322 17.7273 82.6761 17.9205C82.3239 18.1098 82.0455 18.3731 81.8409 18.7102C81.6364 19.0473 81.5341 19.4318 81.5341 19.8636V25.5H80.5227ZM89.1023 25.6818C88.3864 25.6818 87.7595 25.4924 87.2216 25.1136C86.6837 24.7348 86.2633 24.2064 85.9602 23.5284C85.661 22.8504 85.5114 22.0606 85.5114 21.1591C85.5114 20.2614 85.661 19.4754 85.9602 18.8011C86.2633 18.1231 86.6856 17.5966 87.2273 17.2216C87.7689 16.8428 88.3996 16.6534 89.1193 16.6534C89.6496 16.6534 90.0909 16.7481 90.4432 16.9375C90.7955 17.1231 91.0777 17.3542 91.2898 17.6307C91.5019 17.9072 91.6667 18.1761 91.7841 18.4375H91.875V13.8636H92.892V25.5H91.9034V23.8807H91.7841C91.6667 24.1458 91.5 24.4186 91.2841 24.6989C91.0682 24.9754 90.7822 25.2083 90.4261 25.3977C90.0739 25.5871 89.6326 25.6818 89.1023 25.6818ZM89.2216 24.7557C89.786 24.7557 90.267 24.6023 90.6648 24.2955C91.0625 23.9848 91.3655 23.5587 91.5739 23.017C91.786 22.4716 91.892 21.8466 91.892 21.142C91.892 20.4451 91.7879 19.8295 91.5795 19.2955C91.3712 18.7576 91.0682 18.3371 90.6705 18.0341C90.2727 17.7273 89.7898 17.5739 89.2216 17.5739C88.6383 17.5739 88.1458 17.733 87.7443 18.0511C87.3466 18.3655 87.0436 18.7917 86.8352 19.3295C86.6307 19.8674 86.5284 20.4716 86.5284 21.142C86.5284 21.8201 86.6326 22.4318 86.8409 22.9773C87.0492 23.5227 87.3523 23.9564 87.75 24.2784C88.1515 24.5966 88.642 24.7557 89.2216 24.7557ZM99.3011 25.6818C98.4867 25.6818 97.7822 25.4924 97.1875 25.1136C96.5928 24.7311 96.1326 24.2027 95.8068 23.5284C95.4848 22.8504 95.3239 22.0701 95.3239 21.1875C95.3239 20.3087 95.4848 19.5284 95.8068 18.8466C96.1326 18.161 96.5814 17.625 97.1534 17.2386C97.7292 16.8485 98.3939 16.6534 99.1477 16.6534C99.6212 16.6534 100.078 16.7405 100.517 16.9148C100.956 17.0852 101.35 17.3485 101.699 17.7045C102.051 18.0568 102.33 18.5019 102.534 19.0398C102.739 19.5739 102.841 20.2064 102.841 20.9375V21.4375H96.0227V20.5455H101.807C101.807 19.9848 101.693 19.4811 101.466 19.0341C101.242 18.5833 100.93 18.2273 100.528 17.9659C100.131 17.7045 99.6705 17.5739 99.1477 17.5739C98.5947 17.5739 98.108 17.7216 97.6875 18.017C97.267 18.3125 96.9375 18.7027 96.6989 19.1875C96.464 19.6723 96.3447 20.2027 96.3409 20.7784V21.3125C96.3409 22.0057 96.4602 22.6117 96.6989 23.1307C96.9413 23.6458 97.2841 24.0455 97.7273 24.3295C98.1705 24.6136 98.6951 24.7557 99.3011 24.7557C99.714 24.7557 100.076 24.6913 100.386 24.5625C100.701 24.4337 100.964 24.2614 101.176 24.0455C101.392 23.8258 101.555 23.5852 101.665 23.3239L102.625 23.6364C102.492 24.0038 102.275 24.3428 101.972 24.6534C101.672 24.964 101.297 25.214 100.847 25.4034C100.4 25.589 99.8845 25.6818 99.3011 25.6818ZM108.212 25.6818C107.496 25.6818 106.869 25.4924 106.331 25.1136C105.793 24.7348 105.373 24.2064 105.07 23.5284C104.77 22.8504 104.621 22.0606 104.621 21.1591C104.621 20.2614 104.77 19.4754 105.07 18.8011C105.373 18.1231 105.795 17.5966 106.337 17.2216C106.878 16.8428 107.509 16.6534 108.229 16.6534C108.759 16.6534 109.2 16.7481 109.553 16.9375C109.905 17.1231 110.187 17.3542 110.399 17.6307C110.611 17.9072 110.776 18.1761 110.893 18.4375H110.984V13.8636H112.001V25.5H111.013V23.8807H110.893C110.776 24.1458 110.609 24.4186 110.393 24.6989C110.178 24.9754 109.892 25.2083 109.536 25.3977C109.183 25.5871 108.742 25.6818 108.212 25.6818ZM108.331 24.7557C108.895 24.7557 109.376 24.6023 109.774 24.2955C110.172 23.9848 110.475 23.5587 110.683 23.017C110.895 22.4716 111.001 21.8466 111.001 21.142C111.001 20.4451 110.897 19.8295 110.689 19.2955C110.481 18.7576 110.178 18.3371 109.78 18.0341C109.382 17.7273 108.899 17.5739 108.331 17.5739C107.748 17.5739 107.255 17.733 106.854 18.0511C106.456 18.3655 106.153 18.7917 105.945 19.3295C105.74 19.8674 105.638 20.4716 105.638 21.142C105.638 21.8201 105.742 22.4318 105.95 22.9773C106.159 23.5227 106.462 23.9564 106.859 24.2784C107.261 24.5966 107.751 24.7557 108.331 24.7557ZM122.82 16.7727V17.6534H118.655V16.7727H122.82ZM119.956 14.6818H120.973V23.2216C120.973 23.5852 121.036 23.8712 121.161 24.0795C121.286 24.2841 121.448 24.4299 121.649 24.517C121.85 24.6004 122.064 24.642 122.291 24.642C122.424 24.642 122.537 24.6345 122.632 24.6193C122.727 24.6004 122.81 24.5814 122.882 24.5625L123.098 25.4773C123 25.5152 122.878 25.5492 122.734 25.5795C122.59 25.6136 122.412 25.6307 122.2 25.6307C121.829 25.6307 121.471 25.5492 121.126 25.3864C120.786 25.2235 120.505 24.9811 120.286 24.6591C120.066 24.3371 119.956 23.9375 119.956 23.4602V14.6818ZM126.315 20.0455V25.5H125.304V13.8636H126.315V18.142H126.406C126.611 17.6913 126.927 17.3314 127.355 17.0625C127.787 16.7936 128.332 16.6591 128.991 16.6591C129.582 16.6591 130.101 16.7803 130.548 17.0227C130.995 17.2652 131.344 17.6231 131.594 18.0966C131.844 18.5701 131.969 19.1534 131.969 19.8466V25.5H130.952V19.9091C130.952 19.1894 130.751 18.6231 130.349 18.2102C129.952 17.7936 129.414 17.5852 128.736 17.5852C128.27 17.5852 127.855 17.6837 127.491 17.8807C127.128 18.0777 126.84 18.3617 126.628 18.733C126.42 19.1004 126.315 19.5379 126.315 20.0455ZM138.161 25.6818C137.346 25.6818 136.642 25.4924 136.047 25.1136C135.452 24.7311 134.992 24.2027 134.666 23.5284C134.344 22.8504 134.183 22.0701 134.183 21.1875C134.183 20.3087 134.344 19.5284 134.666 18.8466C134.992 18.161 135.441 17.625 136.013 17.2386C136.589 16.8485 137.253 16.6534 138.007 16.6534C138.481 16.6534 138.937 16.7405 139.376 16.9148C139.816 17.0852 140.21 17.3485 140.558 17.7045C140.911 18.0568 141.189 18.5019 141.393 19.0398C141.598 19.5739 141.7 20.2064 141.7 20.9375V21.4375H134.882V20.5455H140.666C140.666 19.9848 140.553 19.4811 140.325 19.0341C140.102 18.5833 139.789 18.2273 139.388 17.9659C138.99 17.7045 138.53 17.5739 138.007 17.5739C137.454 17.5739 136.967 17.7216 136.547 18.017C136.126 18.3125 135.797 18.7027 135.558 19.1875C135.323 19.6723 135.204 20.2027 135.2 20.7784V21.3125C135.2 22.0057 135.32 22.6117 135.558 23.1307C135.801 23.6458 136.143 24.0455 136.587 24.3295C137.03 24.6136 137.554 24.7557 138.161 24.7557C138.573 24.7557 138.935 24.6913 139.246 24.5625C139.56 24.4337 139.823 24.2614 140.036 24.0455C140.251 23.8258 140.414 23.5852 140.524 23.3239L141.484 23.6364C141.352 24.0038 141.134 24.3428 140.831 24.6534C140.532 24.964 140.157 25.214 139.706 25.4034C139.259 25.589 138.744 25.6818 138.161 25.6818ZM148.639 25.5V13.8636H149.656V18.4375H149.747C149.861 18.1761 150.024 17.9072 150.236 17.6307C150.452 17.3542 150.734 17.1231 151.082 16.9375C151.435 16.7481 151.878 16.6534 152.412 16.6534C153.128 16.6534 153.757 16.8428 154.298 17.2216C154.84 17.5966 155.262 18.1231 155.565 18.8011C155.868 19.4754 156.02 20.2614 156.02 21.1591C156.02 22.0606 155.868 22.8504 155.565 23.5284C155.266 24.2064 154.846 24.7348 154.304 25.1136C153.766 25.4924 153.141 25.6818 152.429 25.6818C151.899 25.6818 151.455 25.5871 151.099 25.3977C150.747 25.2083 150.463 24.9754 150.247 24.6989C150.031 24.4186 149.865 24.1458 149.747 23.8807H149.622V25.5H148.639ZM149.639 21.142C149.639 21.8466 149.743 22.4716 149.952 23.017C150.164 23.5587 150.467 23.9848 150.861 24.2955C151.259 24.6023 151.74 24.7557 152.304 24.7557C152.884 24.7557 153.374 24.5966 153.776 24.2784C154.177 23.9564 154.482 23.5227 154.69 22.9773C154.899 22.4318 155.003 21.8201 155.003 21.142C155.003 20.4716 154.899 19.8674 154.69 19.3295C154.486 18.7917 154.183 18.3655 153.781 18.0511C153.38 17.733 152.887 17.5739 152.304 17.5739C151.736 17.5739 151.253 17.7273 150.855 18.0341C150.461 18.3371 150.16 18.7576 149.952 19.2955C149.743 19.8295 149.639 20.4451 149.639 21.142ZM161.77 25.6818C160.955 25.6818 160.251 25.4924 159.656 25.1136C159.062 24.7311 158.601 24.2027 158.276 23.5284C157.954 22.8504 157.793 22.0701 157.793 21.1875C157.793 20.3087 157.954 19.5284 158.276 18.8466C158.601 18.161 159.05 17.625 159.622 17.2386C160.198 16.8485 160.863 16.6534 161.616 16.6534C162.09 16.6534 162.546 16.7405 162.986 16.9148C163.425 17.0852 163.819 17.3485 164.168 17.7045C164.52 18.0568 164.798 18.5019 165.003 19.0398C165.207 19.5739 165.31 20.2064 165.31 20.9375V21.4375H158.491V20.5455H164.276C164.276 19.9848 164.162 19.4811 163.935 19.0341C163.711 18.5833 163.399 18.2273 162.997 17.9659C162.599 17.7045 162.139 17.5739 161.616 17.5739C161.063 17.5739 160.577 17.7216 160.156 18.017C159.736 18.3125 159.406 18.7027 159.168 19.1875C158.933 19.6723 158.813 20.2027 158.81 20.7784V21.3125C158.81 22.0057 158.929 22.6117 159.168 23.1307C159.41 23.6458 159.753 24.0455 160.196 24.3295C160.639 24.6136 161.164 24.7557 161.77 24.7557C162.183 24.7557 162.545 24.6913 162.855 24.5625C163.17 24.4337 163.433 24.2614 163.645 24.0455C163.861 23.8258 164.024 23.5852 164.134 23.3239L165.094 23.6364C164.961 24.0038 164.743 24.3428 164.44 24.6534C164.141 24.964 163.766 25.214 163.315 25.4034C162.868 25.589 162.353 25.6818 161.77 25.6818ZM173.402 18.6875L172.476 18.9489C172.385 18.6875 172.256 18.4508 172.089 18.2386C171.923 18.0265 171.705 17.858 171.436 17.733C171.171 17.608 170.841 17.5455 170.447 17.5455C169.857 17.5455 169.372 17.6856 168.993 17.9659C168.614 18.2462 168.425 18.608 168.425 19.0511C168.425 19.4261 168.554 19.7311 168.811 19.9659C169.072 20.197 169.474 20.3807 170.016 20.517L171.334 20.8409C172.065 21.0189 172.612 21.3011 172.976 21.6875C173.343 22.0739 173.527 22.5587 173.527 23.142C173.527 23.6345 173.391 24.072 173.118 24.4545C172.845 24.8371 172.464 25.1383 171.976 25.358C171.491 25.5739 170.929 25.6818 170.288 25.6818C169.436 25.6818 168.733 25.4905 168.18 25.108C167.627 24.7216 167.273 24.1648 167.118 23.4375L168.089 23.1989C168.214 23.7178 168.459 24.1098 168.822 24.375C169.19 24.6402 169.673 24.7727 170.271 24.7727C170.942 24.7727 171.478 24.6231 171.879 24.3239C172.281 24.0208 172.482 23.642 172.482 23.1875C172.482 22.8352 172.364 22.5398 172.129 22.3011C171.894 22.0587 171.538 21.8807 171.061 21.767L169.635 21.4261C168.877 21.2443 168.317 20.9564 167.953 20.5625C167.589 20.1686 167.408 19.6799 167.408 19.0966C167.408 18.6155 167.538 18.1932 167.8 17.8295C168.061 17.4621 168.421 17.1742 168.879 16.9659C169.338 16.7576 169.86 16.6534 170.447 16.6534C171.247 16.6534 171.885 16.8352 172.362 17.1989C172.843 17.5587 173.19 18.0549 173.402 18.6875ZM179.179 16.7727V17.6534H175.014V16.7727H179.179ZM176.315 14.6818H177.332V23.2216C177.332 23.5852 177.395 23.8712 177.52 24.0795C177.645 24.2841 177.808 24.4299 178.009 24.517C178.209 24.6004 178.423 24.642 178.651 24.642C178.783 24.642 178.897 24.6345 178.991 24.6193C179.086 24.6004 179.17 24.5814 179.241 24.5625L179.457 25.4773C179.359 25.5152 179.238 25.5492 179.094 25.5795C178.95 25.6136 178.772 25.6307 178.56 25.6307C178.188 25.6307 177.83 25.5492 177.486 25.3864C177.145 25.2235 176.865 24.9811 176.645 24.6591C176.425 24.3371 176.315 23.9375 176.315 23.4602V14.6818ZM185.976 28.7727V16.7727H186.959V18.4375H187.078C187.199 18.1761 187.366 17.9091 187.578 17.6364C187.79 17.3598 188.071 17.1269 188.419 16.9375C188.771 16.7481 189.214 16.6534 189.749 16.6534C190.468 16.6534 191.097 16.8428 191.635 17.2216C192.177 17.5966 192.597 18.1231 192.896 18.8011C193.199 19.4754 193.351 20.2614 193.351 21.1591C193.351 22.0606 193.199 22.8504 192.896 23.5284C192.597 24.2064 192.177 24.7348 191.635 25.1136C191.097 25.4924 190.472 25.6818 189.76 25.6818C189.233 25.6818 188.792 25.5871 188.436 25.3977C188.084 25.2083 187.798 24.9754 187.578 24.6989C187.362 24.4186 187.196 24.1458 187.078 23.8807H186.987V28.7727H185.976ZM186.976 21.142C186.976 21.8466 187.08 22.4716 187.288 23.017C187.5 23.5587 187.804 23.9848 188.197 24.2955C188.595 24.6023 189.076 24.7557 189.641 24.7557C190.22 24.7557 190.709 24.5966 191.107 24.2784C191.508 23.9564 191.813 23.5227 192.021 22.9773C192.233 22.4318 192.339 21.8201 192.339 21.142C192.339 20.4716 192.235 19.8674 192.027 19.3295C191.822 18.7917 191.519 18.3655 191.118 18.0511C190.716 17.733 190.224 17.5739 189.641 17.5739C189.072 17.5739 188.589 17.7273 188.192 18.0341C187.794 18.3371 187.491 18.7576 187.283 19.2955C187.078 19.8295 186.976 20.4451 186.976 21.142ZM199.098 25.6818C198.284 25.6818 197.579 25.4924 196.984 25.1136C196.39 24.7311 195.929 24.2027 195.604 23.5284C195.282 22.8504 195.121 22.0701 195.121 21.1875C195.121 20.3087 195.282 19.5284 195.604 18.8466C195.929 18.161 196.378 17.625 196.95 17.2386C197.526 16.8485 198.191 16.6534 198.945 16.6534C199.418 16.6534 199.875 16.7405 200.314 16.9148C200.753 17.0852 201.147 17.3485 201.496 17.7045C201.848 18.0568 202.126 18.5019 202.331 19.0398C202.536 19.5739 202.638 20.2064 202.638 20.9375V21.4375H195.82V20.5455H201.604C201.604 19.9848 201.49 19.4811 201.263 19.0341C201.039 18.5833 200.727 18.2273 200.325 17.9659C199.928 17.7045 199.467 17.5739 198.945 17.5739C198.392 17.5739 197.905 17.7216 197.484 18.017C197.064 18.3125 196.734 18.7027 196.496 19.1875C196.261 19.6723 196.142 20.2027 196.138 20.7784V21.3125C196.138 22.0057 196.257 22.6117 196.496 23.1307C196.738 23.6458 197.081 24.0455 197.524 24.3295C197.967 24.6136 198.492 24.7557 199.098 24.7557C199.511 24.7557 199.873 24.6913 200.183 24.5625C200.498 24.4337 200.761 24.2614 200.973 24.0455C201.189 23.8258 201.352 23.5852 201.462 23.3239L202.422 23.6364C202.289 24.0038 202.071 24.3428 201.768 24.6534C201.469 24.964 201.094 25.214 200.643 25.4034C200.196 25.589 199.681 25.6818 199.098 25.6818ZM204.866 25.5V16.7727H205.849V18.1136H205.923C206.098 17.6742 206.401 17.3201 206.832 17.0511C207.268 16.7784 207.76 16.642 208.31 16.642C208.393 16.642 208.486 16.6439 208.588 16.6477C208.69 16.6515 208.776 16.6553 208.844 16.6591V17.6875C208.798 17.6799 208.719 17.6686 208.605 17.6534C208.491 17.6383 208.368 17.6307 208.236 17.6307C207.781 17.6307 207.376 17.7273 207.02 17.9205C206.668 18.1098 206.389 18.3731 206.185 18.7102C205.98 19.0473 205.878 19.4318 205.878 19.8636V25.5H204.866ZM214.707 16.7727V17.6534H210.418V16.7727H214.707ZM211.759 25.5V15.4943C211.759 15.0246 211.866 14.6288 212.082 14.3068C212.302 13.9848 212.588 13.7405 212.94 13.5739C213.293 13.4072 213.666 13.3239 214.06 13.3239C214.325 13.3239 214.545 13.3466 214.719 13.392C214.897 13.4337 215.037 13.4754 215.139 13.517L214.844 14.4034C214.768 14.3807 214.675 14.3542 214.565 14.3239C214.455 14.2936 214.317 14.2784 214.151 14.2784C213.711 14.2784 213.372 14.4015 213.134 14.6477C212.895 14.8939 212.776 15.2462 212.776 15.7045L212.77 25.5H211.759ZM222.271 22.1648V16.7727H223.283V25.5H222.271V24.0511H222.192C221.987 24.4981 221.663 24.8712 221.22 25.1705C220.777 25.4659 220.235 25.6136 219.595 25.6136C219.038 25.6136 218.544 25.4924 218.112 25.25C217.68 25.0038 217.341 24.6439 217.095 24.1705C216.849 23.697 216.726 23.1155 216.726 22.4261V16.7727H217.737V22.3636C217.737 23.0455 217.938 23.5947 218.339 24.0114C218.741 24.4242 219.256 24.6307 219.885 24.6307C220.279 24.6307 220.658 24.536 221.021 24.3466C221.385 24.1572 221.684 23.8807 221.919 23.517C222.154 23.1496 222.271 22.6989 222.271 22.1648ZM225.96 25.5V16.7727H226.943V18.1136H227.034C227.208 17.6629 227.498 17.3087 227.903 17.0511C228.313 16.7898 228.803 16.6591 229.375 16.6591C229.977 16.6591 230.472 16.8011 230.858 17.0852C231.248 17.3655 231.54 17.7519 231.733 18.2443H231.807C232.004 17.7595 232.324 17.375 232.767 17.0909C233.214 16.803 233.756 16.6591 234.392 16.6591C235.203 16.6591 235.843 16.9148 236.312 17.4261C236.782 17.9337 237.017 18.6761 237.017 19.6534V25.5H236.006V19.6534C236.006 18.964 235.83 18.447 235.477 18.1023C235.125 17.7576 234.661 17.5852 234.085 17.5852C233.419 17.5852 232.905 17.7898 232.545 18.1989C232.186 18.608 232.006 19.1269 232.006 19.7557V25.5H230.972V19.5625C230.972 18.9716 230.807 18.4943 230.477 18.1307C230.148 17.767 229.684 17.5852 229.085 17.5852C228.684 17.5852 228.322 17.6837 228 17.8807C227.682 18.0777 227.43 18.3523 227.244 18.7045C227.063 19.053 226.972 19.4545 226.972 19.9091V25.5H225.96ZM243.223 25.6818C242.409 25.6818 241.704 25.4924 241.109 25.1136C240.515 24.7311 240.054 24.2027 239.729 23.5284C239.407 22.8504 239.246 22.0701 239.246 21.1875C239.246 20.3087 239.407 19.5284 239.729 18.8466C240.054 18.161 240.503 17.625 241.075 17.2386C241.651 16.8485 242.316 16.6534 243.07 16.6534C243.543 16.6534 244 16.7405 244.439 16.9148C244.878 17.0852 245.272 17.3485 245.621 17.7045C245.973 18.0568 246.251 18.5019 246.456 19.0398C246.661 19.5739 246.763 20.2064 246.763 20.9375V21.4375H239.945V20.5455H245.729C245.729 19.9848 245.615 19.4811 245.388 19.0341C245.164 18.5833 244.852 18.2273 244.45 17.9659C244.053 17.7045 243.592 17.5739 243.07 17.5739C242.517 17.5739 242.03 17.7216 241.609 18.017C241.189 18.3125 240.859 18.7027 240.621 19.1875C240.386 19.6723 240.267 20.2027 240.263 20.7784V21.3125C240.263 22.0057 240.382 22.6117 240.621 23.1307C240.863 23.6458 241.206 24.0455 241.649 24.3295C242.092 24.6136 242.617 24.7557 243.223 24.7557C243.636 24.7557 243.998 24.6913 244.308 24.5625C244.623 24.4337 244.886 24.2614 245.098 24.0455C245.314 23.8258 245.477 23.5852 245.587 23.3239L246.547 23.6364C246.414 24.0038 246.196 24.3428 245.893 24.6534C245.594 24.964 245.219 25.214 244.768 25.4034C244.321 25.589 243.806 25.6818 243.223 25.6818ZM253.503 25.5V16.7727H254.52V25.5H253.503ZM254.02 15.2727C253.812 15.2727 253.634 15.2027 253.486 15.0625C253.338 14.9186 253.264 14.7462 253.264 14.5455C253.264 14.3447 253.338 14.1742 253.486 14.0341C253.634 13.8902 253.812 13.8182 254.02 13.8182C254.228 13.8182 254.406 13.8902 254.554 14.0341C254.702 14.1742 254.776 14.3447 254.776 14.5455C254.776 14.7462 254.702 14.9186 254.554 15.0625C254.406 15.2027 254.228 15.2727 254.02 15.2727ZM258.206 20.0455V25.5H257.195V16.7727H258.178V18.142H258.268C258.473 17.6951 258.791 17.3371 259.223 17.0682C259.659 16.7955 260.196 16.6591 260.837 16.6591C261.424 16.6591 261.939 16.7822 262.382 17.0284C262.829 17.2708 263.176 17.6288 263.422 18.1023C263.672 18.5758 263.797 19.1572 263.797 19.8466V25.5H262.786V19.9091C262.786 19.1932 262.585 18.6269 262.183 18.2102C261.786 17.7936 261.251 17.5852 260.581 17.5852C260.123 17.5852 259.715 17.6837 259.359 17.8807C259.003 18.0777 258.721 18.3617 258.513 18.733C258.308 19.1004 258.206 19.5379 258.206 20.0455ZM274.398 16.7727V17.6534H270.233V16.7727H274.398ZM271.534 14.6818H272.551V23.2216C272.551 23.5852 272.614 23.8712 272.739 24.0795C272.864 24.2841 273.027 24.4299 273.227 24.517C273.428 24.6004 273.642 24.642 273.869 24.642C274.002 24.642 274.116 24.6345 274.21 24.6193C274.305 24.6004 274.388 24.5814 274.46 24.5625L274.676 25.4773C274.578 25.5152 274.456 25.5492 274.312 25.5795C274.169 25.6136 273.991 25.6307 273.778 25.6307C273.407 25.6307 273.049 25.5492 272.705 25.3864C272.364 25.2235 272.083 24.9811 271.864 24.6591C271.644 24.3371 271.534 23.9375 271.534 23.4602V14.6818ZM277.893 20.0455V25.5H276.882V13.8636H277.893V18.142H277.984C278.189 17.6913 278.505 17.3314 278.933 17.0625C279.365 16.7936 279.911 16.6591 280.57 16.6591C281.161 16.6591 281.679 16.7803 282.126 17.0227C282.573 17.2652 282.922 17.6231 283.172 18.0966C283.422 18.5701 283.547 19.1534 283.547 19.8466V25.5H282.53V19.9091C282.53 19.1894 282.329 18.6231 281.928 18.2102C281.53 17.7936 280.992 17.5852 280.314 17.5852C279.848 17.5852 279.433 17.6837 279.07 17.8807C278.706 18.0777 278.418 18.3617 278.206 18.733C277.998 19.1004 277.893 19.5379 277.893 20.0455ZM289.739 25.6818C288.924 25.6818 288.22 25.4924 287.625 25.1136C287.03 24.7311 286.57 24.2027 286.244 23.5284C285.922 22.8504 285.761 22.0701 285.761 21.1875C285.761 20.3087 285.922 19.5284 286.244 18.8466C286.57 18.161 287.019 17.625 287.591 17.2386C288.167 16.8485 288.831 16.6534 289.585 16.6534C290.059 16.6534 290.515 16.7405 290.955 16.9148C291.394 17.0852 291.788 17.3485 292.136 17.7045C292.489 18.0568 292.767 18.5019 292.972 19.0398C293.176 19.5739 293.278 20.2064 293.278 20.9375V21.4375H286.46V20.5455H292.244C292.244 19.9848 292.131 19.4811 291.903 19.0341C291.68 18.5833 291.367 18.2273 290.966 17.9659C290.568 17.7045 290.108 17.5739 289.585 17.5739C289.032 17.5739 288.545 17.7216 288.125 18.017C287.705 18.3125 287.375 18.7027 287.136 19.1875C286.902 19.6723 286.782 20.2027 286.778 20.7784V21.3125C286.778 22.0057 286.898 22.6117 287.136 23.1307C287.379 23.6458 287.722 24.0455 288.165 24.3295C288.608 24.6136 289.133 24.7557 289.739 24.7557C290.152 24.7557 290.513 24.6913 290.824 24.5625C291.138 24.4337 291.402 24.2614 291.614 24.0455C291.83 23.8258 291.992 23.5852 292.102 23.3239L293.062 23.6364C292.93 24.0038 292.712 24.3428 292.409 24.6534C292.11 24.964 291.735 25.214 291.284 25.4034C290.837 25.589 290.322 25.6818 289.739 25.6818ZM301.945 25.5L299.308 16.7727H300.376L302.445 23.9716H302.518L304.581 16.7727H305.655L307.7 23.9545H307.78L309.848 16.7727H310.916L308.28 25.5H307.234L305.166 18.3466H305.058L302.99 25.5H301.945ZM315.977 25.6818C315.223 25.6818 314.557 25.4905 313.977 25.108C313.402 24.7254 312.951 24.197 312.625 23.5227C312.299 22.8447 312.136 22.0625 312.136 21.1761C312.136 20.2822 312.299 19.4962 312.625 18.8182C312.951 18.1364 313.402 17.6061 313.977 17.2273C314.557 16.8447 315.223 16.6534 315.977 16.6534C316.731 16.6534 317.396 16.8447 317.972 17.2273C318.547 17.6098 318.998 18.1402 319.324 18.8182C319.653 19.4962 319.818 20.2822 319.818 21.1761C319.818 22.0625 319.655 22.8447 319.33 23.5227C319.004 24.197 318.551 24.7254 317.972 25.108C317.396 25.4905 316.731 25.6818 315.977 25.6818ZM315.977 24.7557C316.583 24.7557 317.097 24.5928 317.517 24.267C317.938 23.9413 318.256 23.5076 318.472 22.9659C318.691 22.4242 318.801 21.8277 318.801 21.1761C318.801 20.5246 318.691 19.9261 318.472 19.3807C318.256 18.8352 317.938 18.3977 317.517 18.0682C317.097 17.7386 316.583 17.5739 315.977 17.5739C315.375 17.5739 314.862 17.7386 314.438 18.0682C314.017 18.3977 313.697 18.8352 313.477 19.3807C313.261 19.9261 313.153 20.5246 313.153 21.1761C313.153 21.8277 313.261 22.4242 313.477 22.9659C313.697 23.5076 314.017 23.9413 314.438 24.267C314.858 24.5928 315.371 24.7557 315.977 24.7557ZM322.038 25.5V16.7727H323.021V18.1136H323.095C323.269 17.6742 323.572 17.3201 324.004 17.0511C324.44 16.7784 324.932 16.642 325.482 16.642C325.565 16.642 325.658 16.6439 325.76 16.6477C325.862 16.6515 325.947 16.6553 326.016 16.6591V17.6875C325.97 17.6799 325.891 17.6686 325.777 17.6534C325.663 17.6383 325.54 17.6307 325.408 17.6307C324.953 17.6307 324.548 17.7273 324.192 17.9205C323.839 18.1098 323.561 18.3731 323.357 18.7102C323.152 19.0473 323.05 19.4318 323.05 19.8636V25.5H322.038ZM328.753 13.8636V25.5H327.741V13.8636H328.753ZM334.571 25.6818C333.855 25.6818 333.228 25.4924 332.69 25.1136C332.152 24.7348 331.732 24.2064 331.429 23.5284C331.13 22.8504 330.98 22.0606 330.98 21.1591C330.98 20.2614 331.13 19.4754 331.429 18.8011C331.732 18.1231 332.154 17.5966 332.696 17.2216C333.238 16.8428 333.868 16.6534 334.588 16.6534C335.118 16.6534 335.56 16.7481 335.912 16.9375C336.264 17.1231 336.546 17.3542 336.759 17.6307C336.971 17.9072 337.135 18.1761 337.253 18.4375H337.344V13.8636H338.361V25.5H337.372V23.8807H337.253C337.135 24.1458 336.969 24.4186 336.753 24.6989C336.537 24.9754 336.251 25.2083 335.895 25.3977C335.543 25.5871 335.101 25.6818 334.571 25.6818ZM334.69 24.7557C335.255 24.7557 335.736 24.6023 336.134 24.2955C336.531 23.9848 336.834 23.5587 337.043 23.017C337.255 22.4716 337.361 21.8466 337.361 21.142C337.361 20.4451 337.257 19.8295 337.048 19.2955C336.84 18.7576 336.537 18.3371 336.139 18.0341C335.741 17.7273 335.259 17.5739 334.69 17.5739C334.107 17.5739 333.615 17.733 333.213 18.0511C332.815 18.3655 332.512 18.7917 332.304 19.3295C332.099 19.8674 331.997 20.4716 331.997 21.142C331.997 21.8201 332.101 22.4318 332.31 22.9773C332.518 23.5227 332.821 23.9564 333.219 24.2784C333.62 24.5966 334.111 24.7557 334.69 24.7557Z" fill="white"/>
<defs>
<linearGradient id="paint0_linear_1_41" x1="178" y1="0" x2="178" y2="40" gradientUnits="userSpaceOnUse">
<stop stop-color="#032E15"/>
<stop offset="1" stop-color="#016630"/>
</linearGradient>
<linearGradient id="paint1_linear_1_41" x1="-4.07906e-09" y1="20" x2="365.162" y2="22.5988" gradientUnits="userSpaceOnUse">
<stop stop-color="white" stop-opacity="0.5"/>
<stop offset="1" stop-color="#FCFCFC" stop-opacity="0.4"/>
</linearGradient>
</defs>
</svg>
