<svg width="86" height="32" viewBox="0 0 86 32" fill="none" xmlns="http://www.w3.org/2000/svg">
<path d="M20.9514 10.3705C20.741 9.63903 20.4454 8.99275 20.0647 8.43165C19.6839 7.86052 19.218 7.37957 18.6669 6.98879C18.1258 6.588 17.5046 6.2824 16.8032 6.07198C16.1119 5.86157 15.3453 5.75636 14.5037 5.75636C12.9306 5.75636 11.5478 6.14713 10.3555 6.92867C9.17314 7.71022 8.25132 8.84747 7.59001 10.3404C6.9287 11.8234 6.59805 13.6369 6.59805 15.7812C6.59805 17.9254 6.92369 19.749 7.57498 21.252C8.22627 22.755 9.14809 23.9022 10.3404 24.6938C11.5328 25.4753 12.9406 25.8661 14.5638 25.8661C16.0367 25.8661 17.2942 25.6056 18.3363 25.0846C19.3883 24.5535 20.1899 23.807 20.741 22.8451C21.3021 21.8832 21.5827 20.746 21.5827 19.4334L22.9053 19.6288H14.9696V14.7291H27.8501V18.6068C27.8501 21.3121 27.2789 23.6367 26.1367 25.5805C24.9944 27.5144 23.4213 29.0073 21.4173 30.0594C19.4134 31.1015 17.1188 31.6225 14.5337 31.6225C11.648 31.6225 9.11302 30.9862 6.9287 29.7137C4.74438 28.4312 3.04101 26.6126 1.8186 24.2579C0.606201 21.8933 2.83201e-06 19.0877 2.83201e-06 15.8413C2.83201e-06 13.3464 0.360716 11.122 1.08214 9.1681C1.81359 7.20422 2.83561 5.54093 4.1482 4.17824C5.4608 2.81554 6.98882 1.77849 8.73227 1.06709C10.4757 0.35568 12.3644 -2.3428e-05 14.3985 -2.3428e-05C16.1419 -2.3428e-05 17.7651 0.255482 19.2681 0.766493C20.7711 1.26748 22.1037 1.97889 23.266 2.90071C24.4383 3.82253 25.3952 4.9197 26.1367 6.19222C26.8781 7.45471 27.3541 8.84747 27.5645 10.3705H20.9514ZM30.2435 5.78642V0.420809H55.5235V5.78642H46.0999V31.2017H39.6672V5.78642H30.2435ZM78.6918 10.3705C78.4814 9.63903 78.1858 8.99275 77.8051 8.43165C77.4243 7.86052 76.9584 7.37957 76.4073 6.98879C75.8662 6.588 75.245 6.2824 74.5436 6.07198C73.8522 5.86157 73.0857 5.75636 72.2441 5.75636C70.671 5.75636 69.2882 6.14713 68.0959 6.92867C66.9135 7.71022 65.9917 8.84747 65.3304 10.3404C64.6691 11.8234 64.3384 13.6369 64.3384 15.7812C64.3384 17.9254 64.6641 19.749 65.3154 21.252C65.9667 22.755 66.8885 23.9022 68.0808 24.6938C69.2732 25.4753 70.681 25.8661 72.3042 25.8661C73.7771 25.8661 75.0346 25.6056 76.0766 25.0846C77.1287 24.5535 77.9303 23.807 78.4814 22.8451C79.0425 21.8832 79.3231 20.746 79.3231 19.4334L80.6457 19.6288H72.71V14.7291H85.5905V18.6068C85.5905 21.3121 85.0193 23.6367 83.8771 25.5805C82.7348 27.5144 81.1617 29.0073 79.1577 30.0594C77.1538 31.1015 74.8592 31.6225 72.2741 31.6225C69.3884 31.6225 66.8534 30.9862 64.6691 29.7137C62.4848 28.4312 60.7814 26.6126 59.559 24.2579C58.3466 21.8933 57.7404 19.0877 57.7404 15.8413C57.7404 13.3464 58.1011 11.122 58.8225 9.1681C59.554 7.20422 60.576 5.54093 61.8886 4.17824C63.2012 2.81554 64.7292 1.77849 66.4727 1.06709C68.2161 0.35568 70.1048 -2.3428e-05 72.1389 -2.3428e-05C73.8823 -2.3428e-05 75.5055 0.255482 77.0085 0.766493C78.5115 1.26748 79.8441 1.97889 81.0064 2.90071C82.1787 3.82253 83.1356 4.9197 83.8771 6.19222C84.6185 7.45471 85.0945 8.84747 85.3049 10.3705H78.6918Z" fill="white"/>
</svg>
