<svg width="43" height="12" viewBox="0 0 43 12" fill="none" xmlns="http://www.w3.org/2000/svg">
<path d="M9.08798e-06 11.7677V-3.50705e-07H1.42501V5.24031H7.69959V-3.50705e-07H9.12459V11.7677H7.69959V6.50442H1.42501V11.7677H9.08798e-06ZM15.3791 11.9516C14.5823 11.9516 13.8832 11.762 13.2818 11.3827C12.6842 11.0035 12.2169 10.473 11.8798 9.79111C11.5465 9.10925 11.3799 8.31248 11.3799 7.40079C11.3799 6.48144 11.5465 5.67892 11.8798 4.99323C12.2169 4.30755 12.6842 3.77509 13.2818 3.39586C13.8832 3.01663 14.5823 2.82701 15.3791 2.82701C16.1758 2.82701 16.873 3.01663 17.4706 3.39586C18.072 3.77509 18.5393 4.30755 18.8726 4.99323C19.2097 5.67892 19.3782 6.48144 19.3782 7.40079C19.3782 8.31248 19.2097 9.10925 18.8726 9.79111C18.5393 10.473 18.072 11.0035 17.4706 11.3827C16.873 11.762 16.1758 11.9516 15.3791 11.9516ZM15.3791 10.7334C15.9843 10.7334 16.4823 10.5783 16.873 10.268C17.2637 9.95774 17.5529 9.54978 17.7406 9.04413C17.9283 8.53849 18.0222 7.99071 18.0222 7.40079C18.0222 6.81087 17.9283 6.26118 17.7406 5.7517C17.5529 5.24223 17.2637 4.83043 16.873 4.51632C16.4823 4.20221 15.9843 4.04515 15.3791 4.04515C14.7738 4.04515 14.2758 4.20221 13.8851 4.51632C13.4944 4.83043 13.2052 5.24223 13.0175 5.7517C12.8298 6.26118 12.7359 6.81087 12.7359 7.40079C12.7359 7.99071 12.8298 8.53849 13.0175 9.04413C13.2052 9.54978 13.4944 9.95774 13.8851 10.268C14.2758 10.5783 14.7738 10.7334 15.3791 10.7334ZM21.4482 11.7677V2.94193H22.7583V4.32096H22.8732C23.0571 3.84979 23.354 3.48396 23.7638 3.22348C24.1737 2.95917 24.666 2.82701 25.2406 2.82701C25.8228 2.82701 26.3074 2.95917 26.6943 3.22348C27.085 3.48396 27.3895 3.84979 27.6079 4.32096H27.6998C27.9258 3.86511 28.2648 3.50312 28.7169 3.23497C29.1689 2.963 29.7109 2.82701 30.343 2.82701C31.1321 2.82701 31.7775 3.07409 32.2793 3.56824C32.7812 4.05856 33.0321 4.82277 33.0321 5.86087V11.7677H31.676V5.86087C31.676 5.20967 31.4979 4.74424 31.1416 4.46461C30.7854 4.18497 30.3659 4.04515 29.8833 4.04515C29.2627 4.04515 28.782 4.23285 28.441 4.60826C28.1001 4.97983 27.9297 5.451 27.9297 6.02176V11.7677H26.5506V5.72297C26.5506 5.22116 26.3878 4.81703 26.0622 4.51057C25.7366 4.20029 25.3172 4.04515 24.8039 4.04515C24.4514 4.04515 24.122 4.139 23.8156 4.3267C23.5129 4.5144 23.2678 4.77489 23.0801 5.10815C22.8962 5.43759 22.8043 5.81874 22.8043 6.2516V11.7677H21.4482ZM39.2118 11.9516C38.3614 11.9516 37.6279 11.7639 37.0111 11.3885C36.3982 11.0092 35.9252 10.4806 35.5919 9.8026C35.2625 9.12075 35.0977 8.3278 35.0977 7.42377C35.0977 6.51974 35.2625 5.72297 35.5919 5.03346C35.9252 4.34011 36.3887 3.79999 36.9824 3.4131C37.58 3.02237 38.2772 2.82701 39.0739 2.82701C39.5336 2.82701 39.9875 2.90362 40.4357 3.05685C40.8839 3.21007 41.2919 3.45906 41.6596 3.80382C42.0274 4.14475 42.3204 4.59676 42.5388 5.15987C42.7571 5.72297 42.8663 6.41632 42.8663 7.2399V7.8145H36.0631V6.64232H41.4872C41.4872 6.14434 41.3876 5.69999 41.1885 5.30926C40.9931 4.91854 40.7135 4.61017 40.3495 4.38416C39.9895 4.15816 39.5643 4.04515 39.0739 4.04515C38.5338 4.04515 38.0665 4.17922 37.6719 4.44737C37.2812 4.71168 36.9805 5.05644 36.7698 5.48164C36.5591 5.90684 36.4538 6.36269 36.4538 6.84918V7.63063C36.4538 8.29716 36.5687 8.86218 36.7985 9.32568C37.0322 9.78536 37.3559 10.1359 37.7696 10.3772C38.1833 10.6147 38.6641 10.7334 39.2118 10.7334C39.5681 10.7334 39.8899 10.6836 40.1772 10.584C40.4683 10.4806 40.7192 10.3274 40.9299 10.1244C41.1406 9.91752 41.3034 9.66087 41.4183 9.35441L42.7284 9.72216C42.5905 10.1665 42.3587 10.5572 42.0331 10.8943C41.7075 11.2276 41.3053 11.4881 40.8265 11.6758C40.3476 11.8597 39.8094 11.9516 39.2118 11.9516Z" fill="#162456"/>
</svg>
