<svg width="246" height="28" viewBox="0 0 246 28" fill="none" xmlns="http://www.w3.org/2000/svg">
<path d="M24.0597 14.3566C24.0597 17.1776 23.5313 19.5938 22.4744 21.6052C21.4261 23.608 19.9943 25.1421 18.179 26.2075C16.3722 27.2728 14.3224 27.8055 12.0298 27.8055C9.73722 27.8055 7.68324 27.2728 5.8679 26.2075C4.06108 25.1336 2.62926 23.5952 1.57244 21.5924C0.524147 19.581 -2.98023e-07 17.1691 -2.98023e-07 14.3566C-2.98023e-07 11.5356 0.524147 9.12365 1.57244 7.12081C2.62926 5.10944 4.06108 3.57109 5.8679 2.50575C7.68324 1.44041 9.73722 0.907736 12.0298 0.907736C14.3224 0.907736 16.3722 1.44041 18.179 2.50575C19.9943 3.57109 21.4261 5.10944 22.4744 7.12081C23.5313 9.12365 24.0597 11.5356 24.0597 14.3566ZM19.2912 14.3566C19.2912 12.3708 18.9801 10.6961 18.358 9.33245C17.7443 7.96029 16.892 6.92478 15.8011 6.22592C14.7102 5.51853 13.4531 5.16484 12.0298 5.16484C10.6065 5.16484 9.34943 5.51853 8.25852 6.22592C7.16761 6.92478 6.31108 7.96029 5.68892 9.33245C5.07528 10.6961 4.76847 12.3708 4.76847 14.3566C4.76847 16.3424 5.07528 18.0214 5.68892 19.3935C6.31108 20.7572 7.16761 21.7927 8.25852 22.5001C9.34943 23.1989 10.6065 23.5484 12.0298 23.5484C13.4531 23.5484 14.7102 23.1989 15.8011 22.5001C16.892 21.7927 17.7443 20.7572 18.358 19.3935C18.9801 18.0214 19.2912 16.3424 19.2912 14.3566ZM40.8548 19.189V7.81115H45.4826V27.4475H40.9954V23.9575H40.7908C40.3477 25.0569 39.619 25.956 38.6048 26.6549C37.5991 27.3538 36.359 27.7032 34.8846 27.7032C33.5977 27.7032 32.4599 27.4177 31.4712 26.8467C30.4911 26.2671 29.7241 25.4276 29.1701 24.3282C28.6161 23.2202 28.3391 21.8822 28.3391 20.314V7.81115H32.967V19.5981C32.967 20.8424 33.3079 21.831 33.9897 22.564C34.6715 23.2969 35.5664 23.6634 36.6744 23.6634C37.3562 23.6634 38.0167 23.4972 38.6559 23.1648C39.2951 22.8325 39.8192 22.3381 40.2283 21.6819C40.646 21.0171 40.8548 20.1861 40.8548 19.189ZM50.2415 27.4475V7.81115H54.7287V11.0839H54.9332C55.2912 9.95035 55.9048 9.07677 56.7741 8.46313C57.652 7.84098 58.6534 7.5299 59.7784 7.5299C60.0341 7.5299 60.3196 7.54268 60.6349 7.56825C60.9588 7.58529 61.2273 7.61512 61.4403 7.65774V11.9148C61.2443 11.8467 60.9332 11.787 60.5071 11.7359C60.0895 11.6762 59.6847 11.6464 59.2926 11.6464C58.4489 11.6464 57.6903 11.8296 57.017 12.1961C56.3523 12.554 55.8281 13.0526 55.4446 13.6918C55.0611 14.331 54.8693 15.0682 54.8693 15.9035V27.4475H50.2415ZM96.0597 10.0995H91.2784C91.142 9.31541 90.8906 8.6208 90.5241 8.01569C90.1577 7.40205 89.7017 6.88217 89.1563 6.45603C88.6108 6.02989 87.9886 5.71029 87.2898 5.49723C86.5994 5.27563 85.8537 5.16484 85.0526 5.16484C83.6293 5.16484 82.3679 5.52279 81.2685 6.2387C80.169 6.94609 79.3082 7.98586 78.6861 9.35802C78.0639 10.7217 77.7528 12.3879 77.7528 14.3566C77.7528 16.3594 78.0639 18.0469 78.6861 19.4191C79.3168 20.7827 80.1776 21.814 81.2685 22.5129C82.3679 23.2032 83.625 23.5484 85.0398 23.5484C85.8239 23.5484 86.5568 23.4461 87.2386 23.2415C87.929 23.0285 88.5469 22.7174 89.0923 22.3083C89.6463 21.8992 90.1108 21.3964 90.4858 20.7998C90.8693 20.2032 91.1335 19.5214 91.2784 18.7543L96.0597 18.7799C95.8807 20.0242 95.4929 21.1918 94.8963 22.2827C94.3082 23.3736 93.5369 24.3367 92.5824 25.1719C91.6278 25.9986 90.5114 26.6464 89.233 27.1151C87.9545 27.5754 86.5355 27.8055 84.9759 27.8055C82.6747 27.8055 80.6207 27.2728 78.8139 26.2075C77.0071 25.1421 75.5838 23.6038 74.544 21.5924C73.5043 19.581 72.9844 17.1691 72.9844 14.3566C72.9844 11.5356 73.5085 9.12365 74.5568 7.12081C75.6051 5.10944 77.0327 3.57109 78.8395 2.50575C80.6463 1.44041 82.6918 0.907736 84.9759 0.907736C86.4332 0.907736 87.7884 1.11228 89.0412 1.52137C90.294 1.93046 91.4105 2.53132 92.3906 3.32393C93.3707 4.10802 94.1761 5.07109 94.8068 6.21313C95.446 7.34666 95.8636 8.64211 96.0597 10.0995ZM108.764 27.831C106.846 27.831 105.184 27.4092 103.778 26.5654C102.372 25.7217 101.281 24.5413 100.505 23.0242C99.7383 21.5072 99.3548 19.7344 99.3548 17.706C99.3548 15.6776 99.7383 13.9006 100.505 12.3751C101.281 10.8495 102.372 9.66484 103.778 8.82109C105.184 7.97734 106.846 7.55546 108.764 7.55546C110.681 7.55546 112.343 7.97734 113.75 8.82109C115.156 9.66484 116.243 10.8495 117.01 12.3751C117.785 13.9006 118.173 15.6776 118.173 17.706C118.173 19.7344 117.785 21.5072 117.01 23.0242C116.243 24.5413 115.156 25.7217 113.75 26.5654C112.343 27.4092 110.681 27.831 108.764 27.831ZM108.789 24.1236C109.829 24.1236 110.699 23.8381 111.397 23.2671C112.096 22.6876 112.616 21.912 112.957 20.9404C113.306 19.9688 113.481 18.8864 113.481 17.6932C113.481 16.4915 113.306 15.4049 112.957 14.4333C112.616 13.4532 112.096 12.6734 111.397 12.0938C110.699 11.5143 109.829 11.2245 108.789 11.2245C107.724 11.2245 106.838 11.5143 106.13 12.0938C105.431 12.6734 104.907 13.4532 104.558 14.4333C104.217 15.4049 104.047 16.4915 104.047 17.6932C104.047 18.8864 104.217 19.9688 104.558 20.9404C104.907 21.912 105.431 22.6876 106.13 23.2671C106.838 23.8381 107.724 24.1236 108.789 24.1236ZM126.729 1.26569V27.4475H122.101V1.26569H126.729ZM136.115 1.26569V27.4475H131.488V1.26569H136.115ZM149.567 27.831C147.599 27.831 145.898 27.4219 144.467 26.6038C143.043 25.7771 141.948 24.6094 141.181 23.1009C140.414 21.5839 140.031 19.7984 140.031 17.7444C140.031 15.7245 140.414 13.9518 141.181 12.4262C141.957 10.8921 143.039 9.69893 144.428 8.84666C145.817 7.98586 147.45 7.55546 149.325 7.55546C150.535 7.55546 151.677 7.75149 152.751 8.14353C153.833 8.52705 154.788 9.12365 155.614 9.93331C156.45 10.743 157.106 11.7742 157.583 13.0271C158.06 14.2714 158.299 15.7543 158.299 17.4759V18.895H142.204V15.7756H153.863C153.854 14.8893 153.663 14.1009 153.288 13.4106C152.913 12.7117 152.388 12.162 151.715 11.7614C151.05 11.3609 150.275 11.1606 149.388 11.1606C148.442 11.1606 147.612 11.3907 146.896 11.8509C146.18 12.3026 145.621 12.8992 145.221 13.6407C144.829 14.3736 144.629 15.179 144.62 16.0569V18.7799C144.62 19.9219 144.829 20.9021 145.246 21.7202C145.664 22.5299 146.248 23.1521 146.998 23.5867C147.748 24.0129 148.626 24.2259 149.631 24.2259C150.305 24.2259 150.914 24.1322 151.46 23.9447C152.005 23.7486 152.478 23.4631 152.879 23.0881C153.279 22.7131 153.582 22.2486 153.786 21.6947L158.107 22.1805C157.835 23.3225 157.315 24.3197 156.548 25.1719C155.789 26.0157 154.817 26.6719 153.633 27.1407C152.448 27.6009 151.093 27.831 149.567 27.831ZM170.779 27.831C168.819 27.831 167.136 27.4006 165.73 26.5398C164.332 25.679 163.254 24.4901 162.495 22.9731C161.745 21.4475 161.37 19.6918 161.37 17.706C161.37 15.7117 161.754 13.9518 162.521 12.4262C163.288 10.8921 164.37 9.69893 165.768 8.84666C167.174 7.98586 168.836 7.55546 170.754 7.55546C172.348 7.55546 173.758 7.8495 174.985 8.43757C176.221 9.01711 177.206 9.83956 177.939 10.9049C178.672 11.9617 179.089 13.1975 179.191 14.6123H174.768C174.589 13.6663 174.163 12.8779 173.49 12.2472C172.825 11.608 171.934 11.2884 170.818 11.2884C169.872 11.2884 169.041 11.5441 168.325 12.0555C167.609 12.5583 167.051 13.2827 166.65 14.2288C166.258 15.1748 166.062 16.3083 166.062 17.6293C166.062 18.9674 166.258 20.118 166.65 21.081C167.042 22.0356 167.592 22.7728 168.299 23.2927C169.015 23.804 169.855 24.0597 170.818 24.0597C171.5 24.0597 172.109 23.9319 172.646 23.6762C173.191 23.412 173.647 23.0327 174.014 22.5384C174.38 22.0441 174.632 21.4432 174.768 20.7359H179.191C179.081 22.1251 178.672 23.3566 177.964 24.4305C177.257 25.4958 176.294 26.331 175.075 26.9361C173.856 27.5327 172.424 27.831 170.779 27.831ZM192.797 7.81115V11.3907H181.509V7.81115H192.797ZM184.295 3.1066H188.923V21.5413C188.923 22.1634 189.017 22.6407 189.205 22.9731C189.401 23.2969 189.656 23.5185 189.972 23.6379C190.287 23.7572 190.636 23.8168 191.02 23.8168C191.31 23.8168 191.574 23.7955 191.813 23.7529C192.06 23.7103 192.247 23.6719 192.375 23.6379L193.155 27.2557C192.908 27.341 192.554 27.4347 192.094 27.537C191.642 27.6393 191.088 27.6989 190.432 27.716C189.273 27.7501 188.229 27.5754 187.3 27.1918C186.371 26.7998 185.634 26.1947 185.088 25.3765C184.551 24.5583 184.287 23.5356 184.295 22.3083V3.1066ZM196.667 27.4475V7.81115H201.295V27.4475H196.667ZM198.994 5.02421C198.261 5.02421 197.63 4.78132 197.102 4.29552C196.574 3.8012 196.309 3.20887 196.309 2.51853C196.309 1.81967 196.574 1.22734 197.102 0.741542C197.63 0.247225 198.261 6.58035e-05 198.994 6.58035e-05C199.735 6.58035e-05 200.366 0.247225 200.886 0.741542C201.414 1.22734 201.679 1.81967 201.679 2.51853C201.679 3.20887 201.414 3.8012 200.886 4.29552C200.366 4.78132 199.735 5.02421 198.994 5.02421ZM214.619 27.831C212.702 27.831 211.04 27.4092 209.634 26.5654C208.227 25.7217 207.136 24.5413 206.361 23.0242C205.594 21.5072 205.21 19.7344 205.21 17.706C205.21 15.6776 205.594 13.9006 206.361 12.3751C207.136 10.8495 208.227 9.66484 209.634 8.82109C211.04 7.97734 212.702 7.55546 214.619 7.55546C216.537 7.55546 218.199 7.97734 219.605 8.82109C221.011 9.66484 222.098 10.8495 222.865 12.3751C223.641 13.9006 224.028 15.6776 224.028 17.706C224.028 19.7344 223.641 21.5072 222.865 23.0242C222.098 24.5413 221.011 25.7217 219.605 26.5654C218.199 27.4092 216.537 27.831 214.619 27.831ZM214.645 24.1236C215.685 24.1236 216.554 23.8381 217.253 23.2671C217.952 22.6876 218.472 21.912 218.813 20.9404C219.162 19.9688 219.337 18.8864 219.337 17.6932C219.337 16.4915 219.162 15.4049 218.813 14.4333C218.472 13.4532 217.952 12.6734 217.253 12.0938C216.554 11.5143 215.685 11.2245 214.645 11.2245C213.58 11.2245 212.693 11.5143 211.986 12.0938C211.287 12.6734 210.763 13.4532 210.413 14.4333C210.072 15.4049 209.902 16.4915 209.902 17.6932C209.902 18.8864 210.072 19.9688 210.413 20.9404C210.763 21.912 211.287 22.6876 211.986 23.2671C212.693 23.8381 213.58 24.1236 214.645 24.1236ZM232.584 15.9418V27.4475H227.956V7.81115H232.38V11.1478H232.61C233.061 10.0484 233.782 9.17478 234.77 8.52706C235.767 7.87933 236.999 7.55546 238.465 7.55546C239.82 7.55546 241 7.84524 242.006 8.42478C243.02 9.00433 243.804 9.84382 244.358 10.9432C244.921 12.0427 245.198 13.3765 245.189 14.9447V27.4475H240.561V15.6606C240.561 14.3481 240.221 13.3211 239.539 12.5796C238.865 11.8381 237.932 11.4674 236.739 11.4674C235.929 11.4674 235.209 11.6464 234.578 12.0043C233.956 12.3538 233.466 12.8609 233.108 13.5256C232.759 14.1904 232.584 14.9958 232.584 15.9418Z" fill="#032E15"/>
</svg>
