<svg width="167" height="20" viewBox="0 0 167 20" fill="none" xmlns="http://www.w3.org/2000/svg">
<path d="M8.35937 5.01425C8.30256 4.44133 8.05871 3.99626 7.62784 3.67902C7.19697 3.36179 6.61221 3.20317 5.87358 3.20317C5.37168 3.20317 4.94792 3.27419 4.60227 3.41624C4.25663 3.55355 3.99148 3.74531 3.80682 3.99152C3.62689 4.23773 3.53693 4.51709 3.53693 4.82959C3.52746 5.09001 3.58191 5.31728 3.70028 5.51141C3.82339 5.70554 3.99148 5.87362 4.20454 6.01567C4.41761 6.15298 4.66382 6.27372 4.94318 6.37788C5.22254 6.47732 5.52083 6.56254 5.83807 6.63357L7.14489 6.94607C7.77935 7.08811 8.36174 7.27751 8.89204 7.51425C9.42235 7.75099 9.88163 8.04218 10.2699 8.38783C10.6581 8.73347 10.9588 9.14067 11.1719 9.60942C11.3897 10.0782 11.5009 10.6156 11.5057 11.2216C11.5009 12.1118 11.2737 12.8836 10.8239 13.537C10.3788 14.1857 9.73485 14.6899 8.89204 15.0498C8.05398 15.4049 7.04309 15.5824 5.85937 15.5824C4.68513 15.5824 3.6624 15.4025 2.79119 15.0427C1.92471 14.6828 1.24763 14.1501 0.759942 13.4446C0.276987 12.7344 0.0236729 11.8561 -1.40071e-06 10.8097H2.97585C3.00899 11.2974 3.14867 11.7046 3.39489 12.0313C3.64583 12.3533 3.97964 12.5971 4.39631 12.7628C4.81771 12.9238 5.29356 13.0043 5.82386 13.0043C6.3447 13.0043 6.79687 12.9285 7.1804 12.777C7.56865 12.6255 7.86932 12.4148 8.08239 12.1449C8.29545 11.875 8.40199 11.5649 8.40199 11.2145C8.40199 10.8878 8.30492 10.6132 8.11079 10.3907C7.9214 10.1681 7.64204 9.97874 7.27273 9.82249C6.90814 9.66624 6.4607 9.52419 5.9304 9.39635L4.34659 8.99862C3.12026 8.70033 2.15199 8.23395 1.44176 7.59948C0.731533 6.96501 0.378787 6.11037 0.383521 5.03555C0.378787 4.15487 0.613162 3.38546 1.08665 2.72732C1.56487 2.06917 2.22064 1.55544 3.05398 1.18612C3.88731 0.816805 4.83428 0.632146 5.89489 0.632146C6.97443 0.632146 7.91667 0.816805 8.72159 1.18612C9.53125 1.55544 10.161 2.06917 10.6108 2.72732C11.0606 3.38546 11.2926 4.14777 11.3068 5.01425H8.35937ZM13.5174 15.3765V4.46737H16.543V15.3765H13.5174ZM15.0373 3.06112C14.5875 3.06112 14.2016 2.91198 13.8796 2.61368C13.5624 2.31065 13.4038 1.94843 13.4038 1.52703C13.4038 1.11037 13.5624 0.752885 13.8796 0.45459C14.2016 0.151559 14.5875 4.36306e-05 15.0373 4.36306e-05C15.4871 4.36306e-05 15.8706 0.151559 16.1879 0.45459C16.5098 0.752885 16.6708 1.11037 16.6708 1.52703C16.6708 1.94843 16.5098 2.31065 16.1879 2.61368C15.8706 2.91198 15.4871 3.06112 15.0373 3.06112ZM23.8814 19.6946C22.9013 19.6946 22.0608 19.5597 21.3601 19.2898C20.6641 19.0247 20.1101 18.6624 19.6982 18.2032C19.2862 17.7439 19.0187 17.2278 18.8956 16.6549L21.6939 16.2785C21.7791 16.4963 21.9141 16.6999 22.0987 16.8892C22.2834 17.0786 22.5272 17.2302 22.8303 17.3438C23.138 17.4622 23.5121 17.5214 23.9524 17.5214C24.6106 17.5214 25.1527 17.3604 25.5788 17.0384C26.0097 16.7212 26.2251 16.1885 26.2251 15.4404V13.4446H26.0973C25.9647 13.7477 25.7659 14.0341 25.5007 14.304C25.2356 14.5739 24.8946 14.7941 24.478 14.9645C24.0613 15.135 23.5642 15.2202 22.9865 15.2202C22.1674 15.2202 21.4216 15.0308 20.7493 14.652C20.0817 14.2685 19.549 13.6838 19.1513 12.8978C18.7583 12.1071 18.5618 11.108 18.5618 9.90061C18.5618 8.66482 18.763 7.63262 19.1655 6.80402C19.5679 5.97542 20.103 5.35516 20.7706 4.94323C21.4429 4.53129 22.1792 4.32533 22.9794 4.32533C23.5902 4.32533 24.1016 4.4295 24.5135 4.63783C24.9254 4.84143 25.2569 5.09711 25.5078 5.40487C25.7635 5.7079 25.96 6.0062 26.0973 6.29976H26.2109V4.46737H29.2152V15.483C29.2152 16.411 28.9879 17.1875 28.5334 17.8125C28.0788 18.4375 27.4491 18.9063 26.6442 19.2188C25.844 19.536 24.9231 19.6946 23.8814 19.6946ZM23.9453 12.9475C24.433 12.9475 24.8449 12.8267 25.1811 12.5853C25.522 12.3391 25.7824 11.9887 25.9624 11.5341C26.147 11.0749 26.2393 10.5256 26.2393 9.88641C26.2393 9.2472 26.1494 8.69323 25.9695 8.22448C25.7895 7.75099 25.5291 7.38404 25.1882 7.12362C24.8473 6.86321 24.433 6.733 23.9453 6.733C23.4482 6.733 23.0291 6.86794 22.6882 7.13783C22.3473 7.40298 22.0893 7.7723 21.9141 8.24578C21.7389 8.71927 21.6513 9.26614 21.6513 9.88641C21.6513 10.5161 21.7389 11.0607 21.9141 11.5199C22.094 11.9745 22.352 12.3272 22.6882 12.5782C23.0291 12.8244 23.4482 12.9475 23.9453 12.9475ZM34.6484 9.06965V15.3765H31.6229V4.46737H34.5064V6.39209H34.6342C34.8757 5.75762 35.2805 5.25573 35.8487 4.88641C36.4169 4.51235 37.1058 4.32533 37.9155 4.32533C38.6731 4.32533 39.3336 4.49105 39.897 4.82249C40.4605 5.15393 40.8984 5.62741 41.2109 6.24294C41.5234 6.85374 41.6797 7.5829 41.6797 8.43044V15.3765H38.6541V8.97021C38.6589 8.3026 38.4884 7.78177 38.1428 7.40771C37.7971 7.02893 37.3213 6.83953 36.7152 6.83953C36.308 6.83953 35.9482 6.92713 35.6357 7.10232C35.3279 7.27751 35.0864 7.53319 34.9112 7.86936C34.7408 8.2008 34.6532 8.6009 34.6484 9.06965ZM47.1751 15.5824C46.479 15.5824 45.8588 15.4617 45.3143 15.2202C44.7698 14.974 44.3389 14.6118 44.0217 14.1336C43.7092 13.6506 43.5529 13.0493 43.5529 12.3296C43.5529 11.7235 43.6642 11.2145 43.8867 10.8026C44.1093 10.3907 44.4123 10.0592 44.7958 9.80828C45.1793 9.55734 45.6149 9.36794 46.1026 9.2401C46.5951 9.11226 47.1111 9.0223 47.6509 8.97021C48.2854 8.90393 48.7968 8.84237 49.185 8.78556C49.5733 8.724 49.855 8.63404 50.0302 8.51567C50.2054 8.3973 50.293 8.22211 50.293 7.9901V7.94749C50.293 7.49768 50.1509 7.14967 49.8668 6.90345C49.5875 6.65724 49.1897 6.53413 48.6736 6.53413C48.1291 6.53413 47.6959 6.65487 47.3739 6.89635C47.052 7.13309 46.8389 7.43139 46.7347 7.79124L43.9364 7.56396C44.0785 6.90109 44.3578 6.32817 44.7745 5.84521C45.1912 5.35752 45.7286 4.98347 46.3867 4.72305C47.0496 4.4579 47.8166 4.32533 48.6879 4.32533C49.2939 4.32533 49.8739 4.39635 50.4279 4.5384C50.9866 4.68044 51.4814 4.90061 51.9123 5.19891C52.3479 5.4972 52.6912 5.88073 52.9421 6.34948C53.1931 6.81349 53.3185 7.36984 53.3185 8.01851V15.3765H50.4492V13.8637H50.364C50.1888 14.2046 49.9544 14.5053 49.6609 14.7657C49.3673 15.0214 49.0146 15.2226 48.6026 15.3694C48.1907 15.5114 47.7148 15.5824 47.1751 15.5824ZM48.0415 13.4944C48.4866 13.4944 48.8796 13.4068 49.2205 13.2316C49.5614 13.0517 49.829 12.8102 50.0231 12.5071C50.2172 12.2041 50.3143 11.8608 50.3143 11.4773V10.3196C50.2196 10.3812 50.0894 10.438 49.9236 10.4901C49.7627 10.5374 49.5804 10.5824 49.3768 10.625C49.1732 10.6629 48.9696 10.6984 48.766 10.7316C48.5624 10.76 48.3777 10.786 48.212 10.8097C47.8569 10.8618 47.5468 10.9446 47.2816 11.0583C47.0165 11.1719 46.8105 11.3258 46.6637 11.5199C46.5169 11.7093 46.4435 11.9461 46.4435 12.2302C46.4435 12.6421 46.5927 12.957 46.891 13.1748C47.194 13.3878 47.5775 13.4944 48.0415 13.4944ZM61.4684 4.46737V6.7401H54.8988V4.46737H61.4684ZM56.3903 1.85374H59.4158V12.0242C59.4158 12.3035 59.4585 12.5214 59.5437 12.6776C59.6289 12.8291 59.7473 12.9357 59.8988 12.9972C60.055 13.0588 60.235 13.0895 60.4386 13.0895C60.5806 13.0895 60.7227 13.0777 60.8647 13.054C61.0067 13.0256 61.1156 13.0043 61.1914 12.9901L61.6673 15.2415C61.5157 15.2889 61.3027 15.3433 61.0281 15.4049C60.7534 15.4712 60.4196 15.5114 60.0266 15.5256C59.2975 15.554 58.6583 15.457 58.109 15.2344C57.5645 15.0119 57.1407 14.6662 56.8377 14.1975C56.5347 13.7287 56.3855 13.1369 56.3903 12.4219V1.85374ZM70.435 10.7316V4.46737H73.4606V15.3765H70.5558V13.3949H70.4421C70.1959 14.0341 69.7863 14.5479 69.2134 14.9361C68.6452 15.3244 67.9516 15.5185 67.1325 15.5185C66.4033 15.5185 65.7617 15.3528 65.2077 15.0214C64.6538 14.6899 64.2205 14.2188 63.908 13.608C63.6003 12.9972 63.444 12.2657 63.4393 11.4134V4.46737H66.4648V10.8736C66.4696 11.5176 66.6424 12.0266 66.9833 12.4006C67.3242 12.7747 67.7811 12.9617 68.354 12.9617C68.7186 12.9617 69.0595 12.8788 69.3768 12.7131C69.694 12.5427 69.9497 12.2917 70.1438 11.9603C70.3427 11.6288 70.4397 11.2193 70.435 10.7316ZM75.8807 15.3765V4.46737H78.8139V6.37078H78.9276C79.1264 5.6937 79.4602 5.18234 79.929 4.83669C80.3977 4.48631 80.9375 4.31112 81.5483 4.31112C81.6998 4.31112 81.8632 4.32059 82.0384 4.33953C82.2135 4.35847 82.3674 4.38451 82.5 4.41766V7.10232C82.358 7.0597 82.1615 7.02182 81.9105 6.98868C81.6596 6.95554 81.4299 6.93896 81.2216 6.93896C80.7765 6.93896 80.3788 7.03603 80.0284 7.23016C79.6828 7.41955 79.4081 7.6847 79.2045 8.02561C79.0057 8.36652 78.9062 8.75951 78.9062 9.20459V15.3765H75.8807ZM88.5281 15.5895C87.4059 15.5895 86.44 15.3623 85.6303 14.9077C84.8254 14.4484 84.2051 13.7998 83.7695 12.9617C83.3339 12.1189 83.1161 11.1222 83.1161 9.97163C83.1161 8.84948 83.3339 7.86463 83.7695 7.01709C84.2051 6.16955 84.8183 5.50904 85.609 5.03555C86.4045 4.56207 87.3372 4.32533 88.4073 4.32533C89.127 4.32533 89.797 4.44133 90.4173 4.67334C91.0423 4.90061 91.5868 5.24389 92.0508 5.70317C92.5195 6.16245 92.8841 6.7401 93.1445 7.43612C93.4049 8.12741 93.5352 8.93707 93.5352 9.8651V10.6961H84.3235V8.82107H90.6871C90.6871 8.38546 90.5924 7.99957 90.4031 7.6634C90.2137 7.32722 89.9509 7.06444 89.6147 6.87504C89.2833 6.68092 88.8974 6.58385 88.457 6.58385C87.9977 6.58385 87.5906 6.69039 87.2354 6.90345C86.8851 7.11179 86.6104 7.39351 86.4116 7.74862C86.2127 8.099 86.1109 8.48963 86.1062 8.9205V10.7032C86.1062 11.2429 86.2056 11.7093 86.4045 12.1023C86.6081 12.4953 86.8945 12.7983 87.2638 13.0114C87.6332 13.2245 88.0711 13.331 88.5778 13.331C88.9139 13.331 89.2217 13.2837 89.5011 13.189C89.7804 13.0943 90.0195 12.9522 90.2184 12.7628C90.4173 12.5734 90.5688 12.3414 90.6729 12.0668L93.4712 12.2515C93.3292 12.9238 93.038 13.5109 92.5977 14.0128C92.162 14.51 91.5986 14.8982 90.9073 15.1776C90.2208 15.4522 89.4277 15.5895 88.5281 15.5895ZM108.086 5.01425C108.029 4.44133 107.785 3.99626 107.354 3.67902C106.924 3.36179 106.339 3.20317 105.6 3.20317C105.098 3.20317 104.674 3.27419 104.329 3.41624C103.983 3.55355 103.718 3.74531 103.533 3.99152C103.353 4.23773 103.263 4.51709 103.263 4.82959C103.254 5.09001 103.308 5.31728 103.427 5.51141C103.55 5.70554 103.718 5.87362 103.931 6.01567C104.144 6.15298 104.39 6.27372 104.67 6.37788C104.949 6.47732 105.247 6.56254 105.565 6.63357L106.871 6.94607C107.506 7.08811 108.088 7.27751 108.619 7.51425C109.149 7.75099 109.608 8.04218 109.996 8.38783C110.385 8.73347 110.685 9.14067 110.898 9.60942C111.116 10.0782 111.228 10.6156 111.232 11.2216C111.228 12.1118 111 12.8836 110.55 13.537C110.105 14.1857 109.461 14.6899 108.619 15.0498C107.781 15.4049 106.77 15.5824 105.586 15.5824C104.412 15.5824 103.389 15.4025 102.518 15.0427C101.651 14.6828 100.974 14.1501 100.487 13.4446C100.004 12.7344 99.7502 11.8561 99.7266 10.8097H102.702C102.736 11.2974 102.875 11.7046 103.121 12.0313C103.372 12.3533 103.706 12.5971 104.123 12.7628C104.544 12.9238 105.02 13.0043 105.55 13.0043C106.071 13.0043 106.523 12.9285 106.907 12.777C107.295 12.6255 107.596 12.4148 107.809 12.1449C108.022 11.875 108.129 11.5649 108.129 11.2145C108.129 10.8878 108.031 10.6132 107.837 10.3907C107.648 10.1681 107.369 9.97874 106.999 9.82249C106.635 9.66624 106.187 9.52419 105.657 9.39635L104.073 8.99862C102.847 8.70033 101.879 8.23395 101.168 7.59948C100.458 6.96501 100.105 6.11037 100.11 5.03555C100.105 4.15487 100.34 3.38546 100.813 2.72732C101.291 2.06917 101.947 1.55544 102.781 1.18612C103.614 0.816805 104.561 0.632146 105.621 0.632146C106.701 0.632146 107.643 0.816805 108.448 1.18612C109.258 1.55544 109.888 2.06917 110.337 2.72732C110.787 3.38546 111.019 4.14777 111.033 5.01425H108.086ZM118.173 15.5895C117.056 15.5895 116.094 15.3528 115.289 14.8793C114.489 14.4011 113.874 13.7382 113.443 12.8907C113.017 12.0431 112.804 11.0678 112.804 9.96453C112.804 8.84711 113.019 7.867 113.45 7.02419C113.886 6.17665 114.503 5.51614 115.304 5.04266C116.104 4.56444 117.056 4.32533 118.159 4.32533C119.11 4.32533 119.944 4.49815 120.659 4.84379C121.374 5.18944 121.94 5.67476 122.356 6.29976C122.773 6.92476 123.002 7.65866 123.045 8.50146H120.19C120.109 7.95696 119.896 7.51898 119.551 7.18754C119.21 6.85137 118.762 6.68328 118.208 6.68328C117.74 6.68328 117.33 6.81112 116.98 7.06681C116.634 7.31775 116.364 7.6847 116.17 8.16766C115.976 8.65061 115.879 9.23537 115.879 9.92192C115.879 10.6179 115.974 11.2098 116.163 11.6975C116.357 12.1852 116.629 12.5569 116.98 12.8125C117.33 13.0682 117.74 13.1961 118.208 13.1961C118.554 13.1961 118.864 13.125 119.139 12.983C119.418 12.841 119.648 12.635 119.828 12.3651C120.012 12.0905 120.133 11.7614 120.19 11.3779H123.045C122.998 12.2112 122.77 12.9451 122.363 13.5796C121.961 14.2093 121.404 14.7017 120.694 15.0569C119.984 15.412 119.144 15.5895 118.173 15.5895ZM129.954 15.5895C128.832 15.5895 127.866 15.3623 127.056 14.9077C126.251 14.4484 125.631 13.7998 125.195 12.9617C124.76 12.1189 124.542 11.1222 124.542 9.97163C124.542 8.84948 124.76 7.86463 125.195 7.01709C125.631 6.16955 126.244 5.50904 127.035 5.03555C127.83 4.56207 128.763 4.32533 129.833 4.32533C130.553 4.32533 131.223 4.44133 131.843 4.67334C132.468 4.90061 133.013 5.24389 133.477 5.70317C133.945 6.16245 134.31 6.7401 134.57 7.43612C134.831 8.12741 134.961 8.93707 134.961 9.8651V10.6961H125.749V8.82107H132.113C132.113 8.38546 132.018 7.99957 131.829 7.6634C131.639 7.32722 131.377 7.06444 131.04 6.87504C130.709 6.68092 130.323 6.58385 129.883 6.58385C129.424 6.58385 129.016 6.69039 128.661 6.90345C128.311 7.11179 128.036 7.39351 127.837 7.74862C127.638 8.099 127.537 8.48963 127.532 8.9205V10.7032C127.532 11.2429 127.631 11.7093 127.83 12.1023C128.034 12.4953 128.32 12.7983 128.69 13.0114C129.059 13.2245 129.497 13.331 130.004 13.331C130.34 13.331 130.647 13.2837 130.927 13.189C131.206 13.0943 131.445 12.9522 131.644 12.7628C131.843 12.5734 131.995 12.3414 132.099 12.0668L134.897 12.2515C134.755 12.9238 134.464 13.5109 134.023 14.0128C133.588 14.51 133.024 14.8982 132.333 15.1776C131.647 15.4522 130.853 15.5895 129.954 15.5895ZM139.961 9.06965V15.3765H136.935V4.46737H139.819V6.39209H139.947C140.188 5.75762 140.593 5.25573 141.161 4.88641C141.729 4.51235 142.418 4.32533 143.228 4.32533C143.986 4.32533 144.646 4.49105 145.21 4.82249C145.773 5.15393 146.211 5.62741 146.523 6.24294C146.836 6.85374 146.992 7.5829 146.992 8.43044V15.3765H143.967V8.97021C143.971 8.3026 143.801 7.78177 143.455 7.40771C143.11 7.02893 142.634 6.83953 142.028 6.83953C141.621 6.83953 141.261 6.92713 140.948 7.10232C140.64 7.27751 140.399 7.53319 140.224 7.86936C140.053 8.2008 139.966 8.6009 139.961 9.06965ZM155.179 4.46737V6.7401H148.61V4.46737H155.179ZM150.101 1.85374H153.127V12.0242C153.127 12.3035 153.169 12.5214 153.255 12.6776C153.34 12.8291 153.458 12.9357 153.61 12.9972C153.766 13.0588 153.946 13.0895 154.15 13.0895C154.292 13.0895 154.434 13.0777 154.576 13.054C154.718 13.0256 154.827 13.0043 154.902 12.9901L155.378 15.2415C155.227 15.2889 155.014 15.3433 154.739 15.4049C154.464 15.4712 154.131 15.5114 153.738 15.5256C153.008 15.554 152.369 15.457 151.82 15.2344C151.275 15.0119 150.852 14.6662 150.549 14.1975C150.246 13.7287 150.096 13.1369 150.101 12.4219V1.85374ZM166.09 7.57817L163.32 7.74862C163.273 7.51188 163.171 7.29881 163.015 7.10942C162.859 6.91529 162.653 6.76141 162.397 6.64777C162.146 6.5294 161.845 6.47021 161.495 6.47021C161.026 6.47021 160.631 6.56965 160.309 6.76851C159.987 6.96264 159.826 7.22306 159.826 7.54976C159.826 7.81018 159.93 8.03035 160.138 8.21027C160.347 8.3902 160.704 8.53461 161.211 8.64351L163.185 9.04124C164.246 9.25904 165.037 9.60942 165.558 10.0924C166.078 10.5753 166.339 11.2098 166.339 11.9958C166.339 12.7107 166.128 13.3381 165.707 13.8779C165.29 14.4177 164.717 14.8391 163.988 15.1421C163.263 15.4404 162.428 15.5895 161.481 15.5895C160.037 15.5895 158.886 15.2889 158.029 14.6875C157.177 14.0815 156.677 13.2576 156.531 12.216L159.506 12.0597C159.596 12.5 159.814 12.8362 160.16 13.0682C160.505 13.2955 160.948 13.4091 161.488 13.4091C162.018 13.4091 162.444 13.3073 162.766 13.1037C163.093 12.8954 163.259 12.6279 163.263 12.3012C163.259 12.0266 163.143 11.8017 162.915 11.6265C162.688 11.4465 162.338 11.3092 161.864 11.2145L159.975 10.8381C158.91 10.625 158.117 10.2557 157.596 9.73016C157.08 9.20459 156.822 8.53461 156.822 7.72021C156.822 7.01946 157.011 6.41576 157.39 5.90913C157.773 5.40251 158.311 5.01188 159.002 4.73726C159.698 4.46264 160.513 4.32533 161.445 4.32533C162.823 4.32533 163.907 4.61652 164.698 5.19891C165.494 5.78129 165.958 6.57438 166.09 7.57817Z" fill="#032E15"/>
</svg>
