<svg width="446" height="35" viewBox="0 0 446 35" fill="none" xmlns="http://www.w3.org/2000/svg">
<path d="M7.3892 27.4475L0 1.26569H5.10085L9.81818 20.5057H10.0611L15.098 1.26569H19.7386L24.7884 20.5185H25.0185L29.7358 1.26569H34.8366L27.4474 27.4475H22.7685L17.527 9.07677H17.3224L12.0682 27.4475H7.3892ZM42.5487 15.9418V27.4475H37.9208V1.26569H42.4464V11.1478H42.6765C43.1367 10.0398 43.8484 9.16626 44.8114 8.52706C45.783 7.87933 47.0188 7.55546 48.5188 7.55546C49.8825 7.55546 51.0714 7.84098 52.0856 8.412C53.0998 8.98302 53.8839 9.81825 54.4379 10.9177C55.0004 12.0171 55.2816 13.3594 55.2816 14.9447V27.4475H50.6538V15.6606C50.6538 14.3396 50.3129 13.3126 49.631 12.5796C48.9577 11.8381 48.0117 11.4674 46.793 11.4674C45.9748 11.4674 45.2418 11.6464 44.5941 12.0043C43.9549 12.3538 43.4521 12.8609 43.0856 13.5256C42.7276 14.1904 42.5487 14.9958 42.5487 15.9418ZM62.1722 34.8111C61.5415 34.8111 60.9577 34.76 60.4208 34.6577C59.8924 34.564 59.4705 34.4532 59.1552 34.3254L60.229 30.7202C60.9023 30.9163 61.5032 31.01 62.0316 31.0015C62.56 30.993 63.0245 30.8268 63.4251 30.5029C63.8342 30.1876 64.1793 29.6592 64.4606 28.9177L64.8569 27.8566L57.7362 7.81115H62.6452L67.1708 22.6407H67.3754L71.9137 7.81115H76.8356L68.9734 29.8254C68.6069 30.8651 68.1211 31.7557 67.516 32.4972C66.9109 33.2472 66.1694 33.8182 65.2915 34.2103C64.4222 34.6109 63.3825 34.8111 62.1722 34.8111ZM106.712 9.62649C106.499 8.93615 106.205 8.31825 105.83 7.77279C105.463 7.21882 105.02 6.7458 104.5 6.35376C103.989 5.96171 103.401 5.66768 102.736 5.47166C102.071 5.26711 101.347 5.16484 100.563 5.16484C99.1566 5.16484 97.9038 5.51853 96.8043 6.22592C95.7049 6.9333 94.8398 7.97308 94.2092 9.34524C93.587 10.7089 93.2759 12.3708 93.2759 14.331C93.2759 16.3083 93.587 17.983 94.2092 19.3552C94.8313 20.7273 95.6964 21.7714 96.8043 22.4873C97.9123 23.1947 99.1992 23.5484 100.665 23.5484C101.995 23.5484 103.145 23.2927 104.117 22.7813C105.097 22.27 105.851 21.5455 106.38 20.608C106.908 19.662 107.172 18.554 107.172 17.2842L108.246 17.4504H101.138V13.743H111.762V16.8879C111.762 19.1293 111.284 21.0682 110.33 22.7046C109.375 24.341 108.063 25.6023 106.392 26.4887C104.722 27.3665 102.804 27.8055 100.64 27.8055C98.2276 27.8055 96.1097 27.2643 94.2859 26.1819C92.4705 25.091 91.0515 23.5441 90.0288 21.5413C89.0146 19.5299 88.5075 17.1435 88.5075 14.3822C88.5075 12.2685 88.8058 10.3807 89.4023 8.71882C90.0075 7.05688 90.8512 5.64637 91.9336 4.48728C93.016 3.31967 94.2859 2.4333 95.7433 1.82819C97.2006 1.21455 98.7859 0.907736 100.499 0.907736C101.948 0.907736 103.299 1.1208 104.551 1.54694C105.804 1.96455 106.917 2.56115 107.888 3.33671C108.868 4.11228 109.674 5.03274 110.304 6.09808C110.935 7.16342 111.348 8.33956 111.544 9.62649H106.712ZM114.072 5.24154V1.26569H134.962V5.24154H126.869V27.4475H122.165V5.24154H114.072ZM155.368 9.62649C155.155 8.93615 154.861 8.31825 154.486 7.77279C154.12 7.21882 153.676 6.7458 153.157 6.35376C152.645 5.96171 152.057 5.66768 151.392 5.47166C150.728 5.26711 150.003 5.16484 149.219 5.16484C147.813 5.16484 146.56 5.51853 145.461 6.22592C144.361 6.9333 143.496 7.97308 142.865 9.34524C142.243 10.7089 141.932 12.3708 141.932 14.331C141.932 16.3083 142.243 17.983 142.865 19.3552C143.488 20.7273 144.353 21.7714 145.461 22.4873C146.569 23.1947 147.855 23.5484 149.321 23.5484C150.651 23.5484 151.801 23.2927 152.773 22.7813C153.753 22.27 154.507 21.5455 155.036 20.608C155.564 19.662 155.828 18.554 155.828 17.2842L156.902 17.4504H149.794V13.743H160.418V16.8879C160.418 19.1293 159.941 21.0682 158.986 22.7046C158.032 24.341 156.719 25.6023 155.049 26.4887C153.378 27.3665 151.461 27.8055 149.296 27.8055C146.884 27.8055 144.766 27.2643 142.942 26.1819C141.127 25.091 139.708 23.5441 138.685 21.5413C137.671 19.5299 137.164 17.1435 137.164 14.3822C137.164 12.2685 137.462 10.3807 138.059 8.71882C138.664 7.05688 139.507 5.64637 140.59 4.48728C141.672 3.31967 142.942 2.4333 144.4 1.82819C145.857 1.21455 147.442 0.907736 149.155 0.907736C150.604 0.907736 151.955 1.1208 153.208 1.54694C154.461 1.96455 155.573 2.56115 156.544 3.33671C157.525 4.11228 158.33 5.03274 158.961 6.09808C159.591 7.16342 160.005 8.33956 160.201 9.62649H155.368ZM173.729 27.4475V7.81115H178.357V27.4475H173.729ZM176.056 5.02421C175.323 5.02421 174.692 4.78132 174.164 4.29552C173.636 3.8012 173.371 3.20887 173.371 2.51853C173.371 1.81967 173.636 1.22734 174.164 0.741542C174.692 0.247225 175.323 6.58035e-05 176.056 6.58035e-05C176.798 6.58035e-05 177.428 0.247225 177.948 0.741542C178.477 1.22734 178.741 1.81967 178.741 2.51853C178.741 3.20887 178.477 3.8012 177.948 4.29552C177.428 4.78132 176.798 5.02421 176.056 5.02421ZM198.636 13.0015L194.417 13.4617C194.298 13.0356 194.089 12.635 193.791 12.26C193.501 11.885 193.109 11.5825 192.615 11.3523C192.12 11.1222 191.515 11.0072 190.799 11.0072C189.836 11.0072 189.027 11.216 188.37 11.6336C187.723 12.0512 187.403 12.5924 187.412 13.2572C187.403 13.8282 187.612 14.2927 188.038 14.6506C188.473 15.0086 189.189 15.3026 190.186 15.5327L193.535 16.2486C195.393 16.6492 196.774 17.2842 197.677 18.1535C198.589 19.0228 199.049 20.1606 199.058 21.5668C199.049 22.8026 198.687 23.8935 197.971 24.8396C197.264 25.7771 196.279 26.51 195.018 27.0384C193.757 27.5668 192.308 27.831 190.672 27.831C188.268 27.831 186.333 27.3282 184.868 26.3225C183.402 25.3083 182.528 23.8978 182.247 22.091L186.76 21.6563C186.964 22.5427 187.399 23.2117 188.064 23.6634C188.728 24.1151 189.593 24.341 190.659 24.341C191.758 24.341 192.64 24.1151 193.305 23.6634C193.978 23.2117 194.315 22.6535 194.315 21.9887C194.315 21.4262 194.098 20.9617 193.663 20.5952C193.237 20.2288 192.572 19.9475 191.669 19.7515L188.319 19.0484C186.436 18.6563 185.042 17.9958 184.139 17.0668C183.235 16.1293 182.788 14.9447 182.797 13.5129C182.788 12.3026 183.116 11.2543 183.781 10.368C184.454 9.47308 185.387 8.78274 186.581 8.29694C187.782 7.80262 189.167 7.55546 190.735 7.55546C193.037 7.55546 194.848 8.04552 196.169 9.02563C197.498 10.0057 198.321 11.331 198.636 13.0015ZM221.609 7.81115V11.3907H210.321V7.81115H221.609ZM213.108 3.1066H217.735V21.5413C217.735 22.1634 217.829 22.6407 218.017 22.9731C218.213 23.2969 218.468 23.5185 218.784 23.6379C219.099 23.7572 219.449 23.8168 219.832 23.8168C220.122 23.8168 220.386 23.7955 220.625 23.7529C220.872 23.7103 221.059 23.6719 221.187 23.6379L221.967 27.2557C221.72 27.341 221.366 27.4347 220.906 27.537C220.454 27.6393 219.9 27.6989 219.244 27.716C218.085 27.7501 217.041 27.5754 216.112 27.1918C215.183 26.7998 214.446 26.1947 213.9 25.3765C213.363 24.5583 213.099 23.5356 213.108 22.3083V3.1066ZM230.529 15.9418V27.4475H225.901V1.26569H230.427V11.1478H230.657C231.117 10.0398 231.829 9.16626 232.792 8.52706C233.763 7.87933 234.999 7.55546 236.499 7.55546C237.863 7.55546 239.052 7.84098 240.066 8.412C241.08 8.98302 241.864 9.81825 242.418 10.9177C242.981 12.0171 243.262 13.3594 243.262 14.9447V27.4475H238.634V15.6606C238.634 14.3396 238.293 13.3126 237.612 12.5796C236.938 11.8381 235.992 11.4674 234.773 11.4674C233.955 11.4674 233.222 11.6464 232.575 12.0043C231.935 12.3538 231.433 12.8609 231.066 13.5256C230.708 14.1904 230.529 14.9958 230.529 15.9418ZM256.673 27.831C254.704 27.831 253.004 27.4219 251.572 26.6038C250.148 25.7771 249.053 24.6094 248.286 23.1009C247.519 21.5839 247.136 19.7984 247.136 17.7444C247.136 15.7245 247.519 13.9518 248.286 12.4262C249.062 10.8921 250.144 9.69893 251.533 8.84666C252.923 7.98586 254.555 7.55546 256.43 7.55546C257.64 7.55546 258.782 7.75149 259.856 8.14353C260.938 8.52705 261.893 9.12365 262.719 9.93331C263.555 10.743 264.211 11.7742 264.688 13.0271C265.165 14.2714 265.404 15.7543 265.404 17.4759V18.895H249.309V15.7756H260.968C260.96 14.8893 260.768 14.1009 260.393 13.4106C260.018 12.7117 259.494 12.162 258.82 11.7614C258.156 11.3609 257.38 11.1606 256.494 11.1606C255.548 11.1606 254.717 11.3907 254.001 11.8509C253.285 12.3026 252.727 12.8992 252.326 13.6407C251.934 14.3736 251.734 15.179 251.725 16.0569V18.7799C251.725 19.9219 251.934 20.9021 252.352 21.7202C252.769 22.5299 253.353 23.1521 254.103 23.5867C254.853 24.0129 255.731 24.2259 256.737 24.2259C257.41 24.2259 258.019 24.1322 258.565 23.9447C259.11 23.7486 259.583 23.4631 259.984 23.0881C260.384 22.7131 260.687 22.2486 260.891 21.6947L265.212 22.1805C264.94 23.3225 264.42 24.3197 263.653 25.1719C262.894 26.0157 261.923 26.6719 260.738 27.1407C259.553 27.6009 258.198 27.831 256.673 27.831ZM288.118 27.4475L292.414 1.26569H295.993L291.698 27.4475H288.118ZM276.319 20.6975L276.919 17.118H297.067L296.466 20.6975H276.319ZM278.914 27.4475L283.209 1.26569H286.789L282.493 27.4475H278.914ZM277.84 11.5952L278.428 8.01569H298.576L297.988 11.5952H277.84ZM312.015 1.26569V27.4475H307.272V5.88075H307.119L300.995 9.79268V5.44609L307.502 1.26569H312.015ZM350.259 10.0995H345.477C345.341 9.31541 345.089 8.6208 344.723 8.01569C344.357 7.40205 343.901 6.88217 343.355 6.45603C342.81 6.02989 342.188 5.71029 341.489 5.49723C340.798 5.27563 340.053 5.16484 339.251 5.16484C337.828 5.16484 336.567 5.52279 335.467 6.2387C334.368 6.94609 333.507 7.98586 332.885 9.35802C332.263 10.7217 331.952 12.3879 331.952 14.3566C331.952 16.3594 332.263 18.0469 332.885 19.4191C333.516 20.7827 334.376 21.814 335.467 22.5129C336.567 23.2032 337.824 23.5484 339.239 23.5484C340.023 23.5484 340.756 23.4461 341.438 23.2415C342.128 23.0285 342.746 22.7174 343.291 22.3083C343.845 21.8992 344.31 21.3964 344.685 20.7998C345.068 20.2032 345.332 19.5214 345.477 18.7543L350.259 18.7799C350.08 20.0242 349.692 21.1918 349.095 22.2827C348.507 23.3736 347.736 24.3367 346.781 25.1719C345.827 25.9986 344.71 26.6464 343.432 27.1151C342.153 27.5754 340.734 27.8055 339.175 27.8055C336.874 27.8055 334.82 27.2728 333.013 26.2075C331.206 25.1421 329.783 23.6038 328.743 21.5924C327.703 19.581 327.183 17.1691 327.183 14.3566C327.183 11.5356 327.707 9.12365 328.756 7.12081C329.804 5.10944 331.232 3.57109 333.038 2.50575C334.845 1.44041 336.891 0.907736 339.175 0.907736C340.632 0.907736 341.987 1.11228 343.24 1.52137C344.493 1.93046 345.609 2.53132 346.589 3.32393C347.57 4.10802 348.375 5.07109 349.006 6.21313C349.645 7.34666 350.063 8.64211 350.259 10.0995ZM359.025 15.9418V27.4475H354.397V1.26569H358.923V11.1478H359.153C359.613 10.0398 360.325 9.16626 361.288 8.52706C362.26 7.87933 363.495 7.55546 364.995 7.55546C366.359 7.55546 367.548 7.84098 368.562 8.412C369.576 8.98302 370.36 9.81825 370.914 10.9177C371.477 12.0171 371.758 13.3594 371.758 14.9447V27.4475H367.13V15.6606C367.13 14.3396 366.789 13.3126 366.108 12.5796C365.434 11.8381 364.488 11.4674 363.27 11.4674C362.451 11.4674 361.718 11.6464 361.071 12.0043C360.431 12.3538 359.929 12.8609 359.562 13.5256C359.204 14.1904 359.025 14.9958 359.025 15.9418ZM385.041 27.831C383.123 27.831 381.461 27.4092 380.055 26.5654C378.649 25.7217 377.558 24.5413 376.782 23.0242C376.015 21.5072 375.632 19.7344 375.632 17.706C375.632 15.6776 376.015 13.9006 376.782 12.3751C377.558 10.8495 378.649 9.66484 380.055 8.82109C381.461 7.97734 383.123 7.55546 385.041 7.55546C386.958 7.55546 388.62 7.97734 390.027 8.82109C391.433 9.66484 392.52 10.8495 393.287 12.3751C394.062 13.9006 394.45 15.6776 394.45 17.706C394.45 19.7344 394.062 21.5072 393.287 23.0242C392.52 24.5413 391.433 25.7217 390.027 26.5654C388.62 27.4092 386.958 27.831 385.041 27.831ZM385.066 24.1236C386.106 24.1236 386.975 23.8381 387.674 23.2671C388.373 22.6876 388.893 21.912 389.234 20.9404C389.583 19.9688 389.758 18.8864 389.758 17.6932C389.758 16.4915 389.583 15.4049 389.234 14.4333C388.893 13.4532 388.373 12.6734 387.674 12.0938C386.975 11.5143 386.106 11.2245 385.066 11.2245C384.001 11.2245 383.115 11.5143 382.407 12.0938C381.708 12.6734 381.184 13.4532 380.835 14.4333C380.494 15.4049 380.324 16.4915 380.324 17.6932C380.324 18.8864 380.494 19.9688 380.835 20.9404C381.184 21.912 381.708 22.6876 382.407 23.2671C383.115 23.8381 384.001 24.1236 385.066 24.1236ZM398.378 27.4475V7.81115H403.006V27.4475H398.378ZM400.705 5.02421C399.972 5.02421 399.341 4.78132 398.812 4.29552C398.284 3.8012 398.02 3.20887 398.02 2.51853C398.02 1.81967 398.284 1.22734 398.812 0.741542C399.341 0.247225 399.972 6.58035e-05 400.705 6.58035e-05C401.446 6.58035e-05 402.077 0.247225 402.597 0.741542C403.125 1.22734 403.389 1.81967 403.389 2.51853C403.389 3.20887 403.125 3.8012 402.597 4.29552C402.077 4.78132 401.446 5.02421 400.705 5.02421ZM416.33 27.831C414.37 27.831 412.686 27.4006 411.28 26.5398C409.882 25.679 408.804 24.4901 408.046 22.9731C407.296 21.4475 406.921 19.6918 406.921 17.706C406.921 15.7117 407.304 13.9518 408.071 12.4262C408.838 10.8921 409.921 9.69893 411.319 8.84666C412.725 7.98586 414.387 7.55546 416.304 7.55546C417.898 7.55546 419.309 7.8495 420.536 8.43757C421.772 9.01711 422.756 9.83956 423.489 10.9049C424.222 11.9617 424.64 13.1975 424.742 14.6123H420.319C420.14 13.6663 419.713 12.8779 419.04 12.2472C418.375 11.608 417.485 11.2884 416.368 11.2884C415.422 11.2884 414.591 11.5441 413.875 12.0555C413.159 12.5583 412.601 13.2827 412.201 14.2288C411.809 15.1748 411.613 16.3083 411.613 17.6293C411.613 18.9674 411.809 20.118 412.201 21.081C412.593 22.0356 413.142 22.7728 413.85 23.2927C414.566 23.804 415.405 24.0597 416.368 24.0597C417.05 24.0597 417.659 23.9319 418.196 23.6762C418.742 23.412 419.198 23.0327 419.564 22.5384C419.931 22.0441 420.182 21.4432 420.319 20.7359H424.742C424.631 22.1251 424.222 23.3566 423.515 24.4305C422.807 25.4958 421.844 26.331 420.625 26.9361C419.407 27.5327 417.975 27.831 416.33 27.831ZM437.235 27.831C435.266 27.831 433.566 27.4219 432.134 26.6038C430.711 25.7771 429.616 24.6094 428.849 23.1009C428.082 21.5839 427.698 19.7984 427.698 17.7444C427.698 15.7245 428.082 13.9518 428.849 12.4262C429.624 10.8921 430.707 9.69893 432.096 8.84666C433.485 7.98586 435.117 7.55546 436.992 7.55546C438.202 7.55546 439.344 7.75149 440.418 8.14353C441.501 8.52705 442.455 9.12365 443.282 9.93331C444.117 10.743 444.773 11.7742 445.251 13.0271C445.728 14.2714 445.967 15.7543 445.967 17.4759V18.895H429.871V15.7756H441.531C441.522 14.8893 441.33 14.1009 440.955 13.4106C440.58 12.7117 440.056 12.162 439.383 11.7614C438.718 11.3609 437.942 11.1606 437.056 11.1606C436.11 11.1606 435.279 11.3907 434.563 11.8509C433.847 12.3026 433.289 12.8992 432.888 13.6407C432.496 14.3736 432.296 15.179 432.288 16.0569V18.7799C432.288 19.9219 432.496 20.9021 432.914 21.7202C433.332 22.5299 433.915 23.1521 434.665 23.5867C435.415 24.0129 436.293 24.2259 437.299 24.2259C437.972 24.2259 438.582 24.1322 439.127 23.9447C439.673 23.7486 440.146 23.4631 440.546 23.0881C440.947 22.7131 441.249 22.2486 441.454 21.6947L445.775 22.1805C445.502 23.3225 444.982 24.3197 444.215 25.1719C443.457 26.0157 442.485 26.6719 441.3 27.1407C440.116 27.6009 438.761 27.831 437.235 27.831Z" fill="#032E15"/>
</svg>
