<svg width="69" height="25" viewBox="0 0 69 25" fill="none" xmlns="http://www.w3.org/2000/svg">
<path d="M7.86047 9.30967C7.79152 8.72741 7.51188 8.2754 7.02156 7.95362C6.53124 7.63185 5.92983 7.47096 5.21733 7.47096C4.69636 7.47096 4.24051 7.55524 3.84979 7.72379C3.4629 7.89233 3.16028 8.12409 2.94193 8.41905C2.72741 8.71401 2.62016 9.04919 2.62016 9.42459C2.62016 9.7387 2.69485 10.0088 2.84425 10.2348C2.99747 10.4569 3.19284 10.6427 3.43034 10.7921C3.66783 10.9377 3.91683 11.0584 4.17731 11.1541C4.43779 11.2461 4.67721 11.3208 4.89555 11.3782L6.09071 11.7C6.39716 11.7804 6.73809 11.8915 7.11349 12.0333C7.49273 12.175 7.85472 12.3684 8.19948 12.6136C8.54807 12.8549 8.83536 13.1652 9.06137 13.5444C9.28738 13.9237 9.40038 14.3891 9.40038 14.9407C9.40038 15.5766 9.23375 16.1512 8.90048 16.6645C8.57105 17.1778 8.08839 17.5858 7.4525 17.8884C6.82045 18.191 6.05241 18.3423 5.14838 18.3423C4.30564 18.3423 3.5759 18.2063 2.95917 17.9343C2.34626 17.6624 1.8636 17.2831 1.51119 16.7966C1.1626 16.3102 0.96532 15.7451 0.919353 15.1016H2.39032C2.42862 15.5459 2.57802 15.9137 2.8385 16.2048C3.10282 16.4921 3.43608 16.7066 3.8383 16.8484C4.24435 16.9863 4.68104 17.0552 5.14838 17.0552C5.69233 17.0552 6.18073 16.9671 6.61359 16.7909C7.04646 16.6109 7.3893 16.3619 7.64212 16.0439C7.89494 15.7222 8.02135 15.3468 8.02135 14.9177C8.02135 14.527 7.91218 14.2091 7.69383 13.9639C7.47549 13.7187 7.18819 13.5195 6.83194 13.3663C6.47569 13.2131 6.09071 13.079 5.677 12.9641L4.22902 12.5504C3.30967 12.2861 2.58185 11.9088 2.04556 11.4184C1.50927 10.9281 1.24113 10.2865 1.24113 9.49354C1.24113 8.83467 1.41925 8.26007 1.7755 7.76975C2.13558 7.2756 2.61824 6.89254 3.22348 6.62056C3.83255 6.34476 4.51249 6.20685 5.26329 6.20685C6.02176 6.20685 6.69595 6.34284 7.28587 6.61482C7.87579 6.88296 8.34313 7.2507 8.68788 7.71804C9.03647 8.18538 9.22034 8.71592 9.2395 9.30967H7.86047ZM12.9155 12.8262V18.1355H11.5594V6.36774H12.9155V10.6887H13.0304C13.2372 10.2329 13.5475 9.87086 13.9612 9.60271C14.3788 9.33074 14.9342 9.19475 15.6276 9.19475C16.229 9.19475 16.7557 9.31542 17.2077 9.55675C17.6597 9.79424 18.0102 10.1601 18.2592 10.6542C18.512 11.1445 18.6384 11.7689 18.6384 12.5274V18.1355H17.2824V12.6193C17.2824 11.9183 17.1004 11.3763 16.7365 10.9932C16.3765 10.6063 15.8766 10.4129 15.2368 10.4129C14.7925 10.4129 14.3941 10.5067 14.0417 10.6944C13.6931 10.8821 13.4173 11.156 13.2143 11.5161C13.0151 11.8762 12.9155 12.3129 12.9155 12.8262ZM24.7047 18.3193C23.908 18.3193 23.2089 18.1297 22.6075 17.7505C22.0099 17.3712 21.5425 16.8407 21.2054 16.1588C20.8722 15.477 20.7055 14.6802 20.7055 13.7685C20.7055 12.8492 20.8722 12.0467 21.2054 11.361C21.5425 10.6753 22.0099 10.1428 22.6075 9.7636C23.2089 9.38437 23.908 9.19475 24.7047 9.19475C25.5015 9.19475 26.1987 9.38437 26.7963 9.7636C27.3977 10.1428 27.865 10.6753 28.1983 11.361C28.5354 12.0467 28.7039 12.8492 28.7039 13.7685C28.7039 14.6802 28.5354 15.477 28.1983 16.1588C27.865 16.8407 27.3977 17.3712 26.7963 17.7505C26.1987 18.1297 25.5015 18.3193 24.7047 18.3193ZM24.7047 17.1012C25.31 17.1012 25.808 16.946 26.1987 16.6358C26.5894 16.3255 26.8786 15.9175 27.0663 15.4119C27.254 14.9062 27.3479 14.3584 27.3479 13.7685C27.3479 13.1786 27.254 12.6289 27.0663 12.1194C26.8786 11.61 26.5894 11.1982 26.1987 10.8841C25.808 10.5699 25.31 10.4129 24.7047 10.4129C24.0995 10.4129 23.6015 10.5699 23.2108 10.8841C22.8201 11.1982 22.5308 11.61 22.3431 12.1194C22.1554 12.6289 22.0616 13.1786 22.0616 13.7685C22.0616 14.3584 22.1554 14.9062 22.3431 15.4119C22.5308 15.9175 22.8201 16.3255 23.2108 16.6358C23.6015 16.946 24.0995 17.1012 24.7047 17.1012ZM30.7739 21.4451V9.30967H32.084V10.7117H32.2449C32.3445 10.5585 32.4824 10.3631 32.6586 10.1256C32.8386 9.88426 33.0953 9.66975 33.4285 9.48205C33.7656 9.29052 34.2215 9.19475 34.7961 9.19475C35.5392 9.19475 36.1942 9.38054 36.7612 9.75211C37.3281 10.1237 37.7706 10.6504 38.0885 11.3322C38.4064 12.0141 38.5654 12.8185 38.5654 13.7455C38.5654 14.6802 38.4064 15.4904 38.0885 16.1761C37.7706 16.8579 37.33 17.3866 36.7669 17.762C36.2038 18.1335 35.5545 18.3193 34.8191 18.3193C34.2521 18.3193 33.7982 18.2255 33.4573 18.0378C33.1163 17.8462 32.8539 17.6298 32.6701 17.3885C32.4862 17.1433 32.3445 16.9403 32.2449 16.7794H32.1299V21.4451H30.7739ZM32.107 13.7226C32.107 14.3891 32.2046 14.9771 32.4 15.4866C32.5954 15.9922 32.8807 16.3887 33.2562 16.676C33.6316 16.9595 34.0912 17.1012 34.6352 17.1012C35.2021 17.1012 35.6752 16.9518 36.0544 16.653C36.4375 16.3504 36.7248 15.9443 36.9163 15.4349C37.1117 14.9216 37.2094 14.3508 37.2094 13.7226C37.2094 13.102 37.1136 12.5427 36.9221 12.0447C36.7344 11.5429 36.449 11.1465 36.0659 10.8553C35.6867 10.5604 35.2098 10.4129 34.6352 10.4129C34.0836 10.4129 33.6201 10.5527 33.2447 10.8323C32.8693 11.1082 32.5858 11.495 32.3943 11.993C32.2027 12.4872 32.107 13.0637 32.107 13.7226Z" fill="#162456"/>
<path fill-rule="evenodd" clip-rule="evenodd" d="M56.5853 15.8396C56.3632 16.0618 56.0031 16.0618 55.7809 15.8396L49.9813 10.04C49.7592 9.81787 49.7592 9.45775 49.9813 9.23559L50.2495 8.9674C50.4716 8.74524 50.8318 8.74524 51.0539 8.9674L56.1831 14.0966L61.3123 8.9674C61.5345 8.74524 61.8946 8.74524 62.1167 8.9674L62.3849 9.23559C62.6071 9.45775 62.6071 9.81787 62.3849 10.04L56.5853 15.8396Z" fill="#032E15"/>
</svg>
