<svg width="70" height="12" viewBox="0 0 70 12" fill="none" xmlns="http://www.w3.org/2000/svg">
<path d="M1.49396 11.7677H1.24848e-05L4.32097 -3.50705e-07H5.79194L10.1129 11.7677H8.61894L5.10242 1.86169H5.01049L1.49396 11.7677ZM2.04557 7.17095H8.06733V8.43506H2.04557V7.17095ZM11.9459 11.7677V-3.50705e-07H13.3019V4.34394H13.4168C13.5164 4.19072 13.6543 3.99535 13.8305 3.75785C14.0106 3.51652 14.2672 3.30201 14.6005 3.11431C14.9376 2.92278 15.3934 2.82701 15.968 2.82701C16.7112 2.82701 17.3662 3.0128 17.9331 3.38437C18.5001 3.75594 18.9425 4.28265 19.2605 4.9645C19.5784 5.64636 19.7374 6.45079 19.7374 7.37781C19.7374 8.31248 19.5784 9.12266 19.2605 9.80834C18.9425 10.4902 18.502 11.0188 17.9389 11.3942C17.3758 11.7658 16.7265 11.9516 15.991 11.9516C15.4241 11.9516 14.9701 11.8577 14.6292 11.67C14.2883 11.4785 14.0259 11.2621 13.842 11.0207C13.6581 10.7756 13.5164 10.5726 13.4168 10.4117H13.2559V11.7677H11.9459ZM13.2789 7.35482C13.2789 8.02135 13.3766 8.60936 13.572 9.11883C13.7673 9.62447 14.0527 10.0209 14.4281 10.3082C14.8035 10.5917 15.2632 10.7334 15.8071 10.7334C16.3741 10.7334 16.8472 10.584 17.2264 10.2853C17.6094 9.98264 17.8967 9.57659 18.0883 9.06712C18.2836 8.55381 18.3813 7.98305 18.3813 7.35482C18.3813 6.73426 18.2856 6.17499 18.094 5.677C17.9063 5.17519 17.6209 4.77872 17.2379 4.48759C16.8586 4.19263 16.3817 4.04515 15.8071 4.04515C15.2555 4.04515 14.792 4.18497 14.4166 4.46461C14.0412 4.74041 13.7577 5.12731 13.5662 5.62529C13.3747 6.11944 13.2789 6.69595 13.2789 7.35482ZM25.3971 11.9516C24.6004 11.9516 23.9013 11.762 23.2999 11.3827C22.7023 11.0035 22.2349 10.473 21.8978 9.79111C21.5646 9.10925 21.3979 8.31248 21.3979 7.40079C21.3979 6.48144 21.5646 5.67892 21.8978 4.99323C22.2349 4.30755 22.7023 3.77509 23.2999 3.39586C23.9013 3.01663 24.6004 2.82701 25.3971 2.82701C26.1939 2.82701 26.8911 3.01663 27.4887 3.39586C28.0901 3.77509 28.5574 4.30755 28.8907 4.99323C29.2278 5.67892 29.3963 6.48144 29.3963 7.40079C29.3963 8.31248 29.2278 9.10925 28.8907 9.79111C28.5574 10.473 28.0901 11.0035 27.4887 11.3827C26.8911 11.762 26.1939 11.9516 25.3971 11.9516ZM25.3971 10.7334C26.0024 10.7334 26.5004 10.5783 26.8911 10.268C27.2818 9.95774 27.571 9.54978 27.7587 9.04413C27.9464 8.53849 28.0403 7.99071 28.0403 7.40079C28.0403 6.81087 27.9464 6.26118 27.7587 5.7517C27.571 5.24223 27.2818 4.83043 26.8911 4.51632C26.5004 4.20221 26.0024 4.04515 25.3971 4.04515C24.7919 4.04515 24.2939 4.20221 23.9032 4.51632C23.5125 4.83043 23.2232 5.24223 23.0355 5.7517C22.8478 6.26118 22.754 6.81087 22.754 7.40079C22.754 7.99071 22.8478 8.53849 23.0355 9.04413C23.2232 9.54978 23.5125 9.95774 23.9032 10.268C24.2939 10.5783 24.7919 10.7334 25.3971 10.7334ZM37.0284 8.15926V2.94193H38.3844V11.7677H37.0284V10.2738H36.9364C36.7296 10.722 36.4078 11.1031 35.9711 11.4172C35.5344 11.7275 34.9828 11.8826 34.3163 11.8826C33.7647 11.8826 33.2744 11.762 32.8453 11.5206C32.4163 11.2755 32.0792 10.9077 31.834 10.4174C31.5889 9.92326 31.4663 9.30079 31.4663 8.54998V2.94193H32.8223V8.45805C32.8223 9.10159 33.0024 9.6149 33.3625 9.99796C33.7264 10.381 34.1899 10.5726 34.753 10.5726C35.0901 10.5726 35.4329 10.4864 35.7815 10.314C36.1339 10.1416 36.4289 9.8773 36.6664 9.52105C36.9077 9.1648 37.0284 8.71087 37.0284 8.15926ZM44.7064 2.94193V4.09112H40.1326V2.94193H44.7064ZM41.4657 0.827417H42.8217V9.2395C42.8217 9.62256 42.8773 9.90986 42.9884 10.1014C43.1033 10.2891 43.2489 10.4155 43.4251 10.4806C43.6051 10.5419 43.7947 10.5726 43.9939 10.5726C44.1433 10.5726 44.2659 10.5649 44.3617 10.5496C44.4574 10.5304 44.534 10.5151 44.5915 10.5036L44.8673 11.7217C44.7754 11.7562 44.647 11.7907 44.4823 11.8252C44.3176 11.8635 44.1088 11.8826 43.856 11.8826C43.473 11.8826 43.0975 11.8003 42.7298 11.6356C42.3659 11.4708 42.0633 11.2199 41.8219 10.8828C41.5844 10.5457 41.4657 10.1205 41.4657 9.60724V0.827417ZM59.2035 -3.50705e-07H60.6285V7.79151C60.6285 8.59595 60.4388 9.31419 60.0596 9.94625C59.6842 10.5745 59.1537 11.0705 58.468 11.4345C57.7823 11.7945 56.9779 11.9746 56.0547 11.9746C55.1315 11.9746 54.3271 11.7945 53.6414 11.4345C52.9557 11.0705 52.4232 10.5745 52.044 9.94625C51.6686 9.31419 51.4809 8.59595 51.4809 7.79151V-3.50705e-07H52.9059V7.6766C52.9059 8.25119 53.0323 8.76258 53.2851 9.21077C53.5379 9.65512 53.898 10.0056 54.3654 10.2623C54.8365 10.5151 55.3996 10.6415 56.0547 10.6415C56.7097 10.6415 57.2728 10.5151 57.744 10.2623C58.2152 10.0056 58.5752 9.65512 58.8242 9.21077C59.077 8.76258 59.2035 8.25119 59.2035 7.6766V-3.50705e-07ZM69.5419 4.91854L68.3237 5.26329C68.2471 5.06027 68.1341 4.86299 67.9847 4.67146C67.8391 4.4761 67.64 4.31521 67.3871 4.1888C67.1343 4.06239 66.8106 3.99918 66.4161 3.99918C65.8759 3.99918 65.4258 4.12368 65.0658 4.37267C64.7095 4.61783 64.5314 4.93003 64.5314 5.30926C64.5314 5.64636 64.654 5.91259 64.8991 6.10795C65.1443 6.30331 65.5274 6.46611 66.0483 6.59636L67.3584 6.91813C68.1475 7.10966 68.7355 7.4027 69.1224 7.79726C69.5093 8.18799 69.7028 8.69171 69.7028 9.30845C69.7028 9.81409 69.5572 10.2661 69.2661 10.6645C68.9788 11.0629 68.5765 11.377 68.0594 11.6068C67.5423 11.8367 66.9409 11.9516 66.2552 11.9516C65.355 11.9516 64.6099 11.7562 64.02 11.3655C63.4301 10.9748 63.0566 10.404 62.8995 9.6532L64.1866 9.33143C64.3092 9.80643 64.541 10.1627 64.8819 10.4002C65.2267 10.6377 65.6768 10.7564 66.2322 10.7564C66.8643 10.7564 67.3661 10.6224 67.7376 10.3542C68.113 10.0822 68.3007 9.75663 68.3007 9.3774C68.3007 9.07095 68.1935 8.81429 67.979 8.60744C67.7645 8.39676 67.435 8.2397 66.9907 8.13627L65.5197 7.79151C64.7114 7.59998 64.1177 7.30311 63.7385 6.90089C63.363 6.49484 63.1753 5.98728 63.1753 5.37821C63.1753 4.88023 63.3152 4.43971 63.5948 4.05664C63.8783 3.67358 64.2632 3.37288 64.7497 3.15453C65.2401 2.93618 65.7955 2.82701 66.4161 2.82701C67.2895 2.82701 67.9751 3.01854 68.4731 3.4016C68.9749 3.78467 69.3312 4.29031 69.5419 4.91854Z" fill="#162456"/>
</svg>
