<svg width="84" height="16" viewBox="0 0 84 16" fill="none" xmlns="http://www.w3.org/2000/svg">
<path d="M9.08798e-06 11.7677V-3.50705e-07H7.05604V1.26411H1.42501V5.24031H6.52741V6.50442H1.42501V11.7677H9.08798e-06ZM9.21796 11.7677V2.94193H10.528V4.27499H10.62C10.7809 3.8383 11.072 3.48396 11.4934 3.21199C11.9147 2.94001 12.3897 2.80403 12.9184 2.80403C13.0179 2.80403 13.1424 2.80594 13.2918 2.80977C13.4412 2.8136 13.5542 2.81935 13.6309 2.82701V4.20604C13.5849 4.19455 13.4795 4.17731 13.3148 4.15432C13.1539 4.12751 12.9835 4.1141 12.8034 4.1141C12.3744 4.1141 11.9913 4.20412 11.6542 4.38416C11.321 4.56037 11.0567 4.80553 10.8613 5.11965C10.6698 5.42993 10.574 5.78426 10.574 6.18265V11.7677H9.21796ZM17.8355 11.9746C17.2762 11.9746 16.7686 11.8692 16.3128 11.6585C15.8569 11.444 15.4949 11.1357 15.2268 10.7334C14.9586 10.3274 14.8246 9.83707 14.8246 9.26248C14.8246 8.75684 14.9242 8.34696 15.1234 8.03284C15.3226 7.7149 15.5888 7.46591 15.922 7.28587C16.2553 7.10583 16.6231 6.97176 17.0253 6.88365C17.4313 6.79172 17.8393 6.71894 18.2492 6.66531C18.7854 6.59636 19.2202 6.54464 19.5535 6.51017C19.8906 6.47186 20.1357 6.40865 20.289 6.32055C20.446 6.23245 20.5246 6.07922 20.5246 5.86087V5.81491C20.5246 5.24797 20.3694 4.80745 20.0591 4.49334C19.7527 4.17922 19.2873 4.02217 18.6629 4.02217C18.0155 4.02217 17.5079 4.1639 17.1402 4.44737C16.7725 4.73084 16.5139 5.03346 16.3645 5.35523L15.0774 4.89555C15.3072 4.35926 15.6137 3.94172 15.9967 3.64294C16.3836 3.34031 16.805 3.12963 17.2609 3.01088C17.7205 2.8883 18.1725 2.82701 18.6169 2.82701C18.9004 2.82701 19.226 2.86149 19.5937 2.93044C19.9653 2.99556 20.3235 3.13154 20.6682 3.3384C21.0168 3.54525 21.306 3.85745 21.5358 4.27499C21.7657 4.69253 21.8806 5.2518 21.8806 5.95281V11.7677H20.5246V10.5726H20.4556C20.3637 10.7641 20.2104 10.969 19.9959 11.1874C19.7814 11.4057 19.496 11.5915 19.1398 11.7447C18.7835 11.898 18.3488 11.9746 17.8355 11.9746ZM18.0423 10.7564C18.5786 10.7564 19.0306 10.6511 19.3984 10.4404C19.7699 10.2297 20.0496 9.95774 20.2373 9.62447C20.4288 9.29121 20.5246 8.94071 20.5246 8.57296V7.33184C20.4671 7.40079 20.3407 7.464 20.1453 7.52145C19.9538 7.57508 19.7316 7.62297 19.4788 7.6651C19.2298 7.70341 18.9866 7.73789 18.7491 7.76853C18.5154 7.79535 18.3258 7.81833 18.1802 7.83748C17.8278 7.88345 17.4984 7.95815 17.1919 8.06157C16.8893 8.16117 16.6441 8.31248 16.4564 8.5155C16.2726 8.7147 16.1806 8.98667 16.1806 9.33143C16.1806 9.8026 16.3549 10.1588 16.7035 10.4002C17.0559 10.6377 17.5022 10.7564 18.0423 10.7564ZM27.9182 15.2613C27.2631 15.2613 26.7 15.177 26.2289 15.0084C25.7577 14.8437 25.365 14.6254 25.0509 14.3534C24.7407 14.0853 24.4936 13.798 24.3097 13.4915L25.3899 12.733C25.5125 12.8939 25.6677 13.0778 25.8554 13.2846C26.0431 13.4953 26.2997 13.6773 26.6253 13.8305C26.9548 13.9876 27.3857 14.0661 27.9182 14.0661C28.6307 14.0661 29.2187 13.8937 29.6822 13.549C30.1457 13.2042 30.3774 12.6641 30.3774 11.9286V10.1359H30.2625C30.1629 10.2968 30.0212 10.4959 29.8373 10.7334C29.6573 10.9671 29.3968 11.1759 29.0559 11.3598C28.7188 11.5398 28.2629 11.6298 27.6883 11.6298C26.9758 11.6298 26.3361 11.4613 25.7692 11.1242C25.2061 10.7871 24.7598 10.2968 24.4304 9.6532C24.1048 9.00966 23.942 8.22821 23.942 7.30885C23.942 6.40482 24.1009 5.61763 24.4189 4.94727C24.7368 4.27307 25.1793 3.75211 25.7462 3.38437C26.3131 3.0128 26.9682 2.82701 27.7113 2.82701C28.2859 2.82701 28.7418 2.92278 29.0788 3.11431C29.4198 3.30201 29.6803 3.51652 29.8603 3.75785C30.0442 3.99535 30.1859 4.19072 30.2855 4.34394H30.4234V2.94193H31.7335V12.0205C31.7335 12.779 31.5611 13.3957 31.2163 13.8707C30.8754 14.3496 30.4157 14.7001 29.8373 14.9222C29.2627 15.1483 28.623 15.2613 27.9182 15.2613ZM27.8722 10.4117C28.4161 10.4117 28.8758 10.2872 29.2512 10.0382C29.6266 9.78919 29.912 9.43103 30.1074 8.96369C30.3027 8.49635 30.4004 7.93708 30.4004 7.28587C30.4004 6.64998 30.3047 6.0888 30.1131 5.60231C29.9216 5.11581 29.6381 4.73467 29.2627 4.45886C28.8873 4.18305 28.4238 4.04515 27.8722 4.04515C27.2976 4.04515 26.8188 4.19072 26.4357 4.48184C26.0565 4.77297 25.7711 5.1637 25.5796 5.65402C25.3919 6.14434 25.298 6.68829 25.298 7.28587C25.298 7.89877 25.3938 8.44081 25.5853 8.91198C25.7807 9.37931 26.068 9.74705 26.4472 10.0152C26.8303 10.2795 27.3053 10.4117 27.8722 10.4117ZM34.2157 11.7677V2.94193H35.5258V4.27499H35.6177C35.7786 3.8383 36.0698 3.48396 36.4911 3.21199C36.9125 2.94001 37.3875 2.80403 37.9161 2.80403C38.0157 2.80403 38.1402 2.80594 38.2896 2.80977C38.439 2.8136 38.552 2.81935 38.6286 2.82701V4.20604C38.5827 4.19455 38.4773 4.17731 38.3126 4.15432C38.1517 4.12751 37.9812 4.1141 37.8012 4.1141C37.3722 4.1141 36.9891 4.20412 36.652 4.38416C36.3188 4.56037 36.0544 4.80553 35.8591 5.11965C35.6675 5.42993 35.5718 5.78426 35.5718 6.18265V11.7677H34.2157ZM42.8332 11.9746C42.274 11.9746 41.7664 11.8692 41.3106 11.6585C40.8547 11.444 40.4927 11.1357 40.2246 10.7334C39.9564 10.3274 39.8223 9.83707 39.8223 9.26248C39.8223 8.75684 39.9219 8.34696 40.1211 8.03284C40.3203 7.7149 40.5866 7.46591 40.9198 7.28587C41.2531 7.10583 41.6208 6.97176 42.023 6.88365C42.4291 6.79172 42.8371 6.71894 43.2469 6.66531C43.7832 6.59636 44.218 6.54464 44.5513 6.51017C44.8884 6.47186 45.1335 6.40865 45.2868 6.32055C45.4438 6.23245 45.5223 6.07922 45.5223 5.86087V5.81491C45.5223 5.24797 45.3672 4.80745 45.0569 4.49334C44.7505 4.17922 44.285 4.02217 43.6606 4.02217C43.0133 4.02217 42.5057 4.1639 42.138 4.44737C41.7702 4.73084 41.5117 5.03346 41.3623 5.35523L40.0752 4.89555C40.305 4.35926 40.6115 3.94172 40.9945 3.64294C41.3814 3.34031 41.8028 3.12963 42.2586 3.01088C42.7183 2.8883 43.1703 2.82701 43.6147 2.82701C43.8981 2.82701 44.2237 2.86149 44.5915 2.93044C44.9631 2.99556 45.3212 3.13154 45.666 3.3384C46.0146 3.54525 46.3038 3.85745 46.5336 4.27499C46.7635 4.69253 46.8784 5.2518 46.8784 5.95281V11.7677H45.5223V10.5726H45.4534C45.3614 10.7641 45.2082 10.969 44.9937 11.1874C44.7792 11.4057 44.4938 11.5915 44.1376 11.7447C43.7813 11.898 43.3465 11.9746 42.8332 11.9746ZM43.0401 10.7564C43.5764 10.7564 44.0284 10.6511 44.3961 10.4404C44.7677 10.2297 45.0473 9.95774 45.235 9.62447C45.4266 9.29121 45.5223 8.94071 45.5223 8.57296V7.33184C45.4649 7.40079 45.3385 7.464 45.1431 7.52145C44.9516 7.57508 44.7294 7.62297 44.4766 7.6651C44.2276 7.70341 43.9843 7.73789 43.7468 7.76853C43.5132 7.79535 43.3235 7.81833 43.178 7.83748C42.8256 7.88345 42.4961 7.95815 42.1897 8.06157C41.8871 8.16117 41.6419 8.31248 41.4542 8.5155C41.2703 8.7147 41.1784 8.98667 41.1784 9.33143C41.1784 9.8026 41.3527 10.1588 41.7013 10.4002C42.0537 10.6377 42.5 10.7564 43.0401 10.7564ZM50.7095 6.45845V11.7677H49.3535V2.94193H50.6635V4.32096H50.7784C50.9853 3.87277 51.2994 3.51269 51.7208 3.24072C52.1422 2.96491 52.6861 2.82701 53.3526 2.82701C53.9502 2.82701 54.4731 2.94959 54.9213 3.19475C55.3695 3.43608 55.7181 3.80382 55.967 4.29797C56.216 4.7883 56.3405 5.40886 56.3405 6.15966V11.7677H54.9845V6.2516C54.9845 5.55825 54.8044 5.01813 54.4444 4.63124C54.0843 4.24051 53.5901 4.04515 52.9619 4.04515C52.529 4.04515 52.1422 4.139 51.8012 4.3267C51.4641 4.5144 51.1979 4.7883 51.0025 5.14838C50.8072 5.50845 50.7095 5.94515 50.7095 6.45845ZM62.4039 11.9516C61.5765 11.9516 60.864 11.7562 60.2665 11.3655C59.6689 10.9748 59.2092 10.4366 58.8874 9.75089C58.5657 9.0652 58.4048 8.28184 58.4048 7.40079C58.4048 6.50442 58.5695 5.71339 58.8989 5.02771C59.2322 4.3382 59.6957 3.79999 60.2894 3.4131C60.887 3.02237 61.5842 2.82701 62.381 2.82701C63.0015 2.82701 63.5608 2.94193 64.0588 3.17177C64.5568 3.40161 64.9647 3.72338 65.2827 4.13709C65.6006 4.5508 65.7979 5.03346 65.8745 5.58507H64.5185C64.415 5.18285 64.1852 4.8266 63.8289 4.51632C63.4765 4.20221 63.0015 4.04515 62.4039 4.04515C61.8753 4.04515 61.4118 4.18305 61.0134 4.45886C60.6189 4.73084 60.3105 5.11581 60.0883 5.6138C59.87 6.10795 59.7608 6.68829 59.7608 7.35482C59.7608 8.03668 59.8681 8.63042 60.0826 9.13607C60.3009 9.64171 60.6074 10.0344 61.0019 10.314C61.4003 10.5936 61.8677 10.7334 62.4039 10.7334C62.7564 10.7334 63.0762 10.6722 63.3635 10.5496C63.6508 10.427 63.8941 10.2508 64.0933 10.0209C64.2925 9.79111 64.4342 9.5153 64.5185 9.19353H65.8745C65.7979 9.71449 65.6083 10.1837 65.3057 10.6013C65.0069 11.015 64.6104 11.3444 64.1162 11.5896C63.6259 11.8309 63.0552 11.9516 62.4039 11.9516ZM71.5573 11.9516C70.7069 11.9516 69.9733 11.7639 69.3566 11.3885C68.7437 11.0092 68.2706 10.4806 67.9373 9.8026C67.6079 9.12075 67.4432 8.3278 67.4432 7.42377C67.4432 6.51974 67.6079 5.72297 67.9373 5.03346C68.2706 4.34011 68.7341 3.79999 69.3278 3.4131C69.9254 3.02237 70.6226 2.82701 71.4194 2.82701C71.879 2.82701 72.333 2.90362 72.7811 3.05685C73.2293 3.21007 73.6373 3.45906 74.005 3.80382C74.3728 4.14475 74.6658 4.59676 74.8842 5.15987C75.1025 5.72297 75.2117 6.41632 75.2117 7.2399V7.8145H68.4085V6.64232H73.8327C73.8327 6.14434 73.7331 5.69999 73.5339 5.30926C73.3385 4.91854 73.0589 4.61017 72.695 4.38416C72.3349 4.15816 71.9097 4.04515 71.4194 4.04515C70.8792 4.04515 70.4119 4.17922 70.0173 4.44737C69.6266 4.71168 69.3259 5.05644 69.1152 5.48164C68.9045 5.90684 68.7992 6.36269 68.7992 6.84918V7.63063C68.7992 8.29716 68.9141 8.86218 69.144 9.32568C69.3776 9.78536 69.7013 10.1359 70.115 10.3772C70.5287 10.6147 71.0095 10.7334 71.5573 10.7334C71.9135 10.7334 72.2353 10.6836 72.5226 10.584C72.8137 10.4806 73.0646 10.3274 73.2753 10.1244C73.486 9.91752 73.6488 9.66087 73.7637 9.35441L75.0738 9.72216C74.9359 10.1665 74.7041 10.5572 74.3785 10.8943C74.0529 11.2276 73.6507 11.4881 73.1719 11.6758C72.693 11.8597 72.1548 11.9516 71.5573 11.9516ZM83.5261 4.91854L82.3079 5.26329C82.2313 5.06027 82.1183 4.86299 81.9689 4.67146C81.8234 4.4761 81.6242 4.31521 81.3713 4.1888C81.1185 4.06239 80.7948 3.99918 80.4003 3.99918C79.8602 3.99918 79.4101 4.12368 79.05 4.37267C78.6937 4.61783 78.5156 4.93003 78.5156 5.30926C78.5156 5.64636 78.6382 5.91259 78.8833 6.10795C79.1285 6.30331 79.5116 6.46611 80.0325 6.59636L81.3426 6.91813C82.1317 7.10966 82.7197 7.4027 83.1066 7.79726C83.4935 8.18799 83.687 8.69171 83.687 9.30845C83.687 9.81409 83.5414 10.2661 83.2503 10.6645C82.963 11.0629 82.5608 11.377 82.0436 11.6068C81.5265 11.8367 80.9251 11.9516 80.2394 11.9516C79.3392 11.9516 78.5941 11.7562 78.0042 11.3655C77.4143 10.9748 77.0408 10.404 76.8838 9.6532L78.1709 9.33143C78.2934 9.80643 78.5252 10.1627 78.8661 10.4002C79.2109 10.6377 79.661 10.7564 80.2164 10.7564C80.8485 10.7564 81.3503 10.6224 81.7219 10.3542C82.0973 10.0822 82.285 9.75663 82.285 9.3774C82.285 9.07095 82.1777 8.81429 81.9632 8.60744C81.7487 8.39676 81.4192 8.2397 80.9749 8.13627L79.5039 7.79151C78.6956 7.59998 78.1019 7.30311 77.7227 6.90089C77.3473 6.49484 77.1596 5.98728 77.1596 5.37821C77.1596 4.88023 77.2994 4.43971 77.579 4.05664C77.8625 3.67358 78.2475 3.37288 78.734 3.15453C79.2243 2.93618 79.7797 2.82701 80.4003 2.82701C81.2737 2.82701 81.9594 3.01854 82.4573 3.4016C82.9591 3.78467 83.3154 4.29031 83.5261 4.91854Z" fill="#162456"/>
</svg>
