<svg width="60" height="13" viewBox="0 0 60 13" fill="none" xmlns="http://www.w3.org/2000/svg">
<path d="M9.929 3.8383H8.504C8.41973 3.42842 8.27225 3.06834 8.06156 2.75806C7.85471 2.44778 7.60189 2.18729 7.3031 1.97661C7.00814 1.76209 6.68062 1.60121 6.32054 1.49395C5.96046 1.38669 5.58506 1.33306 5.19433 1.33306C4.48183 1.33306 3.83637 1.5131 3.25794 1.87318C2.68335 2.23326 2.22559 2.7638 1.88466 3.46481C1.54757 4.16582 1.37902 5.0258 1.37902 6.04474C1.37902 7.06369 1.54757 7.92367 1.88466 8.62468C2.22559 9.32568 2.68335 9.85623 3.25794 10.2163C3.83637 10.5764 4.48183 10.7564 5.19433 10.7564C5.58506 10.7564 5.96046 10.7028 6.32054 10.5955C6.68062 10.4883 7.00814 10.3293 7.3031 10.1186C7.60189 9.90411 7.85471 9.64171 8.06156 9.33143C8.27225 9.01732 8.41973 8.65724 8.504 8.25119H9.929C9.82174 8.8526 9.62638 9.39081 9.34291 9.8658C9.05944 10.3408 8.70703 10.7449 8.28566 11.0782C7.86429 11.4076 7.3912 11.6585 6.8664 11.8309C6.34544 12.0033 5.78808 12.0895 5.19433 12.0895C4.19071 12.0895 3.29817 11.8443 2.51672 11.354C1.73527 10.8637 1.12045 10.1665 0.672265 9.26248C0.224081 8.35845 -1.15791e-05 7.28587 -1.15791e-05 6.04474C-1.15791e-05 4.80362 0.224081 3.73104 0.672265 2.82701C1.12045 1.92298 1.73527 1.2258 2.51672 0.735482C3.29817 0.24516 4.19071 -4.08579e-07 5.19433 -4.08579e-07C5.78808 -4.08579e-07 6.34544 0.086189 6.8664 0.258568C7.3912 0.430946 7.86429 0.683769 8.28566 1.01703C8.70703 1.34647 9.05944 1.74869 9.34291 2.22368C9.62638 2.69485 9.82174 3.23306 9.929 3.8383ZM15.6333 12.1125C14.8365 12.1125 14.1374 11.9229 13.536 11.5436C12.9384 11.1644 12.4711 10.6338 12.134 9.95199C11.8007 9.27014 11.6341 8.47337 11.6341 7.56168C11.6341 6.64232 11.8007 5.83981 12.134 5.15412C12.4711 4.46844 12.9384 3.93598 13.536 3.55675C14.1374 3.17751 14.8365 2.9879 15.6333 2.9879C16.4301 2.9879 17.1272 3.17751 17.7248 3.55675C18.3262 3.93598 18.7936 4.46844 19.1268 5.15412C19.4639 5.83981 19.6325 6.64232 19.6325 7.56168C19.6325 8.47337 19.4639 9.27014 19.1268 9.95199C18.7936 10.6338 18.3262 11.1644 17.7248 11.5436C17.1272 11.9229 16.4301 12.1125 15.6333 12.1125ZM15.6333 10.8943C16.2385 10.8943 16.7365 10.7392 17.1272 10.4289C17.518 10.1186 17.8072 9.71066 17.9949 9.20502C18.1826 8.69938 18.2764 8.15159 18.2764 7.56168C18.2764 6.97176 18.1826 6.42206 17.9949 5.91259C17.8072 5.40311 17.518 4.99132 17.1272 4.67721C16.7365 4.36309 16.2385 4.20604 15.6333 4.20604C15.0281 4.20604 14.5301 4.36309 14.1393 4.67721C13.7486 4.99132 13.4594 5.40311 13.2717 5.91259C13.084 6.42206 12.9902 6.97176 12.9902 7.56168C12.9902 8.15159 13.084 8.69938 13.2717 9.20502C13.4594 9.71066 13.7486 10.1186 14.1393 10.4289C14.5301 10.7392 15.0281 10.8943 15.6333 10.8943ZM23.0585 6.61934V11.9286H21.7025V3.10282H23.0125V4.48184H23.1275C23.3343 4.03366 23.6484 3.67358 24.0698 3.40161C24.4912 3.1258 25.0351 2.9879 25.7016 2.9879C26.2992 2.9879 26.8221 3.11048 27.2703 3.35564C27.7185 3.59697 28.0671 3.96471 28.3161 4.45886C28.565 4.94918 28.6895 5.56975 28.6895 6.32055V11.9286H27.3335V6.41249C27.3335 5.71914 27.1535 5.17902 26.7934 4.79213C26.4333 4.4014 25.9391 4.20604 25.3109 4.20604C24.8781 4.20604 24.4912 4.29989 24.1502 4.48759C23.8131 4.67529 23.5469 4.94918 23.3515 5.30926C23.1562 5.66934 23.0585 6.10603 23.0585 6.61934ZM35.0058 3.10282V4.25201H30.432V3.10282H35.0058ZM31.7651 0.988304H33.1211V9.40038C33.1211 9.78345 33.1767 10.0707 33.2877 10.2623C33.4027 10.45 33.5482 10.5764 33.7244 10.6415C33.9045 10.7028 34.0941 10.7334 34.2933 10.7334C34.4427 10.7334 34.5653 10.7258 34.661 10.7105C34.7568 10.6913 34.8334 10.676 34.8909 10.6645L35.1667 11.8826C35.0747 11.9171 34.9464 11.9516 34.7817 11.9861C34.617 12.0244 34.4082 12.0435 34.1554 12.0435C33.7723 12.0435 33.3969 11.9612 33.0292 11.7964C32.6653 11.6317 32.3626 11.3808 32.1213 11.0437C31.8838 10.7066 31.7651 10.2814 31.7651 9.76812V0.988304ZM39.6428 12.1355C39.0835 12.1355 38.5759 12.0301 38.1201 11.8194C37.6642 11.6049 37.3022 11.2965 37.0341 10.8943C36.766 10.4883 36.6319 9.99796 36.6319 9.42337C36.6319 8.91772 36.7315 8.50784 36.9307 8.19373C37.1299 7.87579 37.3961 7.6268 37.7294 7.44676C38.0626 7.26672 38.4304 7.13265 38.8326 7.04454C39.2386 6.95261 39.6466 6.87982 40.0565 6.82619C40.5928 6.75724 41.0275 6.70553 41.3608 6.67105C41.6979 6.63275 41.9431 6.56954 42.0963 6.48144C42.2533 6.39333 42.3319 6.24011 42.3319 6.02176V5.97579C42.3319 5.40886 42.1767 4.96834 41.8665 4.65422C41.56 4.34011 41.0946 4.18306 40.4702 4.18306C39.8228 4.18306 39.3152 4.32479 38.9475 4.60826C38.5798 4.89172 38.3212 5.19434 38.1718 5.51612L36.8847 5.05644C37.1145 4.52015 37.421 4.10261 37.8041 3.80382C38.191 3.5012 38.6123 3.29052 39.0682 3.17177C39.5278 3.04919 39.9799 2.9879 40.4242 2.9879C40.7077 2.9879 41.0333 3.02237 41.401 3.09132C41.7726 3.15644 42.1308 3.29243 42.4755 3.49929C42.8241 3.70614 43.1133 4.01834 43.3432 4.43588C43.573 4.85342 43.6879 5.41269 43.6879 6.1137V11.9286H42.3319V10.7334H42.2629C42.171 10.925 42.0178 11.1299 41.8032 11.3483C41.5887 11.5666 41.3033 11.7524 40.9471 11.9056C40.5909 12.0588 40.1561 12.1355 39.6428 12.1355ZM39.8496 10.9173C40.3859 10.9173 40.8379 10.812 41.2057 10.6013C41.5772 10.3906 41.8569 10.1186 42.0446 9.78536C42.2361 9.4521 42.3319 9.10159 42.3319 8.73385V7.49272C42.2744 7.56168 42.148 7.62488 41.9526 7.68234C41.7611 7.73597 41.5389 7.78385 41.2861 7.82599C41.0371 7.8643 40.7939 7.89877 40.5564 7.92942C40.3227 7.95623 40.1331 7.97922 39.9875 7.99837C39.6351 8.04434 39.3057 8.11903 38.9992 8.22246C38.6966 8.32206 38.4514 8.47337 38.2637 8.67639C38.0799 8.87558 37.9879 9.14756 37.9879 9.49232C37.9879 9.96349 38.1622 10.3197 38.5108 10.5611C38.8632 10.7986 39.3095 10.9173 39.8496 10.9173ZM49.7485 12.1125C48.921 12.1125 48.2085 11.9171 47.611 11.5264C47.0134 11.1357 46.5537 10.5975 46.2319 9.91177C45.9102 9.22609 45.7493 8.44272 45.7493 7.56168C45.7493 6.66531 45.914 5.87428 46.2434 5.1886C46.5767 4.49908 47.0402 3.96088 47.634 3.57398C48.2315 3.18326 48.9287 2.9879 49.7255 2.9879C50.346 2.9879 50.9053 3.10282 51.4033 3.33265C51.9013 3.56249 52.3092 3.88427 52.6272 4.29797C52.9451 4.71168 53.1424 5.19434 53.219 5.74595H51.863C51.7595 5.34374 51.5297 4.98749 51.1735 4.67721C50.821 4.36309 50.346 4.20604 49.7485 4.20604C49.2198 4.20604 48.7563 4.34394 48.3579 4.61975C47.9634 4.89172 47.655 5.2767 47.4328 5.77468C47.2145 6.26884 47.1053 6.84918 47.1053 7.51571C47.1053 8.19756 47.2126 8.79131 47.4271 9.29695C47.6454 9.8026 47.9519 10.1952 48.3465 10.4749C48.7448 10.7545 49.2122 10.8943 49.7485 10.8943C50.1009 10.8943 50.4207 10.833 50.708 10.7105C50.9953 10.5879 51.2386 10.4117 51.4378 10.1818C51.637 9.95199 51.7787 9.67619 51.863 9.35441H53.219C53.1424 9.87538 52.9528 10.3446 52.6502 10.7622C52.3514 11.1759 51.9549 11.5053 51.4608 11.7505C50.9704 11.9918 50.3997 12.1125 49.7485 12.1125ZM59.0397 3.10282V4.25201H54.4659V3.10282H59.0397ZM55.799 0.988304H57.155V9.40038C57.155 9.78345 57.2105 10.0707 57.3216 10.2623C57.4366 10.45 57.5821 10.5764 57.7583 10.6415C57.9384 10.7028 58.128 10.7334 58.3272 10.7334C58.4766 10.7334 58.5992 10.7258 58.6949 10.7105C58.7907 10.6913 58.8673 10.676 58.9248 10.6645L59.2006 11.8826C59.1086 11.9171 58.9803 11.9516 58.8156 11.9861C58.6509 12.0244 58.4421 12.0435 58.1893 12.0435C57.8062 12.0435 57.4308 11.9612 57.0631 11.7964C56.6992 11.6317 56.3965 11.3808 56.1552 11.0437C55.9177 10.7066 55.799 10.2814 55.799 9.76812V0.988304Z" fill="#162456"/>
</svg>
