<svg width="32" height="16" viewBox="0 0 32 16" fill="none" xmlns="http://www.w3.org/2000/svg">
<path d="M9.08798e-06 11.7677V-3.50705e-07H4.11411C4.93387 -3.50705e-07 5.60998 0.141733 6.14244 0.425201C6.67489 0.704837 7.07136 1.08215 7.33185 1.55715C7.59233 2.02832 7.72257 2.5512 7.72257 3.1258C7.72257 3.63144 7.63255 4.04898 7.45251 4.37842C7.2763 4.70785 7.04263 4.96834 6.75151 5.15987C6.46421 5.3514 6.15201 5.49313 5.81492 5.58507V5.69999C6.175 5.72297 6.53699 5.84938 6.9009 6.07922C7.26481 6.30906 7.56935 6.63849 7.81451 7.06752C8.05967 7.49656 8.18225 8.02135 8.18225 8.64192C8.18225 9.23183 8.04818 9.76238 7.78003 10.2335C7.51189 10.7047 7.0886 11.0782 6.51018 11.354C5.93175 11.6298 5.17903 11.7677 4.25202 11.7677H9.08798e-06ZM1.42501 10.5036H4.25202C5.18286 10.5036 5.84365 10.3236 6.23437 9.96349C6.62893 9.59958 6.8262 9.15905 6.8262 8.64192C6.8262 8.24353 6.72469 7.87579 6.52167 7.53869C6.31864 7.19777 6.02943 6.92579 5.65403 6.72277C5.27863 6.51591 4.83427 6.41249 4.32097 6.41249H1.42501V10.5036ZM1.42501 5.17136H4.06815C4.49718 5.17136 4.88407 5.08709 5.22883 4.91854C5.57742 4.74999 5.85322 4.51249 6.05625 4.20604C6.2631 3.89959 6.36653 3.53951 6.36653 3.1258C6.36653 2.60866 6.18649 2.17006 5.82641 1.80998C5.46633 1.44607 4.89556 1.26411 4.11411 1.26411H1.42501V5.17136ZM11.6959 -3.50705e-07V11.7677H10.3399V-3.50705e-07H11.6959ZM17.7651 11.9516C16.9683 11.9516 16.2692 11.762 15.6678 11.3827C15.0702 11.0035 14.6029 10.473 14.2658 9.79111C13.9325 9.10925 13.7659 8.31248 13.7659 7.40079C13.7659 6.48144 13.9325 5.67892 14.2658 4.99323C14.6029 4.30755 15.0702 3.77509 15.6678 3.39586C16.2692 3.01663 16.9683 2.82701 17.7651 2.82701C18.5618 2.82701 19.259 3.01663 19.8566 3.39586C20.458 3.77509 20.9253 4.30755 21.2586 4.99323C21.5957 5.67892 21.7642 6.48144 21.7642 7.40079C21.7642 8.31248 21.5957 9.10925 21.2586 9.79111C20.9253 10.473 20.458 11.0035 19.8566 11.3827C19.259 11.762 18.5618 11.9516 17.7651 11.9516ZM17.7651 10.7334C18.3703 10.7334 18.8683 10.5783 19.259 10.268C19.6497 9.95774 19.939 9.54978 20.1267 9.04413C20.3144 8.53849 20.4082 7.99071 20.4082 7.40079C20.4082 6.81087 20.3144 6.26118 20.1267 5.7517C19.939 5.24223 19.6497 4.83043 19.259 4.51632C18.8683 4.20221 18.3703 4.04515 17.7651 4.04515C17.1598 4.04515 16.6618 4.20221 16.2711 4.51632C15.8804 4.83043 15.5912 5.24223 15.4035 5.7517C15.2158 6.26118 15.1219 6.81087 15.1219 7.40079C15.1219 7.99071 15.2158 8.53849 15.4035 9.04413C15.5912 9.54978 15.8804 9.95774 16.2711 10.268C16.6618 10.5783 17.1598 10.7334 17.7651 10.7334ZM27.3967 15.2613C26.7417 15.2613 26.1786 15.177 25.7074 15.0084C25.2362 14.8437 24.8436 14.6254 24.5295 14.3534C24.2192 14.0853 23.9721 13.798 23.7883 13.4915L24.8685 12.733C24.9911 12.8939 25.1462 13.0778 25.3339 13.2846C25.5216 13.4953 25.7783 13.6773 26.1039 13.8305C26.4333 13.9876 26.8643 14.0661 27.3967 14.0661C28.1092 14.0661 28.6972 13.8937 29.1607 13.549C29.6242 13.2042 29.856 12.6641 29.856 11.9286V10.1359H29.7411C29.6415 10.2968 29.4997 10.4959 29.3159 10.7334C29.1358 10.9671 28.8753 11.1759 28.5344 11.3598C28.1973 11.5398 27.7415 11.6298 27.1669 11.6298C26.4544 11.6298 25.8147 11.4613 25.2477 11.1242C24.6846 10.7871 24.2384 10.2968 23.9089 9.6532C23.5833 9.00966 23.4205 8.22821 23.4205 7.30885C23.4205 6.40482 23.5795 5.61763 23.8974 4.94727C24.2154 4.27307 24.6578 3.75211 25.2248 3.38437C25.7917 3.0128 26.4467 2.82701 27.1899 2.82701C27.7645 2.82701 28.2203 2.92278 28.5574 3.11431C28.8983 3.30201 29.1588 3.51652 29.3389 3.75785C29.5227 3.99535 29.6645 4.19072 29.7641 4.34394H29.902V2.94193H31.212V12.0205C31.212 12.779 31.0397 13.3957 30.6949 13.8707C30.354 14.3496 29.8943 14.7001 29.3159 14.9222C28.7413 15.1483 28.1016 15.2613 27.3967 15.2613ZM27.3508 10.4117C27.8947 10.4117 28.3544 10.2872 28.7298 10.0382C29.1052 9.78919 29.3906 9.43103 29.5859 8.96369C29.7813 8.49635 29.879 7.93708 29.879 7.28587C29.879 6.64998 29.7832 6.0888 29.5917 5.60231C29.4001 5.11581 29.1167 4.73467 28.7413 4.45886C28.3659 4.18305 27.9024 4.04515 27.3508 4.04515C26.7762 4.04515 26.2973 4.19072 25.9143 4.48184C25.535 4.77297 25.2496 5.1637 25.0581 5.65402C24.8704 6.14434 24.7766 6.68829 24.7766 7.28587C24.7766 7.89877 24.8723 8.44081 25.0639 8.91198C25.2592 9.37931 25.5465 9.74705 25.9258 10.0152C26.3088 10.2795 26.7838 10.4117 27.3508 10.4117Z" fill="#162456"/>
</svg>
